{
.appVersion = "1060";
copyright = "Copyright 2017 Google Inc. All Rights Reserved.";
customParameters = (
{
name = glyphOrder;
value = (
.notdef,
NULL,
CR,
space,
uni00A0,
u10600,
u10601,
u10602,
u10603,
u10604,
u10605,
u10606,
u10607,
u10608,
u10609,
u1060A,
u1060B,
u1060C,
u1060D,
u1060E,
u1060F,
u10610,
u10611,
u10612,
u10613,
u10614,
u10615,
u10616,
u10617,
u10618,
u10619,
u1061A,
u1061B,
u1061C,
u1061D,
u1061E,
u1061F,
u10620,
u10621,
u10622,
u10623,
u10624,
u10625,
u10626,
u10627,
u10628,
u10629,
u1062A,
u1062B,
u1062C,
u1062D,
u1062E,
u1062F,
u10630,
u10631,
u10632,
u10633,
u10634,
u10635,
u10636,
u10637,
u10638,
u10639,
u1063A,
u1063B,
u1063C,
u1063D,
u1063E,
u1063F,
u10640,
u10641,
u10642,
u10643,
u10644,
u10645,
u10646,
u10647,
u10648,
u10649,
u1064A,
u1064B,
u1064C,
u1064D,
u1064E,
u1064F,
u10650,
u10651,
u10652,
u10653,
u10654,
u10655,
u10656,
u10657,
u10658,
u10659,
u1065A,
u1065B,
u1065C,
u1065D,
u1065E,
u1065F,
u10660,
u10661,
u10662,
u10663,
u10664,
u10665,
u10666,
u10667,
u10668,
u10669,
u1066A,
u1066B,
u1066C,
u1066D,
u1066E,
u1066F,
u10670,
u10671,
u10672,
u10673,
u10674,
u10675,
u10676,
u10677,
u10678,
u10679,
u1067A,
u1067B,
u1067C,
u1067D,
u1067E,
u1067F,
u10680,
u10681,
u10682,
u10683,
u10684,
u10685,
u10686,
u10687,
u10688,
u10689,
u1068A,
u1068B,
u1068C,
u1068D,
u1068E,
u1068F,
u10690,
u10691,
u10692,
u10693,
u10694,
u10695,
u10696,
u10697,
u10698,
u10699,
u1069A,
u1069B,
u1069C,
u1069D,
u1069E,
u1069F,
u106A0,
u106A1,
u106A2,
u106A3,
u106A4,
u106A5,
u106A6,
u106A7,
u106A8,
u106A9,
u106AA,
u106AB,
u106AC,
u106AD,
u106AE,
u106AF,
u106B0,
u106B1,
u106B2,
u106B3,
u106B4,
u106B5,
u106B6,
u106B7,
u106B8,
u106B9,
u106BA,
u106BB,
u106BC,
u106BD,
u106BE,
u106BF,
u106C0,
u106C1,
u106C2,
u106C3,
u106C4,
u106C5,
u106C6,
u106C7,
u106C8,
u106C9,
u106CA,
u106CB,
u106CC,
u106CD,
u106CE,
u106CF,
u106D0,
u106D1,
u106D2,
u106D3,
u106D4,
u106D5,
u106D6,
u106D7,
u106D8,
u106D9,
u106DA,
u106DB,
u106DC,
u106DD,
u106DE,
u106DF,
u106E0,
u106E1,
u106E2,
u106E3,

glyphs = (
{
glyphname = .notdef;
lastChange = "2017-12-19 23:21:51 +0000";
layers = (
{
layerId = UUID0;
paths = (
{
closed = 1;
nodes = (
"561 0 LINE",
"561 714 LINE",
"100 714 LINE",
"100 0 LINE"
);
},
{
closed = 1;
nodes = (
"151 663 LINE",
"510 663 LINE",
"510 51 LINE",
"151 51 LINE"
);
}
);
width = 661;
}
);
},
{
glyphname = u10600;
lastChange = "2017-12-19 23:21:51 +0000";
layers = (
{
layerId = UUID0;
paths = (
{
closed = 1;
nodes = (
"150 0 LINE",
"150 377 LINE",
"480 377 LINE",
"480 440 LINE",
"150 440 LINE",
"150 800 LINE",
"80 800 LINE",
"80 0 LINE"
);
}
);
width = 530;
}
);
unicode = 10600;
},
{
glyphname = u10601;
lastChange = "2017-12-19 23:21:51 +0000";
layers = (
{
layerId = UUID0;
paths = (
{
closed = 1;
nodes = (
"360 0 LINE",
"360 377 LINE",
"600 377 LINE",
"600 440 LINE",
"360 440 LINE",
"360 800 LINE",
"290 800 LINE",
"290 440 LINE",
"50 440 LINE",
"50 377 LINE",
"290 377 LINE",
"290 0 LINE"
);
}
);
width = 650;
}
);
unicode = 10601;
},
{
glyphname = u10602;
lastChange = "2017-12-19 23:21:51 +0000";
layers = (
{
layerId = UUID0;
paths = (
{
closed = 1;
nodes = (
"360 0 LINE",
"360 277 LINE",
"600 277 LINE",
"600 340 LINE",
"360 340 LINE",
"360 477 LINE",
"600 477 LINE",
"600 540 LINE",
"360 540 LINE",
"360 800 LINE",
"290 800 LINE",
"290 540 LINE",
"50 540 LINE",
"50 477 LINE",
"290 477 LINE",
"290 340 LINE",
"50 340 LINE",
"50 277 LINE",
"290 277 LINE",
"290 0 LINE"
);
}
);
width = 650;
}
);
unicode = 10602;
},
{
glyphname = u10603;
lastChange = "2017-12-19 23:21:51 +0000";
layers = (
{
layerId = UUID0;
paths = (
{
closed = 1;
nodes = (
"385 0 LINE",
"385 108 LINE",
"620 352 LINE",
"571 397 LINE",
"385 199 LINE",
"385 283 LINE",
"620 527 LINE",
"571 572 LINE",
"385 374 LINE",
"385 458 LINE",
"620 702 LINE",
"571 747 LINE",
"385 549 LINE",
"385 800 LINE",
"315 800 LINE",
"315 549 LINE",
"129 747 LINE",
"80 702 LINE",
"315 458 LINE",
"315 374 LINE",
"129 572 LINE",
"80 527 LINE",
"315 283 LINE",
"315 199 LINE",
"129 397 LINE",
"80 352 LINE",
"315 108 LINE",
"315 0 LINE"
);
}
);
width = 700;
}
);
unicode = 10603;
},
{
glyphname = u10604;
lastChange = "2017-12-19 23:21:51 +0000";
layers = (
{
layerId = UUID0;
paths = (
{
closed = 1;
nodes = (
"282 0 LINE",
"282 477 LINE",
"414 477 LINE",
"414 540 LINE",
"282 540 LINE",
"282 737 LINE",
"474 737 LINE",
"474 800 LINE",
"20 800 LINE",
"20 737 LINE",
"212 737 LINE",
"212 540 LINE",
"80 540 LINE",
"80 477 LINE",
"212 477 LINE",
"212 0 LINE"
);
}
);
width = 494;
}
);
unicode = 10604;
},
{
glyphname = u10605;
lastChange = "2017-12-19 23:21:51 +0000";
layers = (
{
layerId = UUID0;
paths = (
{
closed = 1;
nodes = (
"282 0 LINE",
"282 470 LINE",
"212 470 LINE",
"212 0 LINE"
);
},
{
closed = 1;
nodes = (
"283 536 OFFCURVE",
"310 563 OFFCURVE",
"310 597 CURVE SMOOTH",
"310 632 OFFCURVE",
"283 659 OFFCURVE",
"248 659 CURVE SMOOTH",
"214 659 OFFCURVE",
"187 632 OFFCURVE",
"187 597 CURVE SMOOTH",
"187 563 OFFCURVE",
"214 536 OFFCURVE",
"248 536 CURVE SMOOTH"
);
},
{
closed = 1;
nodes = (
"474 737 LINE",
"474 800 LINE",
"20 800 LINE",
"20 737 LINE"
);
}
);
width = 494;
}
);
unicode = 10605;
},
{
glyphname = u10606;
lastChange = "2017-12-19 23:21:51 +0000";
layers = (
{
layerId = UUID0;
paths = (
{
closed = 1;
nodes = (
"554 737 LINE",
"554 800 LINE",
"100 800 LINE",
"100 737 LINE"
);
},
{
closed = 1;
nodes = (
"362 0 LINE",
"362 400 LINE",
"292 400 LINE",
"292 0 LINE"
);
},
{
closed = 1;
nodes = (
"150 460 LINE",
"150 677 LINE",
"80 677 LINE",
"80 460 LINE"
);
},
{
closed = 1;
nodes = (
"362 460 LINE",
"362 677 LINE",
"292 677 LINE",
"292 460 LINE"
);
},
{
closed = 1;
nodes = (
"574 460 LINE",
"574 677 LINE",
"504 677 LINE",
"504 460 LINE"
);
}
);
width = 654;
}
);
unicode = 10606;
},
{
glyphname = u10607;
lastChange = "2017-12-19 23:21:51 +0000";
layers = (
{
layerId = UUID0;
paths = (
{
closed = 1;
nodes = (
"362 0 LINE",
"362 577 LINE",
"504 577 LINE",
"504 420 LINE",
"574 420 LINE",
"574 800 LINE",
"504 800 LINE",
"504 640 LINE",
"150 640 LINE",
"150 800 LINE",
"80 800 LINE",
"80 420 LINE",
"150 420 LINE",
"150 577 LINE",
"292 577 LINE",
"292 0 LINE"
);
}
);
width = 654;
}
);
unicode = 10607;
},
{
glyphname = u10608;
lastChange = "2017-12-19 23:21:51 +0000";
layers = (
{
layerId = UUID0;
paths = (
{
closed = 1;
nodes = (
"170 0 LINE",
"170 480 LINE",
"594 480 LINE",
"594 800 LINE",
"524 800 LINE",
"524 543 LINE",
"382 543 LINE",
"382 800 LINE",
"312 800 LINE",
"312 543 LINE",
"170 543 LINE",
"170 800 LINE",
"100 800 LINE",
"100 0 LINE"
);
}
);
width = 674;
}
);
unicode = 10608;
},
{
glyphname = u10609;
lastChange = "2017-12-19 23:21:51 +0000";
layers = (
{
layerId = UUID0;
paths = (
{
closed = 1;
nodes = (
"150 0 LINE",
"150 144 LINE SMOOTH",
"150 219 OFFCURVE",
"155 287 OFFCURVE",
"165 350 CURVE",
"372 350 LINE",
"372 270 LINE",
"442 270 LINE",
"442 350 LINE",
"525 350 LINE",
"525 413 LINE",
"442 413 LINE",
"442 736 LINE",
"445 736 OFFCURVE",
"449 737 OFFCURVE",
"453 737 CURVE SMOOTH",
"535 737 LINE",
"535 800 LINE",
"453 800 LINE SMOOTH",
"271 800 OFFCURVE",
"80 613 OFFCURVE",
"80 144 CURVE SMOOTH",
"80 0 LINE"
);
},
{
closed = 1;
nodes = (
"214 572 OFFCURVE",
"283 679 OFFCURVE",
"372 719 CURVE",
"372 413 LINE",
"177 413 LINE"
);
}
);
width = 585;
}
);
unicode = 10609;
},
{
glyphname = u1060A;
lastChange = "2017-12-19 23:21:51 +0000";
layers = (
{
layerId = UUID0;
paths = (
{
closed = 1;
nodes = (
"416 0 LINE",
"416 490 LINE",
"139 587 LINE",
"561 762 LINE",
"536 820 LINE",
"50 618 LINE",
"50 547 LINE",
"346 439 LINE",
"346 0 LINE"
);
}
);
width = 611;
}
);
unicode = 1060A;
},
{
glyphname = u1060B;
lastChange = "2017-12-19 23:21:51 +0000";
layers = (
{
layerId = UUID0;
paths = (
{
closed = 1;
nodes = (
"324 0 LINE",
"324 529 LINE",
"488 529 LINE",
"488 430 LINE",
"558 430 LINE",
"558 530 LINE",
"678 540 OFFCURVE",
"739 624 OFFCURVE",
"739 700 CURVE SMOOTH",
"739 758 OFFCURVE",
"703 815 OFFCURVE",
"624 815 CURVE SMOOTH",
"533 815 OFFCURVE",
"491 742 OFFCURVE",
"488 592 CURVE",
"323 592 LINE",
"315 736 OFFCURVE",
"257 815 OFFCURVE",
"159 815 CURVE SMOOTH",
"75 815 OFFCURVE",
"30 758 OFFCURVE",
"30 689 CURVE SMOOTH",
"30 609 OFFCURVE",
"92 529 OFFCURVE",
"228 529 CURVE SMOOTH",
"254 529 LINE",
"254 0 LINE"
);
},
{
closed = 1;
nodes = (
"669 268 LINE",
"656 325 LINE",
"429 274 LINE",
"443 216 LINE"
);
},
{
closed = 1;
nodes = (
"130 592 OFFCURVE",
"98 648 OFFCURVE",
"98 689 CURVE SMOOTH",
"98 721 OFFCURVE",
"121 750 OFFCURVE",
"160 750 CURVE SMOOTH",
"209 750 OFFCURVE",
"248 711 OFFCURVE",
"253 592 CURVE",
"228 592 LINE SMOOTH"
);
},
{
closed = 1;
nodes = (
"646 365 LINE",
"633 423 LINE",
"407 371 LINE",
"420 314 LINE"
);
},
{
closed = 1;
nodes = (
"560 711 OFFCURVE",
"581 750 OFFCURVE",
"623 750 CURVE SMOOTH",
"659 750 OFFCURVE",
"671 721 OFFCURVE",
"671 694 CURVE SMOOTH",
"671 652 OFFCURVE",
"638 601 OFFCURVE",
"558 593 CURVE"
);
}
);
width = 769;
}
);
unicode = 1060B;
},
{
glyphname = u1060C;
lastChange = "2017-12-19 23:21:51 +0000";
layers = (
{
layerId = UUID0;
paths = (
{
closed = 1;
nodes = (
"337 90 LINE",
"337 496 LINE",
"401 510 OFFCURVE",
"452 559 OFFCURVE",
"464 624 CURVE",
"574 624 LINE",
"574 687 LINE",
"463 687 LINE",
"447 761 OFFCURVE",
"381 815 OFFCURVE",
"302 815 CURVE SMOOTH",
"222 815 OFFCURVE",
"156 761 OFFCURVE",
"140 687 CURVE",
"30 687 LINE",
"30 624 LINE",
"139 624 LINE",
"151 559 OFFCURVE",
"202 510 OFFCURVE",
"267 496 CURVE",
"267 90 LINE"
);
},
{
closed = 1;
nodes = (
"509 0 LINE",
"509 63 LINE",
"95 63 LINE",
"95 0 LINE"
);
},
{
closed = 1;
nodes = (
"247 555 OFFCURVE",
"205 599 OFFCURVE",
"205 654 CURVE SMOOTH",
"205 708 OFFCURVE",
"247 753 OFFCURVE",
"302 753 CURVE SMOOTH",
"355 753 OFFCURVE",
"399 708 OFFCURVE",
"399 654 CURVE SMOOTH",
"399 599 OFFCURVE",
"355 555 OFFCURVE",
"302 555 CURVE SMOOTH"
);
}
);
width = 604;
}
);
unicode = 1060C;
},
{
glyphname = u1060D;
lastChange = "2017-12-19 23:21:51 +0000";
layers = (
{
layerId = UUID0;
paths = (
{
closed = 1;
nodes = (
"262 0 LINE",
"262 439 LINE",
"404 439 LINE",
"404 502 LINE",
"282 502 LINE",
"346 523 OFFCURVE",
"392 582 OFFCURVE",
"392 653 CURVE SMOOTH",
"392 744 OFFCURVE",
"318 815 OFFCURVE",
"227 815 CURVE SMOOTH",
"136 815 OFFCURVE",
"62 744 OFFCURVE",
"62 653 CURVE SMOOTH",
"62 582 OFFCURVE",
"108 523 OFFCURVE",
"172 502 CURVE",
"50 502 LINE",
"50 439 LINE",
"192 439 LINE",
"192 0 LINE"
);
},
{
closed = 1;
nodes = (
"172 555 OFFCURVE",
"130 599 OFFCURVE",
"130 654 CURVE SMOOTH",
"130 708 OFFCURVE",
"172 753 OFFCURVE",
"227 753 CURVE SMOOTH",
"280 753 OFFCURVE",
"324 708 OFFCURVE",
"324 654 CURVE SMOOTH",
"324 599 OFFCURVE",
"280 555 OFFCURVE",
"227 555 CURVE SMOOTH"
);
}
);
width = 454;
}
);
unicode = 1060D;
},
{
glyphname = u1060E;
lastChange = "2017-12-19 23:27:40 +0000";
layers = (
{
layerId = UUID0;
paths = (
{
closed = 1;
nodes = (
"418 374 LINE",
"418 437 LINE",
"158 437 LINE",
"158 374 LINE"
);
},
{
closed = 1;
nodes = (
"323 0 LINE",
"323 712 LINE",
"478 532 LINE",
"526 575 LINE",
"323 810 LINE",
"253 810 LINE",
"50 575 LINE",
"98 532 LINE",
"253 712 LINE",
"253 0 LINE"
);
}
);
width = 576;
}
);
unicode = 1060E;
},
{
glyphname = u1060F;
lastChange = "2017-12-19 23:21:51 +0000";
layers = (
{
layerId = UUID0;
paths = (
{
closed = 1;
nodes = (
"546 0 LINE",
"546 380 LINE",
"720 380 LINE",
"720 443 LINE",
"546 443 LINE",
"546 800 LINE",
"307 800 LINE SMOOTH",
"106 800 OFFCURVE",
"50 673 OFFCURVE",
"50 585 CURVE SMOOTH",
"50 497 OFFCURVE",
"105 380 OFFCURVE",
"307 380 CURVE SMOOTH",
"476 380 LINE",
"476 0 LINE"
);
},
{
closed = 1;
nodes = (
"218 443 OFFCURVE",
"120 480 OFFCURVE",
"120 585 CURVE SMOOTH",
"120 689 OFFCURVE",
"218 737 OFFCURVE",
"296 737 CURVE SMOOTH",
"476 737 LINE",
"476 443 LINE",
"296 443 LINE SMOOTH"
);
}
);
width = 770;
}
);
unicode = 1060F;
},
{
glyphname = u10610;
lastChange = "2017-12-19 23:21:51 +0000";
layers = (
{
layerId = UUID0;
paths = (
{
closed = 1;
nodes = (
"394 380 LINE",
"476 380 LINE",
"476 0 LINE",
"546 0 LINE",
"546 380 LINE",
"625 380 LINE",
"772 -10 LINE",
"840 19 LINE",
"538 800 LINE",
"307 800 LINE SMOOTH",
"106 800 OFFCURVE",
"50 673 OFFCURVE",
"50 585 CURVE SMOOTH",
"50 497 OFFCURVE",
"105 380 OFFCURVE",
"307 380 CURVE SMOOTH",
"319 380 LINE",
"180 19 LINE",
"248 -10 LINE"
);
},
{
closed = 1;
nodes = (
"218 443 OFFCURVE",
"120 480 OFFCURVE",
"120 585 CURVE SMOOTH",
"120 689 OFFCURVE",
"218 737 OFFCURVE",
"296 737 CURVE SMOOTH",
"457 737 LINE",
"344 443 LINE",
"296 443 LINE SMOOTH"
);
},
{
closed = 1;
nodes = (
"510 687 LINE",
"601 443 LINE",
"418 443 LINE"
);
}
);
width = 860;
}
);
unicode = 10610;
},
{
glyphname = u10611;
lastChange = "2017-12-19 23:27:40 +0000";
layers = (
{
layerId = UUID0;
paths = (
{
closed = 1;
nodes = (
"546 0 LINE",
"546 380 LINE",
"720 380 LINE",
"720 443 LINE",
"546 443 LINE",
"546 800 LINE",
"307 800 LINE SMOOTH",
"106 800 OFFCURVE",
"50 673 OFFCURVE",
"50 585 CURVE SMOOTH",
"50 497 OFFCURVE",
"105 380 OFFCURVE",
"307 380 CURVE SMOOTH",
"476 380 LINE",
"476 0 LINE"
);
},
{
closed = 1;
nodes = (
"218 443 OFFCURVE",
"120 480 OFFCURVE",
"120 585 CURVE SMOOTH",
"120 689 OFFCURVE",
"218 737 OFFCURVE",
"296 737 CURVE SMOOTH",
"476 737 LINE",
"476 443 LINE",
"296 443 LINE SMOOTH"
);
},
{
closed = 1;
nodes = (
"720 244 LINE",
"720 307 LINE",
"300 307 LINE",
"300 244 LINE"
);
},
{
closed = 1;
nodes = (
"720 94 LINE",
"720 157 LINE",
"300 157 LINE",
"300 94 LINE"
);
}
);
width = 800;
}
);
unicode = 10611;
},
{
glyphname = u10612;
lastChange = "2017-12-19 23:21:51 +0000";
layers = (
{
layerId = UUID0;
paths = (
{
closed = 1;
nodes = (
"730 0 LINE",
"730 712 LINE",
"885 532 LINE",
"933 575 LINE",
"730 810 LINE",
"660 810 LINE",
"503 629 LINE",
"340 810 LINE",
"270 810 LINE",
"20 523 LINE",
"71 480 LINE",
"305 745 LINE",
"479 545 LINE",
"524 545 LINE",
"660 711 LINE",
"660 0 LINE"
);
},
{
closed = 1;
nodes = (
"634 530 LINE",
"580 561 LINE",
"461 364 LINE",
"516 335 LINE"
);
}
);
width = 953;
}
);
unicode = 10612;
},
{
glyphname = u10613;
lastChange = "2017-12-19 23:21:51 +0000";
layers = (
{
layerId = UUID0;
paths = (
{
closed = 1;
nodes = (
"730 0 LINE",
"730 712 LINE",
"885 532 LINE",
"933 575 LINE",
"730 810 LINE",
"660 810 LINE",
"503 629 LINE",
"340 810 LINE",
"270 810 LINE",
"20 523 LINE",
"71 480 LINE",
"305 745 LINE",
"479 545 LINE",
"524 545 LINE",
"660 711 LINE",
"660 0 LINE"
);
},
{
closed = 1;
nodes = (
"634 530 LINE",
"580 561 LINE",
"461 364 LINE",
"516 335 LINE"
);
},
{
closed = 1;
nodes = (
"929 364 LINE",
"810 561 LINE",
"756 530 LINE",
"874 335 LINE"
);
}
);
width = 953;
}
);
unicode = 10613;
},
{
glyphname = u10614;
lastChange = "2017-12-19 23:27:40 +0000";
layers = (
{
layerId = UUID0;
paths = (
{
closed = 1;
nodes = (
"730 0 LINE",
"730 712 LINE",
"885 532 LINE",
"933 575 LINE",
"730 810 LINE",
"660 810 LINE",
"503 629 LINE",
"340 810 LINE",
"270 810 LINE",
"20 523 LINE",
"71 480 LINE",
"305 745 LINE",
"479 545 LINE",
"524 545 LINE",
"660 711 LINE",
"660 0 LINE"
);
},
{
closed = 1;
nodes = (
"634 530 LINE",
"580 561 LINE",
"461 364 LINE",
"516 335 LINE"
);
},
{
closed = 1;
nodes = (
"860 254 LINE",
"860 317 LINE",
"530 317 LINE",
"530 254 LINE"
);
},
{
closed = 1;
nodes = (
"860 104 LINE",
"860 167 LINE",
"530 167 LINE",
"530 104 LINE"
);
}
);
width = 953;
}
);
unicode = 10614;
},
{
glyphname = u10615;
lastChange = "2017-12-19 23:21:51 +0000";
layers = (
{
layerId = UUID0;
paths = (
{
closed = 1;
nodes = (
"344 0 LINE",
"344 524 LINE",
"633 524 LINE",
"633 587 LINE",
"343 587 LINE",
"335 731 OFFCURVE",
"277 810 OFFCURVE",
"178 810 CURVE SMOOTH",
"94 810 OFFCURVE",
"50 753 OFFCURVE",
"50 685 CURVE SMOOTH",
"50 604 OFFCURVE",
"112 524 OFFCURVE",
"248 524 CURVE SMOOTH",
"274 524 LINE",
"274 0 LINE"
);
},
{
closed = 1;
nodes = (
"150 587 OFFCURVE",
"118 643 OFFCURVE",
"118 686 CURVE SMOOTH",
"118 716 OFFCURVE",
"139 745 OFFCURVE",
"178 745 CURVE SMOOTH",
"229 745 OFFCURVE",
"268 706 OFFCURVE",
"273 587 CURVE",
"248 587 LINE SMOOTH"
);
},
{
closed = 1;
nodes = (
"535 635 LINE",
"429 826 LINE",
"372 795 LINE",
"477 604 LINE"
);
}
);
width = 683;
}
);
unicode = 10615;
},
{
glyphname = u10616;
lastChange = "2017-12-19 23:27:40 +0000";
layers = (
{
layerId = UUID0;
paths = (
{
closed = 1;
nodes = (
"344 0 LINE",
"344 524 LINE",
"633 524 LINE",
"633 587 LINE",
"343 587 LINE",
"335 731 OFFCURVE",
"277 810 OFFCURVE",
"178 810 CURVE SMOOTH",
"94 810 OFFCURVE",
"50 753 OFFCURVE",
"50 685 CURVE SMOOTH",
"50 604 OFFCURVE",
"112 524 OFFCURVE",
"248 524 CURVE SMOOTH",
"274 524 LINE",
"274 0 LINE"
);
},
{
closed = 1;
nodes = (
"150 587 OFFCURVE",
"118 643 OFFCURVE",
"118 686 CURVE SMOOTH",
"118 716 OFFCURVE",
"139 745 OFFCURVE",
"178 745 CURVE SMOOTH",
"229 745 OFFCURVE",
"268 706 OFFCURVE",
"273 587 CURVE",
"248 587 LINE SMOOTH"
);
},
{
closed = 1;
nodes = (
"535 635 LINE",
"429 826 LINE",
"372 795 LINE",
"477 604 LINE"
);
},
{
closed = 1;
nodes = (
"523 314 LINE",
"523 377 LINE",
"103 377 LINE",
"103 314 LINE"
);
},
{
closed = 1;
nodes = (
"523 164 LINE",
"523 227 LINE",
"103 227 LINE",
"103 164 LINE"
);
}
);
width = 683;
}
);
unicode = 10616;
},
{
glyphname = u10617;
lastChange = "2017-12-19 23:27:40 +0000";
layers = (
{
layerId = UUID0;
paths = (
{
closed = 1;
nodes = (
"442 379 LINE",
"442 442 LINE",
"112 442 LINE",
"112 379 LINE"
);
},
{
closed = 1;
nodes = (
"504 0 LINE",
"504 63 LINE",
"312 63 LINE",
"312 737 LINE",
"504 737 LINE",
"504 800 LINE",
"50 800 LINE",
"50 737 LINE",
"242 737 LINE",
"242 63 LINE",
"50 63 LINE",
"50 0 LINE"
);
}
);
width = 554;
}
);
unicode = 10617;
},
{
glyphname = u10618;
lastChange = "2017-12-19 23:21:51 +0000";
layers = (
{
layerId = UUID0;
paths = (
{
closed = 1;
nodes = (
"398 0 LINE",
"398 500 LINE",
"427 477 OFFCURVE",
"467 465 OFFCURVE",
"513 465 CURVE SMOOTH",
"628 465 OFFCURVE",
"696 547 OFFCURVE",
"696 646 CURVE SMOOTH",
"696 721 OFFCURVE",
"655 790 OFFCURVE",
"591 820 CURVE",
"547 774 LINE",
"599 748 OFFCURVE",
"626 701 OFFCURVE",
"626 647 CURVE SMOOTH",
"626 584 OFFCURVE",
"588 529 OFFCURVE",
"513 529 CURVE SMOOTH",
"439 529 OFFCURVE",
"398 572 OFFCURVE",
"398 625 CURVE SMOOTH",
"398 637 LINE",
"328 637 LINE",
"328 625 LINE SMOOTH",
"328 572 OFFCURVE",
"287 529 OFFCURVE",
"213 529 CURVE SMOOTH",
"138 529 OFFCURVE",
"100 584 OFFCURVE",
"100 647 CURVE SMOOTH",
"100 701 OFFCURVE",
"127 748 OFFCURVE",
"179 774 CURVE",
"135 820 LINE",
"71 790 OFFCURVE",
"30 721 OFFCURVE",
"30 646 CURVE SMOOTH",
"30 547 OFFCURVE",
"98 465 OFFCURVE",
"213 465 CURVE SMOOTH",
"259 465 OFFCURVE",
"298 477 OFFCURVE",
"328 500 CURVE",
"328 0 LINE"
);
}
);
width = 726;
}
);
unicode = 10618;
},
{
glyphname = u10619;
lastChange = "2017-12-19 23:21:51 +0000";
layers = (
{
layerId = UUID0;
paths = (
{
closed = 1;
nodes = (
"400 0 LINE",
"400 450 LINE",
"590 462 OFFCURVE",
"680 581 OFFCURVE",
"680 752 CURVE SMOOTH",
"680 800 LINE",
"610 800 LINE",
"610 756 LINE SMOOTH",
"610 631 OFFCURVE",
"556 528 OFFCURVE",
"400 515 CURVE",
"400 800 LINE",
"330 800 LINE",
"330 515 LINE",
"173 528 OFFCURVE",
"120 631 OFFCURVE",
"120 756 CURVE SMOOTH",
"120 800 LINE",
"50 800 LINE",
"50 752 LINE SMOOTH",
"50 581 OFFCURVE",
"139 462 OFFCURVE",
"330 450 CURVE",
"330 0 LINE"
);
}
);
width = 730;
}
);
unicode = 10619;
},
{
glyphname = u1061A;
lastChange = "2017-12-19 23:21:51 +0000";
layers = (
{
layerId = UUID0;
paths = (
{
closed = 1;
nodes = (
"368 0 LINE",
"368 270 LINE",
"550 270 LINE",
"550 333 LINE",
"282 333 LINE SMOOTH",
"204 333 OFFCURVE",
"156 340 OFFCURVE",
"156 385 CURVE SMOOTH",
"156 439 OFFCURVE",
"204 447 OFFCURVE",
"282 447 CURVE SMOOTH",
"550 447 LINE",
"550 460 LINE",
"616 800 LINE",
"546 800 LINE",
"489 510 LINE",
"368 510 LINE",
"368 800 LINE",
"298 800 LINE",
"298 510 LINE",
"283 510 LINE SMOOTH",
"241 510 OFFCURVE",
"207 506 OFFCURVE",
"178 498 CURVE",
"120 800 LINE",
"50 800 LINE",
"115 464 LINE",
"95 445 OFFCURVE",
"86 418 OFFCURVE",
"86 385 CURVE SMOOTH",
"86 297 OFFCURVE",
"151 270 OFFCURVE",
"283 270 CURVE SMOOTH",
"298 270 LINE",
"298 0 LINE"
);
}
);
width = 666;
}
);
unicode = 1061A;
},
{
glyphname = u1061B;
lastChange = "2017-12-19 23:21:51 +0000";
layers = (
{
layerId = UUID0;
paths = (
{
closed = 1;
nodes = (
"368 0 LINE",
"368 270 LINE",
"685 270 LINE",
"685 372 LINE",
"795 372 LINE",
"795 430 LINE",
"740 430 LINE",
"740 582 LINE",
"795 582 LINE",
"795 640 LINE",
"620 640 LINE",
"620 582 LINE",
"675 582 LINE",
"675 430 LINE",
"620 430 LINE",
"620 333 LINE",
"282 333 LINE SMOOTH",
"204 333 OFFCURVE",
"156 340 OFFCURVE",
"156 385 CURVE SMOOTH",
"156 439 OFFCURVE",
"204 447 OFFCURVE",
"282 447 CURVE SMOOTH",
"550 447 LINE",
"550 460 LINE",
"616 800 LINE",
"546 800 LINE",
"489 510 LINE",
"427 510 LINE",
"466 800 LINE",
"396 800 LINE",
"357 510 LINE",
"309 510 LINE",
"270 800 LINE",
"200 800 LINE",
"239 508 LINE",
"216 506 OFFCURVE",
"196 503 OFFCURVE",
"178 498 CURVE",
"120 800 LINE",
"50 800 LINE",
"115 464 LINE",
"95 445 OFFCURVE",
"86 418 OFFCURVE",
"86 385 CURVE SMOOTH",
"86 297 OFFCURVE",
"151 270 OFFCURVE",
"283 270 CURVE SMOOTH",
"298 270 LINE",
"298 0 LINE"
);
}
);
width = 845;
}
);
unicode = 1061B;
},
{
glyphname = u1061C;
lastChange = "2017-12-19 23:21:51 +0000";
layers = (
{
layerId = UUID0;
paths = (
{
closed = 1;
nodes = (
"650 0 LINE",
"650 63 LINE",
"530 63 LINE",
"571 263 LINE",
"635 251 LINE",
"647 312 LINE",
"584 324 LINE",
"680 783 LINE",
"613 800 LINE",
"518 337 LINE",
"451 350 LINE",
"439 289 LINE",
"505 276 LINE",
"462 63 LINE",
"400 63 LINE",
"400 175 LINE",
"465 175 LINE",
"465 238 LINE",
"400 238 LINE",
"400 800 LINE",
"330 800 LINE",
"330 238 LINE",
"265 238 LINE",
"265 175 LINE",
"330 175 LINE",
"330 63 LINE",
"267 63 LINE",
"224 276 LINE",
"291 289 LINE",
"279 350 LINE",
"211 337 LINE",
"117 800 LINE",
"50 783 LINE",
"145 324 LINE",
"83 312 LINE",
"95 251 LINE",
"158 263 LINE",
"200 63 LINE",
"80 63 LINE",
"80 0 LINE"
);
}
);
width = 730;
}
);
unicode = 1061C;
},
{
glyphname = u1061D;
lastChange = "2017-12-19 23:21:51 +0000";
layers = (
{
layerId = UUID0;
paths = (
{
closed = 1;
nodes = (
"432 0 LINE",
"432 697 LINE",
"529 697 LINE",
"492 656 LINE",
"540 614 LINE",
"599 680 LINE",
"659 614 LINE",
"707 656 LINE",
"670 697 LINE",
"764 697 LINE",
"764 760 LINE",
"672 760 LINE",
"707 799 LINE",
"661 843 LINE",
"599 775 LINE",
"538 843 LINE",
"492 799 LINE",
"527 760 LINE",
"265 760 LINE",
"300 799 LINE",
"254 843 LINE",
"192 775 LINE",
"131 843 LINE",
"85 799 LINE",
"120 760 LINE",
"30 760 LINE",
"30 697 LINE",
"122 697 LINE",
"85 656 LINE",
"133 614 LINE",
"192 680 LINE",
"252 614 LINE",
"300 656 LINE",
"263 697 LINE",
"362 697 LINE",
"362 0 LINE"
);
}
);
width = 794;
}
);
unicode = 1061D;
},
{
glyphname = u1061E;
lastChange = "2017-12-19 23:21:51 +0000";
layers = (
{
layerId = UUID0;
paths = (
{
closed = 1;
nodes = (
"373 0 LINE",
"373 399 LINE",
"654 784 LINE",
"595 820 LINE",
"337 464 LINE",
"79 820 LINE",
"20 784 LINE",
"303 396 LINE",
"303 0 LINE"
);
}
);
width = 674;
}
);
unicode = 1061E;
},
{
glyphname = u1061F;
lastChange = "2017-12-19 23:21:51 +0000";
layers = (
{
layerId = UUID0;
paths = (
{
closed = 1;
nodes = (
"524 -15 OFFCURVE",
"578 -1 OFFCURVE",
"626 24 CURVE",
"595 83 LINE",
"557 62 OFFCURVE",
"513 50 OFFCURVE",
"444 50 CURVE SMOOTH",
"269 50 OFFCURVE",
"130 180 OFFCURVE",
"130 402 CURVE SMOOTH",
"130 624 OFFCURVE",
"269 750 OFFCURVE",
"444 750 CURVE SMOOTH",
"513 750 OFFCURVE",
"557 738 OFFCURVE",
"595 717 CURVE",
"626 776 LINE",
"578 801 OFFCURVE",
"524 815 OFFCURVE",
"444 815 CURVE SMOOTH",
"227 815 OFFCURVE",
"60 656 OFFCURVE",
"60 403 CURVE SMOOTH",
"60 148 OFFCURVE",
"227 -15 OFFCURVE",
"444 -15 CURVE SMOOTH"
);
}
);
width = 706;
}
);
unicode = 1061F;
},
{
glyphname = u10620;
lastChange = "2017-12-19 23:21:51 +0000";
layers = (
{
layerId = UUID0;
paths = (
{
closed = 1;
nodes = (
"350 687 LINE",
"612 -10 LINE",
"680 19 LINE",
"378 800 LINE",
"322 800 LINE",
"20 19 LINE",
"88 -10 LINE"
);
}
);
width = 700;
}
);
unicode = 10620;
},
{
glyphname = u10621;
lastChange = "2017-12-19 23:27:40 +0000";
layers = (
{
layerId = UUID0;
paths = (
{
closed = 1;
nodes = (
"560 513 LINE",
"560 576 LINE",
"140 576 LINE",
"140 513 LINE"
);
},
{
closed = 1;
nodes = (
"300 264 LINE",
"300 327 LINE",
"40 327 LINE",
"40 264 LINE"
);
},
{
closed = 1;
nodes = (
"660 264 LINE",
"660 327 LINE",
"400 327 LINE",
"400 264 LINE"
);
},
{
closed = 1;
nodes = (
"350 687 LINE",
"612 -10 LINE",
"680 19 LINE",
"378 800 LINE",
"322 800 LINE",
"20 19 LINE",
"88 -10 LINE"
);
}
);
width = 700;
}
);
unicode = 10621;
},
{
glyphname = u10622;
lastChange = "2017-12-19 23:21:51 +0000";
layers = (
{
layerId = UUID0;
paths = (
{
closed = 1;
nodes = (
"605 0 LINE",
"605 64 LINE",
"583 249 OFFCURVE",
"516 457 OFFCURVE",
"366 567 CURVE",
"555 567 LINE",
"555 630 LINE",
"362 630 LINE",
"362 800 LINE",
"292 800 LINE",
"292 630 LINE",
"100 630 LINE",
"100 567 LINE",
"288 567 LINE",
"138 457 OFFCURVE",
"71 249 OFFCURVE",
"50 64 CURVE",
"50 0 LINE"
);
},
{
closed = 1;
nodes = (
"136 251 OFFCURVE",
"203 414 OFFCURVE",
"292 486 CURVE",
"292 63 LINE",
"119 63 LINE"
);
},
{
closed = 1;
nodes = (
"362 486 LINE",
"451 414 OFFCURVE",
"517 251 OFFCURVE",
"536 63 CURVE",
"362 63 LINE"
);
}
);
width = 655;
}
);
unicode = 10622;
},
{
glyphname = u10623;
lastChange = "2017-12-19 23:21:51 +0000";
layers = (
{
layerId = UUID0;
paths = (
{
closed = 1;
nodes = (
"520 0 LINE",
"520 800 LINE",
"468 800 LINE SMOOTH",
"219 800 OFFCURVE",
"50 468 OFFCURVE",
"50 104 CURVE SMOOTH",
"50 0 LINE"
);
},
{
closed = 1;
nodes = (
"120 107 LINE SMOOTH",
"120 175 OFFCURVE",
"127 252 OFFCURVE",
"144 329 CURVE",
"264 329 LINE",
"264 63 LINE",
"120 63 LINE"
);
},
{
closed = 1;
nodes = (
"334 329 LINE",
"450 329 LINE",
"450 63 LINE",
"334 63 LINE"
);
},
{
closed = 1;
nodes = (
"183 476 OFFCURVE",
"217 556 OFFCURVE",
"264 617 CURVE",
"264 392 LINE",
"159 392 LINE"
);
},
{
closed = 1;
nodes = (
"334 688 LINE",
"368 713 OFFCURVE",
"407 730 OFFCURVE",
"450 735 CURVE",
"450 392 LINE",
"334 392 LINE"
);
}
);
width = 620;
}
);
unicode = 10623;
},
{
glyphname = u10624;
lastChange = "2017-12-19 23:21:51 +0000";
layers = (
{
layerId = UUID0;
paths = (
{
closed = 1;
nodes = (
"298 0 LINE",
"298 377 LINE",
"466 377 LINE SMOOTH",
"489 377 OFFCURVE",
"496 418 OFFCURVE",
"496 434 CURVE SMOOTH",
"496 499 OFFCURVE",
"469 560 OFFCURVE",
"393 622 CURVE",
"352 576 LINE",
"402 531 OFFCURVE",
"429 483 OFFCURVE",
"429 449 CURVE SMOOTH",
"429 440 LINE",
"298 440 LINE",
"298 800 LINE",
"228 800 LINE",
"228 440 LINE",
"97 440 LINE",
"97 449 LINE SMOOTH",
"97 483 OFFCURVE",
"124 531 OFFCURVE",
"174 576 CURVE",
"133 622 LINE",
"57 560 OFFCURVE",
"30 499 OFFCURVE",
"30 434 CURVE SMOOTH",
"30 418 OFFCURVE",
"37 377 OFFCURVE",
"60 377 CURVE SMOOTH",
"228 377 LINE",
"228 0 LINE"
);
}
);
width = 526;
}
);
unicode = 10624;
},
{
glyphname = u10625;
lastChange = "2017-12-19 23:21:51 +0000";
layers = (
{
layerId = UUID0;
paths = (
{
closed = 1;
nodes = (
"380 0 LINE",
"380 287 LINE",
"571 30 LINE",
"627 71 LINE",
"400 377 LINE",
"638 377 LINE",
"638 440 LINE",
"421 440 LINE",
"633 726 LINE",
"577 766 LINE",
"380 500 LINE",
"380 800 LINE",
"310 800 LINE",
"310 498 LINE",
"111 766 LINE",
"55 726 LINE",
"267 440 LINE",
"50 440 LINE",
"50 377 LINE",
"288 377 LINE",
"61 71 LINE",
"117 30 LINE",
"310 290 LINE",
"310 0 LINE"
);
}
);
width = 688;
}
);
unicode = 10625;
},
{
glyphname = u10626;
lastChange = "2017-12-19 23:21:51 +0000";
layers = (
{
layerId = UUID0;
paths = (
{
closed = 1;
nodes = (
"177 0 LINE",
"177 372 LINE",
"349 372 LINE",
"349 0 LINE",
"419 0 LINE",
"419 372 LINE",
"591 372 LINE",
"591 0 LINE",
"661 0 LINE",
"661 372 LINE",
"718 372 LINE",
"718 441 LINE",
"599 579 LINE",
"683 662 LINE",
"635 708 LINE",
"556 629 LINE",
"399 810 LINE",
"369 810 LINE",
"212 629 LINE",
"133 708 LINE",
"85 662 LINE",
"169 579 LINE",
"50 441 LINE",
"50 372 LINE",
"107 372 LINE",
"107 0 LINE"
);
},
{
closed = 1;
nodes = (
"384 734 LINE",
"643 435 LINE",
"125 435 LINE"
);
}
);
width = 768;
}
);
unicode = 10626;
},
{
glyphname = u10627;
lastChange = "2017-12-19 23:21:51 +0000";
layers = (
{
layerId = UUID0;
paths = (
{
closed = 1;
nodes = (
"191 0 LINE",
"191 63 LINE",
"108 63 LINE",
"271 394 LINE",
"465 0 LINE",
"607 0 LINE",
"607 63 LINE",
"512 63 LINE",
"310 472 LINE",
"464 784 LINE",
"402 810 LINE",
"272 549 LINE",
"143 810 LINE",
"81 784 LINE",
"233 472 LINE",
"30 63 LINE",
"30 0 LINE"
);
}
);
width = 627;
}
);
unicode = 10627;
},
{
glyphname = u10628;
lastChange = "2017-12-19 23:21:51 +0000";
layers = (
{
layerId = UUID0;
paths = (
{
closed = 1;
nodes = (
"200 223 LINE",
"218 217 OFFCURVE",
"238 214 OFFCURVE",
"259 214 CURVE SMOOTH",
"279 214 OFFCURVE",
"299 217 OFFCURVE",
"318 222 CURVE",
"441 -10 LINE",
"498 22 LINE",
"376 251 LINE",
"422 285 OFFCURVE",
"453 339 OFFCURVE",
"453 402 CURVE SMOOTH",
"453 465 OFFCURVE",
"422 519 OFFCURVE",
"375 553 CURVE",
"498 787 LINE",
"441 817 LINE",
"316 582 LINE",
"298 587 OFFCURVE",
"279 590 OFFCURVE",
"259 590 CURVE SMOOTH",
"239 590 OFFCURVE",
"219 587 OFFCURVE",
"201 581 CURVE",
"77 817 LINE",
"20 787 LINE",
"143 553 LINE",
"96 519 OFFCURVE",
"66 464 OFFCURVE",
"66 402 CURVE SMOOTH",
"66 340 OFFCURVE",
"96 286 OFFCURVE",
"142 252 CURVE",
"20 22 LINE",
"77 -10 LINE"
);
},
{
closed = 1;
nodes = (
"248 272 OFFCURVE",
"238 273 OFFCURVE",
"228 275 CURVE",
"259 334 LINE",
"290 276 LINE",
"280 273 OFFCURVE",
"269 272 OFFCURVE",
"259 272 CURVE SMOOTH"
);
},
{
closed = 1;
nodes = (
"145 330 OFFCURVE",
"130 364 OFFCURVE",
"130 402 CURVE SMOOTH",
"130 440 OFFCURVE",
"146 475 OFFCURVE",
"172 499 CURVE",
"222 404 LINE",
"170 306 LINE"
);
},
{
closed = 1;
nodes = (
"295 404 LINE",
"346 499 LINE",
"372 475 OFFCURVE",
"389 440 OFFCURVE",
"389 402 CURVE SMOOTH",
"389 364 OFFCURVE",
"372 330 OFFCURVE",
"347 306 CURVE"
);
},
{
closed = 1;
nodes = (
"229 529 LINE",
"238 531 OFFCURVE",
"248 533 OFFCURVE",
"259 533 CURVE SMOOTH",
"269 533 OFFCURVE",
"279 532 OFFCURVE",
"289 529 CURVE",
"259 473 LINE"
);
}
);
width = 518;
}
);
unicode = 10628;
},
{
glyphname = u10629;
lastChange = "2017-12-19 23:21:51 +0000";
layers = (
{
layerId = UUID0;
paths = (
{
closed = 1;
nodes = (
"400 0 LINE",
"400 57 LINE SMOOTH",
"400 166 OFFCURVE",
"448 264 OFFCURVE",
"520 345 CURVE",
"592 264 OFFCURVE",
"640 166 OFFCURVE",
"640 57 CURVE SMOOTH",
"640 0 LINE",
"710 0 LINE",
"710 55 LINE SMOOTH",
"710 196 OFFCURVE",
"654 305 OFFCURVE",
"569 395 CURVE",
"598 421 OFFCURVE",
"629 445 OFFCURVE",
"662 467 CURVE",
"960 467 LINE",
"960 530 LINE",
"630 530 LINE",
"591 503 OFFCURVE",
"554 474 OFFCURVE",
"520 444 CURVE",
"486 474 OFFCURVE",
"449 503 OFFCURVE",
"410 530 CURVE",
"80 530 LINE",
"80 467 LINE",
"378 467 LINE",
"410 445 OFFCURVE",
"441 421 OFFCURVE",
"470 395 CURVE",
"385 305 OFFCURVE",
"330 196 OFFCURVE",
"330 55 CURVE SMOOTH",
"330 0 LINE"
);
},
{
closed = 1;
nodes = (
"155 583 LINE",
"155 800 LINE",
"90 800 LINE",
"90 583 LINE"
);
},
{
closed = 1;
nodes = (
"257 583 LINE",
"257 800 LINE",
"192 800 LINE",
"192 583 LINE"
);
},
{
closed = 1;
nodes = (
"359 583 LINE",
"359 800 LINE",
"294 800 LINE",
"294 583 LINE"
);
},
{
closed = 1;
nodes = (
"461 583 LINE",
"461 800 LINE",
"396 800 LINE",
"396 583 LINE"
);
},
{
closed = 1;
nodes = (
"644 583 LINE",
"644 800 LINE",
"579 800 LINE",
"579 583 LINE"
);
},
{
closed = 1;
nodes = (
"746 583 LINE",
"746 800 LINE",
"681 800 LINE",
"681 583 LINE"
);
},
{
closed = 1;
nodes = (
"848 583 LINE",
"848 800 LINE",
"783 800 LINE",
"783 583 LINE"
);
},
{
closed = 1;
nodes = (
"950 583 LINE",
"950 800 LINE",
"885 800 LINE",
"885 583 LINE"
);
}
);
width = 1040;
}
);
unicode = 10629;
},
{
glyphname = u1062A;
lastChange = "2017-12-19 23:21:51 +0000";
layers = (
{
layerId = UUID0;
paths = (
{
closed = 1;
nodes = (
"662 0 LINE",
"662 63 LINE",
"610 63 LINE",
"610 500 LINE",
"662 500 LINE",
"662 563 LINE",
"610 563 LINE",
"610 710 LINE",
"540 710 LINE",
"540 563 LINE",
"490 563 LINE",
"490 500 LINE",
"540 500 LINE",
"540 63 LINE",
"490 63 LINE",
"490 0 LINE"
);
},
{
closed = 1;
nodes = (
"242 0 LINE",
"242 63 LINE",
"190 63 LINE",
"190 500 LINE",
"242 500 LINE",
"242 563 LINE",
"190 563 LINE",
"190 710 LINE",
"120 710 LINE",
"120 563 LINE",
"70 563 LINE",
"70 500 LINE",
"120 500 LINE",
"120 63 LINE",
"70 63 LINE",
"70 0 LINE"
);
},
{
closed = 1;
nodes = (
"452 0 LINE",
"452 63 LINE",
"400 63 LINE",
"400 500 LINE",
"452 500 LINE",
"452 563 LINE",
"400 563 LINE",
"400 710 LINE",
"330 710 LINE",
"330 563 LINE",
"280 563 LINE",
"280 500 LINE",
"330 500 LINE",
"330 63 LINE",
"280 63 LINE",
"280 0 LINE"
);
},
{
closed = 1;
nodes = (
"103 799 OFFCURVE",
"141 817 OFFCURVE",
"191 817 CURVE SMOOTH",
"244 817 OFFCURVE",
"305 763 OFFCURVE",
"356 763 CURVE SMOOTH",
"376 763 LINE SMOOTH",
"427 763 OFFCURVE",
"488 817 OFFCURVE",
"541 817 CURVE SMOOTH",
"591 817 OFFCURVE",
"629 799 OFFCURVE",
"687 738 CURVE",
"732 783 LINE",
"698 820 OFFCURVE",
"629 883 OFFCURVE",
"541 883 CURVE SMOOTH",
"471 883 OFFCURVE",
"413 827 OFFCURVE",
"373 827 CURVE SMOOTH",
"359 827 LINE SMOOTH",
"319 827 OFFCURVE",
"261 883 OFFCURVE",
"191 883 CURVE SMOOTH",
"103 883 OFFCURVE",
"34 820 OFFCURVE",
"0 783 CURVE",
"45 738 LINE"
);
}
);
width = 732;
}
);
unicode = 1062A;
},
{
glyphname = u1062B;
lastChange = "2017-12-19 23:21:51 +0000";
layers = (
{
layerId = UUID0;
paths = (
{
closed = 1;
nodes = (
"222 0 LINE",
"222 63 LINE",
"170 63 LINE",
"170 288 LINE SMOOTH",
"170 337 OFFCURVE",
"187 359 OFFCURVE",
"210 375 CURVE SMOOTH",
"291 429 LINE",
"312 63 LINE",
"260 63 LINE",
"260 0 LINE",
"432 0 LINE",
"432 63 LINE",
"377 63 LINE",
"355 469 LINE",
"436 520 LINE",
"514 63 LINE",
"470 63 LINE",
"470 0 LINE",
"642 0 LINE",
"642 63 LINE",
"579 63 LINE",
"494 559 LINE",
"550 605 OFFCURVE",
"561 647 OFFCURVE",
"561 690 CURVE SMOOTH",
"561 768 OFFCURVE",
"498 812 OFFCURVE",
"402 812 CURVE SMOOTH",
"332 812 OFFCURVE",
"289 789 OFFCURVE",
"253 760 CURVE",
"288 708 LINE",
"310 727 OFFCURVE",
"348 747 OFFCURVE",
"402 747 CURVE SMOOTH",
"464 747 OFFCURVE",
"491 722 OFFCURVE",
"491 684 CURVE SMOOTH",
"491 628 OFFCURVE",
"456 605 OFFCURVE",
"358 543 CURVE SMOOTH",
"167 421 LINE SMOOTH",
"118 390 OFFCURVE",
"100 351 OFFCURVE",
"100 288 CURVE SMOOTH",
"100 63 LINE",
"50 63 LINE",
"50 0 LINE"
);
}
);
width = 692;
}
);
unicode = 1062B;
},
{
glyphname = u1062C;
lastChange = "2017-12-19 23:21:51 +0000";
layers = (
{
layerId = UUID0;
paths = (
{
closed = 1;
nodes = (
"589 364 LINE",
"723 -10 LINE",
"787 14 LINE",
"626 446 LINE",
"830 446 LINE",
"830 509 LINE",
"625 509 LINE",
"625 800 LINE",
"555 800 LINE",
"555 509 LINE",
"364 509 LINE",
"364 540 LINE SMOOTH",
"364 717 OFFCURVE",
"316 812 OFFCURVE",
"173 812 CURVE SMOOTH",
"101 812 OFFCURVE",
"53 789 OFFCURVE",
"20 768 CURVE",
"52 710 LINE",
"79 730 OFFCURVE",
"117 747 OFFCURVE",
"173 747 CURVE SMOOTH",
"270 747 OFFCURVE",
"294 677 OFFCURVE",
"294 535 CURVE SMOOTH",
"294 0 LINE",
"364 0 LINE",
"364 446 LINE",
"552 446 LINE",
"392 14 LINE",
"456 -10 LINE"
);
}
);
width = 880;
}
);
unicode = 1062C;
},
{
glyphname = u1062D;
lastChange = "2017-12-19 23:21:51 +0000";
layers = (
{
layerId = UUID0;
paths = (
{
closed = 1;
nodes = (
"475 0 LINE",
"475 63 LINE",
"127 63 LINE",
"358 356 LINE SMOOTH",
"417 431 OFFCURVE",
"475 523 OFFCURVE",
"475 631 CURVE SMOOTH",
"475 730 OFFCURVE",
"412 815 OFFCURVE",
"277 815 CURVE SMOOTH",
"170 815 OFFCURVE",
"106 753 OFFCURVE",
"68 684 CURVE",
"123 649 LINE",
"153 703 OFFCURVE",
"201 752 OFFCURVE",
"279 752 CURVE SMOOTH",
"366 752 OFFCURVE",
"405 695 OFFCURVE",
"405 631 CURVE SMOOTH",
"405 558 OFFCURVE",
"387 504 OFFCURVE",
"326 419 CURVE",
"311 459 OFFCURVE",
"272 489 OFFCURVE",
"228 489 CURVE SMOOTH",
"172 489 OFFCURVE",
"125 442 OFFCURVE",
"125 386 CURVE SMOOTH",
"125 332 OFFCURVE",
"168 287 OFFCURVE",
"221 283 CURVE",
"50 64 LINE",
"50 0 LINE"
);
},
{
closed = 1;
nodes = (
"197 329 OFFCURVE",
"173 353 OFFCURVE",
"173 385 CURVE SMOOTH",
"173 417 OFFCURVE",
"197 443 OFFCURVE",
"228 443 CURVE SMOOTH",
"259 443 OFFCURVE",
"284 417 OFFCURVE",
"284 385 CURVE SMOOTH",
"284 353 OFFCURVE",
"259 329 OFFCURVE",
"228 329 CURVE SMOOTH"
);
}
);
width = 525;
}
);
unicode = 1062D;
},
{
glyphname = u1062E;
lastChange = "2017-12-19 23:21:51 +0000";
layers = (
{
layerId = UUID0;
paths = (
{
closed = 1;
nodes = (
"170 0 LINE",
"170 347 LINE",
"350 347 LINE",
"350 0 LINE",
"420 0 LINE",
"420 347 LINE",
"600 347 LINE",
"600 0 LINE",
"670 0 LINE",
"670 800 LINE",
"100 800 LINE",
"100 0 LINE"
);
},
{
closed = 1;
nodes = (
"170 737 LINE",
"600 737 LINE",
"600 410 LINE",
"170 410 LINE"
);
}
);
width = 770;
}
);
unicode = 1062E;
},
{
glyphname = u1062F;
lastChange = "2017-12-19 23:21:51 +0000";
layers = (
{
layerId = UUID0;
paths = (
{
closed = 1;
nodes = (
"170 0 LINE",
"170 257 LINE",
"480 257 LINE",
"480 0 LINE",
"550 0 LINE",
"550 800 LINE",
"480 800 LINE",
"480 550 LINE",
"170 550 LINE",
"170 800 LINE",
"100 800 LINE",
"100 0 LINE"
);
},
{
closed = 1;
nodes = (
"170 487 LINE",
"480 487 LINE",
"480 320 LINE",
"170 320 LINE"
);
}
);
width = 650;
}
);
unicode = 1062F;
},
{
glyphname = u10630;
lastChange = "2017-12-19 23:21:51 +0000";
layers = (
{
layerId = UUID0;
paths = (
{
closed = 1;
nodes = (
"170 0 LINE",
"170 167 LINE",
"480 167 LINE",
"480 0 LINE",
"550 0 LINE",
"550 800 LINE",
"480 800 LINE",
"480 630 LINE",
"170 630 LINE",
"170 800 LINE",
"100 800 LINE",
"100 0 LINE"
);
},
{
closed = 1;
nodes = (
"170 367 LINE",
"480 367 LINE",
"480 230 LINE",
"170 230 LINE"
);
},
{
closed = 1;
nodes = (
"170 567 LINE",
"480 567 LINE",
"480 430 LINE",
"170 430 LINE"
);
}
);
width = 650;
}
);
unicode = 10630;
},
{
glyphname = u10631;
lastChange = "2017-12-19 23:21:51 +0000";
layers = (
{
layerId = UUID0;
paths = (
{
closed = 1;
nodes = (
"550 0 LINE",
"550 800 LINE",
"100 800 LINE",
"100 0 LINE"
);
},
{
closed = 1;
nodes = (
"170 160 LINE",
"480 160 LINE",
"480 63 LINE",
"170 63 LINE"
);
},
{
closed = 1;
nodes = (
"170 577 LINE",
"480 577 LINE",
"480 223 LINE",
"170 223 LINE"
);
},
{
closed = 1;
nodes = (
"170 737 LINE",
"480 737 LINE",
"480 640 LINE",
"170 640 LINE"
);
}
);
width = 650;
}
);
unicode = 10631;
},
{
glyphname = u10632;
lastChange = "2017-12-19 23:21:51 +0000";
layers = (
{
layerId = UUID0;
paths = (
{
closed = 1;
nodes = (
"591 0 LINE",
"591 63 LINE",
"170 63 LINE",
"170 737 LINE",
"530 737 LINE",
"530 510 LINE",
"309 510 LINE",
"309 447 LINE",
"600 447 LINE",
"600 800 LINE",
"100 800 LINE",
"100 0 LINE"
);
}
);
width = 680;
}
);
unicode = 10632;
},
{
glyphname = u10633;
lastChange = "2017-12-19 23:21:51 +0000";
layers = (
{
layerId = UUID0;
paths = (
{
closed = 1;
nodes = (
"590 0 LINE",
"590 63 LINE",
"540 179 LINE",
"470 179 LINE",
"520 63 LINE",
"170 63 LINE",
"170 737 LINE",
"520 737 LINE",
"470 621 LINE",
"540 621 LINE",
"590 737 LINE",
"590 800 LINE",
"100 800 LINE",
"100 0 LINE"
);
}
);
width = 670;
}
);
unicode = 10633;
},
{
glyphname = u10634;
lastChange = "2017-12-19 23:21:51 +0000";
layers = (
{
layerId = UUID0;
paths = (
{
closed = 1;
nodes = (
"602 0 LINE",
"602 196 LINE",
"591 193 OFFCURVE",
"574 191 OFFCURVE",
"557 191 CURVE SMOOTH",
"502 191 OFFCURVE",
"460 235 OFFCURVE",
"460 290 CURVE SMOOTH",
"460 344 OFFCURVE",
"502 389 OFFCURVE",
"557 389 CURVE SMOOTH",
"577 389 OFFCURVE",
"596 383 OFFCURVE",
"612 372 CURVE",
"635 432 LINE",
"612 444 OFFCURVE",
"585 451 OFFCURVE",
"557 451 CURVE SMOOTH",
"466 451 OFFCURVE",
"392 380 OFFCURVE",
"392 289 CURVE SMOOTH",
"392 207 OFFCURVE",
"453 142 OFFCURVE",
"532 131 CURVE",
"532 63 LINE",
"170 63 LINE",
"170 800 LINE",
"100 800 LINE",
"100 0 LINE"
);
}
);
width = 685;
}
);
unicode = 10634;
},
{
glyphname = u10635;
lastChange = "2017-12-19 23:21:51 +0000";
layers = (
{
layerId = UUID0;
paths = (
{
closed = 1;
nodes = (
"650 0 LINE",
"650 464 LINE",
"420 464 LINE",
"420 800 LINE",
"100 800 LINE",
"100 0 LINE"
);
},
{
closed = 1;
nodes = (
"170 416 LINE",
"221 414 OFFCURVE",
"264 370 OFFCURVE",
"264 317 CURVE SMOOTH",
"264 263 OFFCURVE",
"221 219 OFFCURVE",
"170 218 CURVE"
);
},
{
closed = 1;
nodes = (
"170 156 LINE",
"259 158 OFFCURVE",
"330 227 OFFCURVE",
"330 316 CURVE SMOOTH",
"330 405 OFFCURVE",
"259 475 OFFCURVE",
"170 478 CURVE",
"170 737 LINE",
"350 737 LINE",
"350 401 LINE",
"580 401 LINE",
"580 63 LINE",
"170 63 LINE"
);
},
{
closed = 1;
nodes = (
"581 488 OFFCURVE",
"655 558 OFFCURVE",
"655 648 CURVE SMOOTH",
"655 739 OFFCURVE",
"581 810 OFFCURVE",
"490 810 CURVE SMOOTH",
"479 810 OFFCURVE",
"469 809 OFFCURVE",
"459 807 CURVE",
"468 746 LINE",
"475 748 OFFCURVE",
"482 748 OFFCURVE",
"490 748 CURVE SMOOTH",
"543 748 OFFCURVE",
"587 703 OFFCURVE",
"587 649 CURVE SMOOTH",
"587 594 OFFCURVE",
"543 550 OFFCURVE",
"490 550 CURVE",
"490 488 LINE"
);
}
);
width = 755;
}
);
unicode = 10635;
},
{
glyphname = u10636;
lastChange = "2017-12-19 23:21:51 +0000";
layers = (
{
layerId = UUID0;
paths = (
{
closed = 1;
nodes = (
"170 0 LINE",
"170 84 LINE SMOOTH",
"170 218 OFFCURVE",
"275 333 OFFCURVE",
"392 359 CURVE",
"392 165 LINE",
"322 165 LINE",
"322 102 LINE",
"534 102 LINE",
"534 165 LINE",
"462 165 LINE",
"462 364 LINE",
"564 351 OFFCURVE",
"585 254 OFFCURVE",
"590 195 CURVE",
"664 195 LINE",
"653 298 OFFCURVE",
"598 430 OFFCURVE",
"441 430 CURVE SMOOTH",
"332 430 OFFCURVE",
"230 369 OFFCURVE",
"170 277 CURVE",
"170 800 LINE",
"100 800 LINE",
"100 0 LINE"
);
}
);
width = 684;
}
);
unicode = 10636;
},
{
glyphname = u10637;
lastChange = "2017-12-19 23:21:51 +0000";
layers = (
{
layerId = UUID0;
paths = (
{
closed = 1;
nodes = (
"381 0 LINE",
"381 370 LINE",
"563 370 LINE",
"642 737 LINE",
"642 800 LINE",
"50 800 LINE",
"50 737 LINE",
"129 370 LINE",
"311 370 LINE",
"311 0 LINE"
);
},
{
closed = 1;
nodes = (
"370 472 OFFCURVE",
"389 491 OFFCURVE",
"389 515 CURVE SMOOTH",
"389 539 OFFCURVE",
"370 558 OFFCURVE",
"346 558 CURVE SMOOTH",
"322 558 OFFCURVE",
"303 539 OFFCURVE",
"303 515 CURVE SMOOTH",
"303 491 OFFCURVE",
"322 472 OFFCURVE",
"346 472 CURVE SMOOTH"
);
},
{
closed = 1;
nodes = (
"261 610 OFFCURVE",
"280 629 OFFCURVE",
"280 653 CURVE SMOOTH",
"280 677 OFFCURVE",
"261 696 OFFCURVE",
"237 696 CURVE SMOOTH",
"213 696 OFFCURVE",
"194 677 OFFCURVE",
"194 653 CURVE SMOOTH",
"194 629 OFFCURVE",
"213 610 OFFCURVE",
"237 610 CURVE SMOOTH"
);
},
{
closed = 1;
nodes = (
"120 737 LINE",
"572 737 LINE",
"506 433 LINE",
"186 433 LINE"
);
},
{
closed = 1;
nodes = (
"479 610 OFFCURVE",
"498 629 OFFCURVE",
"498 653 CURVE SMOOTH",
"498 677 OFFCURVE",
"479 696 OFFCURVE",
"455 696 CURVE SMOOTH",
"431 696 OFFCURVE",
"412 677 OFFCURVE",
"412 653 CURVE SMOOTH",
"412 629 OFFCURVE",
"431 610 OFFCURVE",
"455 610 CURVE SMOOTH"
);
}
);
width = 692;
}
);
unicode = 10637;
},
{
glyphname = u10638;
lastChange = "2017-12-19 23:21:51 +0000";
layers = (
{
layerId = UUID0;
paths = (
{
closed = 1;
nodes = (
"531 0 LINE",
"531 63 LINE",
"427 63 LINE",
"605 600 LINE",
"605 660 LINE",
"229 660 LINE",
"338 760 LINE",
"297 810 LINE",
"161 684 LINE",
"120 810 LINE",
"57 791 LINE",
"109 635 LINE",
"20 553 LINE",
"63 506 LINE",
"131 569 LINE",
"299 63 LINE",
"195 63 LINE",
"195 0 LINE"
);
},
{
closed = 1;
nodes = (
"270 352 LINE",
"456 352 LINE",
"363 72 LINE"
);
},
{
closed = 1;
nodes = (
"189 597 LINE",
"537 597 LINE",
"477 415 LINE",
"249 415 LINE"
);
}
);
width = 655;
}
);
unicode = 10638;
},
{
glyphname = u10639;
lastChange = "2017-12-19 23:21:51 +0000";
layers = (
{
layerId = UUID0;
paths = (
{
closed = 1;
nodes = (
"611 0 LINE",
"611 63 LINE",
"398 63 LINE",
"611 400 LINE",
"611 460 LINE",
"365 460 LINE",
"365 800 LINE",
"295 800 LINE",
"295 460 LINE",
"50 460 LINE",
"50 400 LINE",
"263 63 LINE",
"50 63 LINE",
"50 0 LINE"
);
},
{
closed = 1;
nodes = (
"129 397 LINE",
"295 397 LINE",
"295 138 LINE"
);
},
{
closed = 1;
nodes = (
"365 397 LINE",
"532 397 LINE",
"365 137 LINE"
);
}
);
width = 661;
}
);
unicode = 10639;
},
{
glyphname = u1063A;
lastChange = "2017-12-19 23:21:51 +0000";
layers = (
{
layerId = UUID0;
paths = (
{
closed = 1;
nodes = (
"346 0 LINE",
"368 87 OFFCURVE",
"391 271 OFFCURVE",
"398 449 CURVE",
"503 475 OFFCURVE",
"557 543 OFFCURVE",
"557 627 CURVE SMOOTH",
"557 733 OFFCURVE",
"470 815 OFFCURVE",
"303 815 CURVE SMOOTH",
"137 815 OFFCURVE",
"50 733 OFFCURVE",
"50 627 CURVE SMOOTH",
"50 543 OFFCURVE",
"104 475 OFFCURVE",
"208 449 CURVE",
"215 271 OFFCURVE",
"238 87 OFFCURVE",
"261 0 CURVE"
);
},
{
closed = 1;
nodes = (
"284 229 OFFCURVE",
"271 384 OFFCURVE",
"271 552 CURVE SMOOTH",
"271 669 LINE",
"206 669 LINE",
"206 554 LINE SMOOTH",
"206 539 OFFCURVE",
"208 518 OFFCURVE",
"208 509 CURVE",
"143 530 OFFCURVE",
"114 575 OFFCURVE",
"114 627 CURVE SMOOTH",
"114 699 OFFCURVE",
"169 758 OFFCURVE",
"303 758 CURVE SMOOTH",
"434 758 OFFCURVE",
"493 699 OFFCURVE",
"493 627 CURVE SMOOTH",
"493 576 OFFCURVE",
"462 531 OFFCURVE",
"399 510 CURVE",
"400 525 OFFCURVE",
"401 540 OFFCURVE",
"401 554 CURVE SMOOTH",
"401 669 LINE",
"336 669 LINE",
"336 552 LINE SMOOTH",
"336 383 OFFCURVE",
"323 229 OFFCURVE",
"303 77 CURVE"
);
}
);
width = 607;
}
);
unicode = 1063A;
},
{
glyphname = u1063B;
lastChange = "2017-12-19 23:21:51 +0000";
layers = (
{
layerId = UUID0;
paths = (
{
closed = 1;
nodes = (
"451 -12 OFFCURVE",
"561 175 OFFCURVE",
"561 342 CURVE SMOOTH",
"561 429 OFFCURVE",
"535 503 OFFCURVE",
"494 569 CURVE",
"438 538 LINE",
"467 484 OFFCURVE",
"491 418 OFFCURVE",
"491 341 CURVE SMOOTH",
"491 140 OFFCURVE",
"345 53 OFFCURVE",
"240 53 CURVE SMOOTH",
"209 53 OFFCURVE",
"170 73 OFFCURVE",
"170 96 CURVE SMOOTH",
"170 800 LINE",
"100 800 LINE",
"100 90 LINE SMOOTH",
"100 8 OFFCURVE",
"202 -12 OFFCURVE",
"240 -12 CURVE SMOOTH"
);
},
{
closed = 1;
nodes = (
"321 206 OFFCURVE",
"359 223 OFFCURVE",
"388 248 CURVE",
"356 295 LINE",
"340 285 OFFCURVE",
"314 269 OFFCURVE",
"296 269 CURVE SMOOTH",
"284 269 OFFCURVE",
"276 278 OFFCURVE",
"276 305 CURVE SMOOTH",
"276 356 OFFCURVE",
"288 406 OFFCURVE",
"308 468 CURVE",
"244 484 LINE",
"218 403 OFFCURVE",
"210 346 OFFCURVE",
"210 297 CURVE SMOOTH",
"210 230 OFFCURVE",
"245 206 OFFCURVE",
"288 206 CURVE SMOOTH"
);
},
{
closed = 1;
nodes = (
"404 378 OFFCURVE",
"423 397 OFFCURVE",
"423 421 CURVE SMOOTH",
"423 445 OFFCURVE",
"404 464 OFFCURVE",
"380 464 CURVE SMOOTH",
"356 464 OFFCURVE",
"337 445 OFFCURVE",
"337 421 CURVE SMOOTH",
"337 397 OFFCURVE",
"356 378 OFFCURVE",
"380 378 CURVE SMOOTH"
);
}
);
width = 611;
}
);
unicode = 1063B;
},
{
glyphname = u1063C;
lastChange = "2017-12-19 23:21:51 +0000";
layers = (
{
layerId = UUID0;
paths = (
{
closed = 1;
nodes = (
"529 -15 OFFCURVE",
"657 83 OFFCURVE",
"703 220 CURVE",
"639 244 LINE",
"602 133 OFFCURVE",
"499 50 OFFCURVE",
"377 50 CURVE SMOOTH",
"231 50 OFFCURVE",
"157 167 OFFCURVE",
"150 363 CURVE",
"167 352 OFFCURVE",
"186 346 OFFCURVE",
"207 346 CURVE SMOOTH",
"263 346 OFFCURVE",
"311 393 OFFCURVE",
"311 449 CURVE SMOOTH",
"311 505 OFFCURVE",
"263 552 OFFCURVE",
"207 552 CURVE SMOOTH",
"188 552 OFFCURVE",
"171 547 OFFCURVE",
"156 538 CURVE",
"164 626 OFFCURVE",
"182 710 OFFCURVE",
"219 800 CURVE",
"148 800 LINE",
"95 651 OFFCURVE",
"80 533 OFFCURVE",
"80 390 CURVE SMOOTH",
"80 140 OFFCURVE",
"185 -15 OFFCURVE",
"377 -15 CURVE SMOOTH"
);
},
{
closed = 1;
nodes = (
"176 392 OFFCURVE",
"152 416 OFFCURVE",
"152 448 CURVE SMOOTH",
"152 480 OFFCURVE",
"176 506 OFFCURVE",
"207 506 CURVE SMOOTH",
"238 506 OFFCURVE",
"263 480 OFFCURVE",
"263 448 CURVE SMOOTH",
"263 416 OFFCURVE",
"238 392 OFFCURVE",
"207 392 CURVE SMOOTH"
);
},
{
closed = 1;
nodes = (
"550 315 LINE",
"365 389 LINE",
"342 332 LINE",
"527 258 LINE"
);
},
{
closed = 1;
nodes = (
"563 424 LINE",
"563 487 LINE",
"363 487 LINE",
"363 424 LINE"
);
},
{
closed = 1;
nodes = (
"550 596 LINE",
"527 653 LINE",
"342 579 LINE",
"365 522 LINE"
);
}
);
width = 753;
}
);
unicode = 1063C;
},
{
glyphname = u1063D;
lastChange = "2017-12-19 23:21:51 +0000";
layers = (
{
layerId = UUID0;
paths = (
{
closed = 1;
nodes = (
"536 48 LINE",
"451 48 OFFCURVE",
"400 88 OFFCURVE",
"400 143 CURVE SMOOTH",
"400 229 OFFCURVE",
"462 290 OFFCURVE",
"529 353 CURVE SMOOTH",
"606 425 OFFCURVE",
"688 502 OFFCURVE",
"688 624 CURVE SMOOTH",
"688 723 OFFCURVE",
"631 815 OFFCURVE",
"485 815 CURVE SMOOTH",
"467 815 OFFCURVE",
"451 814 OFFCURVE",
"436 813 CURVE",
"441 748 LINE",
"459 751 OFFCURVE",
"475 752 OFFCURVE",
"489 752 CURVE SMOOTH",
"585 752 OFFCURVE",
"618 688 OFFCURVE",
"618 624 CURVE SMOOTH",
"618 536 OFFCURVE",
"563 474 OFFCURVE",
"501 415 CURVE SMOOTH",
"421 339 OFFCURVE",
"330 266 OFFCURVE",
"330 143 CURVE SMOOTH",
"330 46 OFFCURVE",
"405 -15 OFFCURVE",
"533 -15 CURVE"
);
},
{
closed = 1;
nodes = (
"256 48 LINE",
"171 48 OFFCURVE",
"120 88 OFFCURVE",
"120 143 CURVE SMOOTH",
"120 228 OFFCURVE",
"180 289 OFFCURVE",
"247 351 CURVE SMOOTH",
"325 424 OFFCURVE",
"408 501 OFFCURVE",
"408 624 CURVE SMOOTH",
"408 723 OFFCURVE",
"351 815 OFFCURVE",
"205 815 CURVE SMOOTH",
"187 815 OFFCURVE",
"171 814 OFFCURVE",
"156 813 CURVE",
"161 748 LINE",
"179 751 OFFCURVE",
"195 752 OFFCURVE",
"209 752 CURVE SMOOTH",
"305 752 OFFCURVE",
"338 688 OFFCURVE",
"338 624 CURVE SMOOTH",
"338 532 OFFCURVE",
"278 469 OFFCURVE",
"213 408 CURVE SMOOTH",
"135 334 OFFCURVE",
"50 262 OFFCURVE",
"50 143 CURVE SMOOTH",
"50 46 OFFCURVE",
"125 -15 OFFCURVE",
"253 -15 CURVE"
);
}
);
width = 738;
}
);
unicode = 1063D;
},
{
glyphname = u1063E;
lastChange = "2017-12-19 23:27:40 +0000";
layers = (
{
layerId = UUID0;
paths = (
{
closed = 1;
nodes = (
"463 100 LINE",
"463 729 LINE",
"393 729 LINE",
"393 100 LINE"
);
},
{
closed = 1;
nodes = (
"631 51 OFFCURVE",
"795 215 OFFCURVE",
"795 418 CURVE SMOOTH",
"795 621 OFFCURVE",
"631 785 OFFCURVE",
"428 785 CURVE SMOOTH",
"224 785 OFFCURVE",
"60 621 OFFCURVE",
"60 418 CURVE SMOOTH",
"60 215 OFFCURVE",
"224 51 OFFCURVE",
"428 51 CURVE SMOOTH"
);
},
{
closed = 1;
nodes = (
"263 116 OFFCURVE",
"130 254 OFFCURVE",
"130 418 CURVE SMOOTH",
"130 582 OFFCURVE",
"263 720 OFFCURVE",
"428 720 CURVE SMOOTH",
"592 720 OFFCURVE",
"725 582 OFFCURVE",
"725 418 CURVE SMOOTH",
"725 254 OFFCURVE",
"592 116 OFFCURVE",
"428 116 CURVE SMOOTH"
);
},
{
closed = 1;
nodes = (
"441 391 LINE",
"441 454 LINE",
"111 454 LINE",
"111 391 LINE"
);
},
{
closed = 1;
nodes = (
"751 391 LINE",
"751 454 LINE",
"421 454 LINE",
"421 391 LINE"
);
}
);
width = 855;
}
);
unicode = 1063E;
},
{
glyphname = u1063F;
lastChange = "2017-12-19 23:21:51 +0000";
layers = (
{
layerId = UUID0;
paths = (
{
closed = 1;
nodes = (
"631 51 OFFCURVE",
"795 215 OFFCURVE",
"795 418 CURVE SMOOTH",
"795 621 OFFCURVE",
"631 785 OFFCURVE",
"428 785 CURVE SMOOTH",
"224 785 OFFCURVE",
"60 621 OFFCURVE",
"60 418 CURVE SMOOTH",
"60 215 OFFCURVE",
"224 51 OFFCURVE",
"428 51 CURVE SMOOTH"
);
},
{
closed = 1;
nodes = (
"457 227 OFFCURVE",
"476 246 OFFCURVE",
"476 270 CURVE SMOOTH",
"476 294 OFFCURVE",
"457 313 OFFCURVE",
"433 313 CURVE SMOOTH",
"409 313 OFFCURVE",
"390 294 OFFCURVE",
"390 270 CURVE SMOOTH",
"390 246 OFFCURVE",
"409 227 OFFCURVE",
"433 227 CURVE SMOOTH"
);
},
{
closed = 1;
nodes = (
"308 455 OFFCURVE",
"327 474 OFFCURVE",
"327 498 CURVE SMOOTH",
"327 522 OFFCURVE",
"308 541 OFFCURVE",
"284 541 CURVE SMOOTH",
"260 541 OFFCURVE",
"241 522 OFFCURVE",
"241 498 CURVE SMOOTH",
"241 474 OFFCURVE",
"260 455 OFFCURVE",
"284 455 CURVE SMOOTH"
);
},
{
closed = 1;
nodes = (
"263 116 OFFCURVE",
"130 254 OFFCURVE",
"130 418 CURVE SMOOTH",
"130 582 OFFCURVE",
"263 720 OFFCURVE",
"428 720 CURVE SMOOTH",
"592 720 OFFCURVE",
"725 582 OFFCURVE",
"725 418 CURVE SMOOTH",
"725 254 OFFCURVE",
"592 116 OFFCURVE",
"428 116 CURVE SMOOTH"
);
},
{
closed = 1;
nodes = (
"595 455 OFFCURVE",
"614 474 OFFCURVE",
"614 498 CURVE SMOOTH",
"614 522 OFFCURVE",
"595 541 OFFCURVE",
"571 541 CURVE SMOOTH",
"547 541 OFFCURVE",
"528 522 OFFCURVE",
"528 498 CURVE SMOOTH",
"528 474 OFFCURVE",
"547 455 OFFCURVE",
"571 455 CURVE SMOOTH"
);
}
);
width = 855;
}
);
unicode = 1063F;
},
{
glyphname = u10640;
lastChange = "2017-12-19 23:21:51 +0000";
layers = (
{
layerId = UUID0;
paths = (
{
closed = 1;
nodes = (
"542 -15 OFFCURVE",
"616 173 OFFCURVE",
"649 351 CURVE",
"839 415 LINE",
"820 470 LINE",
"659 416 LINE",
"665 477 LINE",
"839 535 LINE",
"820 590 LINE",
"667 538 LINE",
"667 559 OFFCURVE",
"666 578 OFFCURVE",
"664 597 CURVE",
"839 655 LINE",
"820 710 LINE",
"655 654 LINE",
"632 760 OFFCURVE",
"570 815 OFFCURVE",
"448 815 CURVE SMOOTH",
"321 815 OFFCURVE",
"258 761 OFFCURVE",
"234 654 CURVE",
"69 710 LINE",
"50 655 LINE",
"225 596 LINE",
"223 578 OFFCURVE",
"222 559 OFFCURVE",
"222 538 CURVE",
"69 590 LINE",
"50 535 LINE",
"223 477 LINE",
"229 416 LINE",
"69 470 LINE",
"50 415 LINE",
"240 351 LINE",
"272 176 OFFCURVE",
"346 -10 OFFCURVE",
"444 -15 CURVE"
);
},
{
closed = 1;
nodes = (
"361 55 OFFCURVE",
"286 363 OFFCURVE",
"286 537 CURVE SMOOTH",
"286 664 OFFCURVE",
"314 758 OFFCURVE",
"448 758 CURVE SMOOTH",
"575 758 OFFCURVE",
"603 662 OFFCURVE",
"603 537 CURVE SMOOTH",
"603 363 OFFCURVE",
"527 55 OFFCURVE",
"444 55 CURVE SMOOTH"
);
},
{
closed = 1;
nodes = (
"479 331 LINE",
"479 661 LINE",
"409 661 LINE",
"409 331 LINE"
);
}
);
width = 889;
}
);
unicode = 10640;
},
{
glyphname = u10641;
lastChange = "2017-12-19 23:21:51 +0000";
layers = (
{
layerId = UUID0;
paths = (
{
closed = 1;
nodes = (
"741 0 LINE",
"741 60 LINE",
"589 346 LINE",
"781 507 LINE",
"738 554 LINE",
"558 405 LINE",
"440 628 LINE",
"371 628 LINE",
"253 404 LINE",
"73 554 LINE",
"30 507 LINE",
"222 346 LINE",
"70 60 LINE",
"70 0 LINE"
);
},
{
closed = 1;
nodes = (
"405 551 LINE",
"663 63 LINE",
"148 63 LINE"
);
}
);
width = 811;
}
);
unicode = 10641;
},
{
glyphname = u10642;
lastChange = "2017-12-19 23:21:51 +0000";
layers = (
{
layerId = UUID0;
paths = (
{
closed = 1;
nodes = (
"363 142 LINE",
"363 202 LINE",
"234 443 LINE",
"329 536 LINE",
"329 573 LINE",
"82 815 LINE",
"30 769 LINE",
"254 554 LINE",
"30 340 LINE",
"82 294 LINE",
"187 397 LINE",
"300 186 LINE",
"48 39 LINE",
"80 -15 LINE"
);
}
);
width = 393;
}
);
unicode = 10642;
},
{
glyphname = u10643;
lastChange = "2017-12-19 23:21:51 +0000";
layers = (
{
layerId = UUID0;
paths = (
{
closed = 1;
nodes = (
"255 13 OFFCURVE",
"340 90 OFFCURVE",
"340 202 CURVE SMOOTH",
"340 274 OFFCURVE",
"301 340 OFFCURVE",
"234 372 CURVE",
"200 318 LINE",
"245 297 OFFCURVE",
"276 250 OFFCURVE",
"276 199 CURVE SMOOTH",
"276 123 OFFCURVE",
"214 69 OFFCURVE",
"148 68 CURVE",
"158 10 LINE"
);
},
{
closed = 1;
nodes = (
"130 198 LINE",
"130 563 LINE",
"60 563 LINE",
"60 198 LINE"
);
},
{
closed = 1;
nodes = (
"556 42 LINE",
"381 111 LINE",
"358 54 LINE",
"533 -20 LINE"
);
},
{
closed = 1;
nodes = (
"569 146 LINE",
"569 209 LINE",
"379 209 LINE",
"379 146 LINE"
);
},
{
closed = 1;
nodes = (
"556 313 LINE",
"533 375 LINE",
"358 301 LINE",
"381 244 LINE"
);
},
{
closed = 1;
nodes = (
"280 457 OFFCURVE",
"337 528 OFFCURVE",
"337 614 CURVE SMOOTH",
"337 707 OFFCURVE",
"269 782 OFFCURVE",
"180 799 CURVE",
"166 743 LINE",
"226 732 OFFCURVE",
"273 678 OFFCURVE",
"273 614 CURVE SMOOTH",
"273 554 OFFCURVE",
"232 503 OFFCURVE",
"177 488 CURVE",
"201 434 LINE"
);
},
{
closed = 1;
nodes = (
"556 482 LINE",
"381 551 LINE",
"358 494 LINE",
"533 420 LINE"
);
},
{
closed = 1;
nodes = (
"569 586 LINE",
"569 649 LINE",
"379 649 LINE",
"379 586 LINE"
);
},
{
closed = 1;
nodes = (
"556 753 LINE",
"533 815 LINE",
"358 741 LINE",
"381 684 LINE"
);
}
);
width = 619;
}
);
unicode = 10643;
},
{
glyphname = u10644;
lastChange = "2017-12-19 23:21:51 +0000";
layers = (
{
layerId = UUID0;
paths = (
{
closed = 1;
nodes = (
"463 208 LINE SMOOTH",
"526 208 OFFCURVE",
"597 212 OFFCURVE",
"626 276 CURVE SMOOTH",
"638 302 OFFCURVE",
"656 358 OFFCURVE",
"656 405 CURVE SMOOTH",
"656 458 OFFCURVE",
"632 489 OFFCURVE",
"578 489 CURVE SMOOTH",
"562 489 OFFCURVE",
"547 487 OFFCURVE",
"531 487 CURVE SMOOTH",
"449 487 OFFCURVE",
"375 546 OFFCURVE",
"296 576 CURVE",
"300 598 OFFCURVE",
"301 620 OFFCURVE",
"301 640 CURVE SMOOTH",
"301 716 OFFCURVE",
"269 757 OFFCURVE",
"208 757 CURVE SMOOTH",
"130 757 OFFCURVE",
"80 698 OFFCURVE",
"80 585 CURVE SMOOTH",
"80 208 LINE"
);
},
{
closed = 1;
nodes = (
"283 394 OFFCURVE",
"302 413 OFFCURVE",
"302 437 CURVE SMOOTH",
"302 461 OFFCURVE",
"283 480 OFFCURVE",
"259 480 CURVE SMOOTH",
"235 480 OFFCURVE",
"216 461 OFFCURVE",
"216 437 CURVE SMOOTH",
"216 413 OFFCURVE",
"235 394 OFFCURVE",
"259 394 CURVE SMOOTH"
);
},
{
closed = 1;
nodes = (
"150 585 LINE SMOOTH",
"150 651 OFFCURVE",
"155 691 OFFCURVE",
"203 691 CURVE SMOOTH",
"231 691 OFFCURVE",
"232 666 OFFCURVE",
"232 641 CURVE SMOOTH",
"232 624 OFFCURVE",
"228 592 OFFCURVE",
"223 566 CURVE SMOOTH",
"222 561 OFFCURVE",
"221 557 OFFCURVE",
"221 553 CURVE SMOOTH",
"221 544 OFFCURVE",
"225 535 OFFCURVE",
"232 532 CURVE SMOOTH",
"287 512 OFFCURVE",
"324 482 OFFCURVE",
"389 457 CURVE SMOOTH",
"430 441 OFFCURVE",
"478 420 OFFCURVE",
"522 420 CURVE SMOOTH",
"539 420 OFFCURVE",
"557 422 OFFCURVE",
"573 422 CURVE SMOOTH",
"585 422 OFFCURVE",
"586 419 OFFCURVE",
"586 414 CURVE SMOOTH",
"586 394 OFFCURVE",
"573 317 OFFCURVE",
"562 304 CURVE SMOOTH",
"545 284 OFFCURVE",
"510 271 OFFCURVE",
"447 271 CURVE SMOOTH",
"150 271 LINE"
);
}
);
width = 706;
}
);
unicode = 10644;
},
{
glyphname = u10645;
lastChange = "2017-12-19 23:21:51 +0000";
layers = (
{
layerId = UUID0;
paths = (
{
closed = 1;
nodes = (
"624 112 OFFCURVE",
"803 160 OFFCURVE",
"880 256 CURVE",
"880 432 LINE",
"486 432 LINE SMOOTH",
"417 432 OFFCURVE",
"358 422 OFFCURVE",
"305 403 CURVE",
"409 521 LINE",
"360 565 LINE",
"165 341 LINE",
"135 378 OFFCURVE",
"108 423 OFFCURVE",
"83 475 CURVE",
"20 439 LINE",
"141 218 OFFCURVE",
"287 112 OFFCURVE",
"488 112 CURVE SMOOTH"
);
},
{
closed = 1;
nodes = (
"387 177 OFFCURVE",
"295 211 OFFCURVE",
"215 286 CURVE",
"291 342 OFFCURVE",
"386 369 OFFCURVE",
"490 369 CURVE SMOOTH",
"600 369 LINE",
"600 187 LINE",
"560 180 OFFCURVE",
"522 177 OFFCURVE",
"488 177 CURVE SMOOTH"
);
},
{
closed = 1;
nodes = (
"670 369 LINE",
"810 369 LINE",
"810 276 LINE",
"776 244 OFFCURVE",
"725 220 OFFCURVE",
"670 204 CURVE"
);
}
);
width = 930;
}
);
unicode = 10645;
},
{
glyphname = u10646;
lastChange = "2017-12-19 23:21:51 +0000";
layers = (
{
layerId = UUID0;
paths = (
{
closed = 1;
nodes = (
"170 0 LINE",
"170 751 LINE",
"181 751 OFFCURVE",
"192 752 OFFCURVE",
"200 752 CURVE SMOOTH",
"296 752 OFFCURVE",
"329 697 OFFCURVE",
"329 656 CURVE SMOOTH",
"329 593 OFFCURVE",
"301 568 OFFCURVE",
"266 548 CURVE",
"265 520 LINE",
"314 495 OFFCURVE",
"351 464 OFFCURVE",
"351 415 CURVE SMOOTH",
"351 315 OFFCURVE",
"255 245 OFFCURVE",
"255 138 CURVE SMOOTH",
"255 91 OFFCURVE",
"271 44 OFFCURVE",
"301 8 CURVE",
"359 49 LINE",
"336 76 OFFCURVE",
"325 110 OFFCURVE",
"325 138 CURVE SMOOTH",
"325 246 OFFCURVE",
"421 297 OFFCURVE",
"421 415 CURVE SMOOTH",
"421 473 OFFCURVE",
"392 511 OFFCURVE",
"351 540 CURVE",
"374 560 OFFCURVE",
"399 598 OFFCURVE",
"399 653 CURVE SMOOTH",
"399 732 OFFCURVE",
"342 815 OFFCURVE",
"196 815 CURVE SMOOTH",
"178 815 OFFCURVE",
"137 811 OFFCURVE",
"100 804 CURVE",
"100 0 LINE"
);
}
);
width = 481;
}
);
unicode = 10646;
},
{
glyphname = u10647;
lastChange = "2017-12-19 23:21:51 +0000";
layers = (
{
layerId = UUID0;
paths = (
{
closed = 1;
nodes = (
"239 0 LINE",
"239 63 LINE",
"149 63 LINE",
"193 187 LINE",
"456 187 LINE",
"535 0 LINE",
"666 0 LINE",
"666 63 LINE",
"580 63 LINE",
"355 586 LINE",
"355 800 LINE",
"285 800 LINE",
"285 602 LINE",
"125 727 LINE",
"60 727 LINE",
"60 397 LINE",
"125 397 LINE",
"230 479 LINE",
"81 60 LINE",
"81 0 LINE"
);
},
{
closed = 1;
nodes = (
"239 317 LINE",
"401 317 LINE",
"431 246 LINE",
"214 246 LINE"
);
},
{
closed = 1;
nodes = (
"122 647 LINE",
"240 562 LINE",
"122 476 LINE"
);
},
{
closed = 1;
nodes = (
"312 525 LINE",
"376 376 LINE",
"260 376 LINE"
);
}
);
width = 676;
}
);
unicode = 10647;
},
{
glyphname = u10648;
lastChange = "2017-12-19 23:21:51 +0000";
layers = (
{
layerId = UUID0;
paths = (
{
closed = 1;
nodes = (
"904 0 LINE",
"904 60 LINE",
"741 590 LINE",
"663 590 LINE",
"500 60 LINE",
"500 0 LINE"
);
},
{
closed = 1;
nodes = (
"252 507 LINE",
"386 63 LINE",
"118 63 LINE"
);
},
{
closed = 1;
nodes = (
"454 0 LINE",
"454 60 LINE",
"291 590 LINE",
"213 590 LINE",
"50 60 LINE",
"50 0 LINE"
);
},
{
closed = 1;
nodes = (
"702 507 LINE",
"836 63 LINE",
"568 63 LINE"
);
},
{
closed = 1;
nodes = (
"512 500 LINE",
"512 607 LINE",
"840 607 LINE",
"840 670 LINE",
"512 670 LINE",
"512 800 LINE",
"442 800 LINE",
"442 670 LINE",
"114 670 LINE",
"114 607 LINE",
"442 607 LINE",
"442 500 LINE"
);
}
);
width = 954;
}
);
unicode = 10648;
},
{
glyphname = u10649;
lastChange = "2017-12-19 23:21:51 +0000";
layers = (
{
layerId = UUID0;
paths = (
{
closed = 1;
nodes = (
"312 0 LINE",
"312 422 LINE",
"386 438 OFFCURVE",
"442 501 OFFCURVE",
"442 579 CURVE SMOOTH",
"442 657 OFFCURVE",
"387 720 OFFCURVE",
"314 737 CURVE",
"504 737 LINE",
"504 800 LINE",
"50 800 LINE",
"50 737 LINE",
"239 737 LINE",
"166 720 OFFCURVE",
"112 657 OFFCURVE",
"112 579 CURVE SMOOTH",
"112 501 OFFCURVE",
"168 438 OFFCURVE",
"242 422 CURVE",
"242 0 LINE"
);
},
{
closed = 1;
nodes = (
"205 501 OFFCURVE",
"180 537 OFFCURVE",
"180 580 CURVE SMOOTH",
"180 622 OFFCURVE",
"205 658 OFFCURVE",
"242 672 CURVE",
"242 487 LINE"
);
},
{
closed = 1;
nodes = (
"312 672 LINE",
"348 657 OFFCURVE",
"374 621 OFFCURVE",
"374 580 CURVE SMOOTH",
"374 538 OFFCURVE",
"348 502 OFFCURVE",
"312 487 CURVE"
);
}
);
width = 554;
}
);
unicode = 10649;
},
{
glyphname = u1064A;
lastChange = "2017-12-19 23:21:51 +0000";
layers = (
{
layerId = UUID0;
paths = (
{
closed = 1;
nodes = (
"312 0 LINE",
"312 326 LINE",
"394 340 OFFCURVE",
"452 404 OFFCURVE",
"452 483 CURVE SMOOTH",
"452 514 OFFCURVE",
"450 542 OFFCURVE",
"437 567 CURVE",
"504 567 LINE",
"504 630 LINE",
"50 630 LINE",
"50 567 LINE",
"118 567 LINE",
"106 542 OFFCURVE",
"102 514 OFFCURVE",
"102 483 CURVE SMOOTH",
"102 404 OFFCURVE",
"159 340 OFFCURVE",
"242 326 CURVE",
"242 0 LINE"
);
},
{
closed = 1;
nodes = (
"202 401 OFFCURVE",
"170 433 OFFCURVE",
"170 484 CURVE SMOOTH",
"170 518 OFFCURVE",
"172 546 OFFCURVE",
"185 567 CURVE",
"242 567 LINE",
"242 389 LINE"
);
},
{
closed = 1;
nodes = (
"312 567 LINE",
"372 567 LINE",
"381 543 OFFCURVE",
"384 513 OFFCURVE",
"384 484 CURVE SMOOTH",
"384 433 OFFCURVE",
"351 401 OFFCURVE",
"312 390 CURVE"
);
},
{
closed = 1;
nodes = (
"504 737 LINE",
"504 800 LINE",
"50 800 LINE",
"50 737 LINE"
);
}
);
width = 554;
}
);
unicode = 1064A;
},
{
glyphname = u1064B;
lastChange = "2017-12-19 23:21:51 +0000";
layers = (
{
layerId = UUID0;
paths = (
{
closed = 1;
nodes = (
"365 0 LINE",
"365 605 LINE",
"295 605 LINE",
"295 0 LINE"
);
},
{
closed = 1;
nodes = (
"287 453 LINE",
"166 586 LINE",
"120 548 LINE",
"244 409 LINE"
);
},
{
closed = 1;
nodes = (
"157 587 OFFCURVE",
"199 627 OFFCURVE",
"199 676 CURVE SMOOTH",
"199 724 OFFCURVE",
"157 765 OFFCURVE",
"109 765 CURVE SMOOTH",
"60 765 OFFCURVE",
"20 724 OFFCURVE",
"20 676 CURVE SMOOTH",
"20 627 OFFCURVE",
"60 587 OFFCURVE",
"109 587 CURVE SMOOTH"
);
},
{
closed = 1;
nodes = (
"84 630 OFFCURVE",
"64 649 OFFCURVE",
"64 675 CURVE SMOOTH",
"64 701 OFFCURVE",
"84 722 OFFCURVE",
"109 722 CURVE SMOOTH",
"135 722 OFFCURVE",
"155 701 OFFCURVE",
"155 675 CURVE SMOOTH",
"155 649 OFFCURVE",
"135 630 OFFCURVE",
"109 630 CURVE SMOOTH"
);
},
{
closed = 1;
nodes = (
"540 548 LINE",
"494 586 LINE",
"373 453 LINE",
"416 409 LINE"
);
},
{
closed = 1;
nodes = (
"377 637 OFFCURVE",
"419 677 OFFCURVE",
"419 726 CURVE SMOOTH",
"419 774 OFFCURVE",
"377 815 OFFCURVE",
"329 815 CURVE SMOOTH",
"280 815 OFFCURVE",
"240 774 OFFCURVE",
"240 726 CURVE SMOOTH",
"240 677 OFFCURVE",
"280 637 OFFCURVE",
"329 637 CURVE SMOOTH"
);
},
{
closed = 1;
nodes = (
"304 680 OFFCURVE",
"284 699 OFFCURVE",
"284 725 CURVE SMOOTH",
"284 751 OFFCURVE",
"304 772 OFFCURVE",
"329 772 CURVE SMOOTH",
"355 772 OFFCURVE",
"375 751 OFFCURVE",
"375 725 CURVE SMOOTH",
"375 699 OFFCURVE",
"355 680 OFFCURVE",
"329 680 CURVE SMOOTH"
);
},
{
closed = 1;
nodes = (
"597 587 OFFCURVE",
"639 627 OFFCURVE",
"639 676 CURVE SMOOTH",
"639 724 OFFCURVE",
"597 765 OFFCURVE",
"549 765 CURVE SMOOTH",
"500 765 OFFCURVE",
"460 724 OFFCURVE",
"460 676 CURVE SMOOTH",
"460 627 OFFCURVE",
"500 587 OFFCURVE",
"549 587 CURVE SMOOTH"
);
},
{
closed = 1;
nodes = (
"524 630 OFFCURVE",
"504 649 OFFCURVE",
"504 675 CURVE SMOOTH",
"504 701 OFFCURVE",
"524 722 OFFCURVE",
"549 722 CURVE SMOOTH",
"575 722 OFFCURVE",
"595 701 OFFCURVE",
"595 675 CURVE SMOOTH",
"595 649 OFFCURVE",
"575 630 OFFCURVE",
"549 630 CURVE SMOOTH"
);
}
);
width = 659;
}
);
unicode = 1064B;
},
{
glyphname = u1064C;
lastChange = "2017-12-19 23:21:51 +0000";
layers = (
{
layerId = UUID0;
paths = (
{
closed = 1;
nodes = (
"620 0 LINE",
"620 557 LINE",
"440 815 LINE",
"360 815 LINE",
"180 557 LINE",
"180 405 LINE",
"163 416 OFFCURVE",
"144 423 OFFCURVE",
"123 423 CURVE SMOOTH",
"67 423 OFFCURVE",
"20 376 OFFCURVE",
"20 320 CURVE SMOOTH",
"20 264 OFFCURVE",
"67 217 OFFCURVE",
"123 217 CURVE SMOOTH",
"144 217 OFFCURVE",
"163 223 OFFCURVE",
"180 234 CURVE",
"180 0 LINE"
);
},
{
closed = 1;
nodes = (
"92 263 OFFCURVE",
"68 287 OFFCURVE",
"68 319 CURVE SMOOTH",
"68 351 OFFCURVE",
"92 377 OFFCURVE",
"123 377 CURVE SMOOTH",
"154 377 OFFCURVE",
"179 351 OFFCURVE",
"179 319 CURVE SMOOTH",
"179 287 OFFCURVE",
"154 263 OFFCURVE",
"123 263 CURVE SMOOTH"
);
},
{
closed = 1;
nodes = (
"250 160 LINE",
"550 160 LINE",
"550 63 LINE",
"250 63 LINE"
);
},
{
closed = 1;
nodes = (
"250 497 LINE",
"550 497 LINE",
"550 223 LINE",
"250 223 LINE"
);
},
{
closed = 1;
nodes = (
"400 765 LINE",
"541 560 LINE",
"259 560 LINE"
);
}
);
width = 700;
}
);
unicode = 1064C;
},
{
glyphname = u1064D;
lastChange = "2017-12-19 23:21:51 +0000";
layers = (
{
layerId = UUID0;
paths = (
{
closed = 1;
nodes = (
"170 0 LINE",
"170 457 LINE",
"360 457 LINE",
"360 0 LINE",
"430 0 LINE",
"430 457 LINE",
"620 457 LINE",
"620 0 LINE",
"690 0 LINE",
"690 520 LINE",
"170 520 LINE",
"170 737 LINE",
"690 737 LINE",
"690 800 LINE",
"100 800 LINE",
"100 0 LINE"
);
},
{
closed = 1;
nodes = (
"348 186 LINE",
"303 231 LINE",
"179 109 LINE",
"225 63 LINE"
);
},
{
closed = 1;
nodes = (
"608 236 LINE",
"563 281 LINE",
"439 159 LINE",
"485 113 LINE"
);
}
);
width = 790;
}
);
unicode = 1064D;
},
{
glyphname = u1064E;
lastChange = "2017-12-19 23:21:51 +0000";
layers = (
{
layerId = UUID0;
paths = (
{
closed = 1;
nodes = (
"170 0 LINE",
"170 457 LINE",
"620 457 LINE",
"620 0 LINE",
"690 0 LINE",
"690 520 LINE",
"170 520 LINE",
"170 737 LINE",
"690 737 LINE",
"690 800 LINE",
"100 800 LINE",
"100 0 LINE"
);
}
);
width = 790;
}
);
unicode = 1064E;
},
{
glyphname = u1064F;
lastChange = "2017-12-19 23:21:51 +0000";
layers = (
{
layerId = UUID0;
paths = (
{
closed = 1;
nodes = (
"170 0 LINE",
"170 457 LINE",
"360 457 LINE",
"360 0 LINE",
"430 0 LINE",
"430 457 LINE",
"620 457 LINE",
"620 0 LINE",
"690 0 LINE",
"690 457 LINE",
"760 457 LINE",
"760 0 LINE",
"830 0 LINE",
"830 520 LINE",
"170 520 LINE",
"170 737 LINE",
"740 737 LINE",
"740 800 LINE",
"501 800 LINE",
"617 918 LINE",
"565 959 LINE",
"432 823 LINE",
"299 959 LINE",
"247 918 LINE",
"362 800 LINE",
"100 800 LINE",
"100 0 LINE"
);
}
);
width = 930;
}
);
unicode = 1064F;
},
{
glyphname = u10650;
lastChange = "2017-12-19 23:21:51 +0000";
layers = (
{
layerId = UUID0;
paths = (
{
closed = 1;
nodes = (
"690 0 LINE",
"690 800 LINE",
"100 800 LINE",
"100 0 LINE"
);
},
{
closed = 1;
nodes = (
"170 508 LINE",
"222 507 OFFCURVE",
"265 462 OFFCURVE",
"265 409 CURVE SMOOTH",
"265 354 OFFCURVE",
"222 311 OFFCURVE",
"170 310 CURVE"
);
},
{
closed = 1;
nodes = (
"170 248 LINE",
"260 249 OFFCURVE",
"333 318 OFFCURVE",
"333 408 CURVE SMOOTH",
"333 498 OFFCURVE",
"260 569 OFFCURVE",
"170 570 CURVE",
"170 737 LINE",
"620 737 LINE",
"620 570 LINE",
"530 569 OFFCURVE",
"457 498 OFFCURVE",
"457 408 CURVE SMOOTH",
"457 318 OFFCURVE",
"530 249 OFFCURVE",
"620 248 CURVE",
"620 63 LINE",
"170 63 LINE"
);
},
{
closed = 1;
nodes = (
"568 311 OFFCURVE",
"525 354 OFFCURVE",
"525 409 CURVE SMOOTH",
"525 462 OFFCURVE",
"568 507 OFFCURVE",
"620 508 CURVE",
"620 310 LINE"
);
}
);
width = 790;
}
);
unicode = 10650;
},
{
glyphname = u10651;
lastChange = "2017-12-19 23:27:40 +0000";
layers = (
{
layerId = UUID0;
paths = (
{
closed = 1;
nodes = (
"407 224 LINE",
"407 287 LINE",
"147 287 LINE",
"147 224 LINE"
);
},
{
closed = 1;
nodes = (
"504 0 LINE",
"504 63 LINE",
"312 63 LINE",
"312 737 LINE",
"504 737 LINE",
"504 800 LINE",
"50 800 LINE",
"50 737 LINE",
"242 737 LINE",
"242 63 LINE",
"50 63 LINE",
"50 0 LINE"
);
},
{
closed = 1;
nodes = (
"407 534 LINE",
"407 597 LINE",
"147 597 LINE",
"147 534 LINE"
);
}
);
width = 554;
}
);
unicode = 10651;
},
{
glyphname = u10652;
lastChange = "2017-12-19 23:21:51 +0000";
layers = (
{
layerId = UUID0;
paths = (
{
closed = 1;
nodes = (
"170 0 LINE",
"655 80 LINE",
"652 140 LINE",
"586 142 OFFCURVE",
"474 184 OFFCURVE",
"474 316 CURVE SMOOTH",
"474 441 OFFCURVE",
"578 477 OFFCURVE",
"621 485 CURVE",
"621 532 LINE",
"529 656 LINE",
"500 626 OFFCURVE",
"448 617 OFFCURVE",
"425 617 CURVE SMOOTH",
"372 617 OFFCURVE",
"340 638 OFFCURVE",
"340 690 CURVE SMOOTH",
"340 800 LINE",
"100 800 LINE",
"100 0 LINE"
);
},
{
closed = 1;
nodes = (
"170 737 LINE",
"270 737 LINE",
"270 695 LINE SMOOTH",
"270 605 OFFCURVE",
"334 555 OFFCURVE",
"425 555 CURVE SMOOTH",
"459 555 OFFCURVE",
"488 563 OFFCURVE",
"510 574 CURVE",
"547 524 LINE",
"447 481 OFFCURVE",
"404 387 OFFCURVE",
"404 311 CURVE SMOOTH",
"404 241 OFFCURVE",
"441 165 OFFCURVE",
"508 120 CURVE",
"170 62 LINE"
);
}
);
width = 705;
}
);
unicode = 10652;
},
{
glyphname = u10653;
lastChange = "2017-12-19 23:21:51 +0000";
layers = (
{
layerId = UUID0;
paths = (
{
closed = 1;
nodes = (
"659 0 LINE",
"911 400 LINE",
"911 460 LINE",
"530 460 LINE",
"530 800 LINE",
"100 800 LINE",
"100 0 LINE"
);
},
{
closed = 1;
nodes = (
"170 397 LINE",
"460 397 LINE",
"460 63 LINE",
"170 63 LINE"
);
},
{
closed = 1;
nodes = (
"530 397 LINE",
"832 397 LINE",
"617 63 LINE",
"530 63 LINE"
);
},
{
closed = 1;
nodes = (
"170 737 LINE",
"460 737 LINE",
"460 460 LINE",
"170 460 LINE"
);
}
);
width = 941;
}
);
unicode = 10653;
},
{
glyphname = u10654;
lastChange = "2017-12-19 23:21:51 +0000";
layers = (
{
layerId = UUID0;
paths = (
{
closed = 1;
nodes = (
"404 -15 OFFCURVE",
"480 122 OFFCURVE",
"484 291 CURVE",
"744 291 LINE",
"753 321 OFFCURVE",
"753 354 OFFCURVE",
"753 367 CURVE SMOOTH",
"753 558 OFFCURVE",
"598 748 OFFCURVE",
"407 748 CURVE SMOOTH",
"215 748 OFFCURVE",
"60 558 OFFCURVE",
"60 367 CURVE SMOOTH",
"60 311 LINE SMOOTH",
"60 132 OFFCURVE",
"136 -15 OFFCURVE",
"276 -15 CURVE SMOOTH"
);
},
{
closed = 1;
nodes = (
"179 42 OFFCURVE",
"127 170 OFFCURVE",
"124 291 CURVE",
"421 291 LINE",
"417 171 OFFCURVE",
"365 42 OFFCURVE",
"276 42 CURVE SMOOTH"
);
},
{
closed = 1;
nodes = (
"130 367 LINE SMOOTH",
"130 519 OFFCURVE",
"254 683 OFFCURVE",
"407 683 CURVE SMOOTH",
"559 683 OFFCURVE",
"683 519 OFFCURVE",
"683 367 CURVE",
"683 354 LINE",
"130 354 LINE"
);
}
);
width = 813;
}
);
unicode = 10654;
},
{
glyphname = u10655;
lastChange = "2017-12-19 23:21:51 +0000";
layers = (
{
layerId = UUID0;
paths = (
{
closed = 1;
nodes = (
"437 310 LINE",
"437 0 LINE",
"507 0 LINE",
"507 800 LINE",
"418 800 LINE SMOOTH",
"217 800 OFFCURVE",
"161 673 OFFCURVE",
"161 585 CURVE SMOOTH",
"161 497 OFFCURVE",
"216 380 OFFCURVE",
"418 380 CURVE SMOOTH",
"422 380 LINE",
"-60 -27 LINE",
"-16 -76 LINE"
);
},
{
closed = 1;
nodes = (
"329 443 OFFCURVE",
"231 480 OFFCURVE",
"231 585 CURVE SMOOTH",
"231 689 OFFCURVE",
"329 737 OFFCURVE",
"407 737 CURVE SMOOTH",
"437 737 LINE",
"437 443 LINE",
"407 443 LINE SMOOTH"
);
}
);
width = 607;
}
);
unicode = 10655;
},
{
glyphname = u10656;
lastChange = "2017-12-19 23:21:51 +0000";
layers = (
{
layerId = UUID0;
paths = (
{
closed = 1;
nodes = (
"534 616 LINE",
"237 788 LINE",
"198 734 LINE",
"439 590 LINE",
"384 501 LINE",
"176 623 LINE",
"137 569 LINE",
"349 443 LINE",
"292 348 LINE",
"89 468 LINE",
"50 414 LINE",
"257 291 LINE",
"90 16 LINE",
"151 -16 LINE"
);
}
);
width = 564;
}
);
unicode = 10656;
},
{
glyphname = u10657;
lastChange = "2017-12-19 23:21:51 +0000";
layers = (
{
layerId = UUID0;
paths = (
{
closed = 1;
nodes = (
"175 0 LINE",
"175 470 LINE",
"105 470 LINE",
"105 0 LINE"
);
},
{
closed = 1;
nodes = (
"176 536 OFFCURVE",
"203 563 OFFCURVE",
"203 597 CURVE SMOOTH",
"203 632 OFFCURVE",
"176 659 OFFCURVE",
"141 659 CURVE SMOOTH",
"107 659 OFFCURVE",
"80 632 OFFCURVE",
"80 597 CURVE SMOOTH",
"80 563 OFFCURVE",
"107 536 OFFCURVE",
"141 536 CURVE SMOOTH"
);
},
{
closed = 1;
nodes = (
"439 482 LINE",
"264 551 LINE",
"241 494 LINE",
"416 420 LINE"
);
},
{
closed = 1;
nodes = (
"452 586 LINE",
"452 649 LINE",
"262 649 LINE",
"262 586 LINE"
);
},
{
closed = 1;
nodes = (
"439 753 LINE",
"416 815 LINE",
"241 741 LINE",
"264 684 LINE"
);
}
);
width = 502;
}
);
unicode = 10657;
},
{
glyphname = u10658;
lastChange = "2017-12-19 23:21:51 +0000";
layers = (
{
layerId = UUID0;
paths = (
{
closed = 1;
nodes = (
"323 0 LINE",
"323 712 LINE",
"478 532 LINE",
"526 575 LINE",
"323 810 LINE",
"253 810 LINE",
"50 575 LINE",
"98 532 LINE",
"253 712 LINE",
"253 0 LINE"
);
}
);
width = 576;
}
);
unicode = 10658;
},
{
glyphname = u10659;
lastChange = "2017-12-19 23:21:51 +0000";
layers = (
{
layerId = UUID0;
paths = (
{
closed = 1;
nodes = (
"468 -15 LINE",
"468 143 LINE",
"398 143 LINE",
"398 94 LINE",
"136 227 LINE",
"430 365 LINE",
"430 435 LINE",
"136 572 LINE",
"398 705 LINE",
"398 657 LINE",
"468 657 LINE",
"468 815 LINE",
"398 815 LINE",
"398 779 LINE",
"50 595 LINE",
"50 538 LINE",
"352 400 LINE",
"50 262 LINE",
"50 205 LINE",
"398 21 LINE",
"398 -15 LINE"
);
}
);
width = 518;
}
);
unicode = 10659;
},
{
glyphname = u1065A;
lastChange = "2017-12-19 23:21:51 +0000";
layers = (
{
layerId = UUID0;
paths = (
{
closed = 1;
nodes = (
"643 0 LINE",
"643 258 OFFCURVE",
"528 465 OFFCURVE",
"460 536 CURVE",
"403 508 LINE",
"490 399 OFFCURVE",
"573 218 OFFCURVE",
"573 0 CURVE"
);
},
{
closed = 1;
nodes = (
"223 0 LINE",
"223 218 OFFCURVE",
"306 399 OFFCURVE",
"393 508 CURVE",
"336 536 LINE",
"268 465 OFFCURVE",
"153 258 OFFCURVE",
"153 0 CURVE"
);
},
{
closed = 1;
nodes = (
"237 513 OFFCURVE",
"280 547 OFFCURVE",
"342 602 CURVE",
"304 648 LINE",
"251 608 OFFCURVE",
"225 575 OFFCURVE",
"172 575 CURVE SMOOTH",
"130 575 OFFCURVE",
"88 610 OFFCURVE",
"88 664 CURVE SMOOTH",
"88 711 OFFCURVE",
"123 753 OFFCURVE",
"172 753 CURVE SMOOTH",
"225 753 OFFCURVE",
"251 720 OFFCURVE",
"304 680 CURVE",
"342 726 LINE",
"280 781 OFFCURVE",
"237 815 OFFCURVE",
"168 815 CURVE SMOOTH",
"84 815 OFFCURVE",
"20 741 OFFCURVE",
"20 665 CURVE SMOOTH",
"20 574 OFFCURVE",
"94 513 OFFCURVE",
"168 513 CURVE SMOOTH"
);
},
{
closed = 1;
nodes = (
"416 634 OFFCURVE",
"435 653 OFFCURVE",
"435 677 CURVE SMOOTH",
"435 701 OFFCURVE",
"416 720 OFFCURVE",
"392 720 CURVE SMOOTH",
"368 720 OFFCURVE",
"349 701 OFFCURVE",
"349 677 CURVE SMOOTH",
"349 653 OFFCURVE",
"368 634 OFFCURVE",
"392 634 CURVE SMOOTH"
);
},
{
closed = 1;
nodes = (
"565 579 LINE",
"486 639 LINE",
"449 592 LINE",
"525 533 LINE"
);
},
{
closed = 1;
nodes = (
"565 749 LINE",
"525 795 LINE",
"449 736 LINE",
"486 689 LINE"
);
}
);
width = 693;
}
);
unicode = 1065A;
},
{
glyphname = u1065B;
lastChange = "2017-12-19 23:21:51 +0000";
layers = (
{
layerId = UUID0;
paths = (
{
closed = 1;
nodes = (
"120 0 LINE",
"120 63 LINE SMOOTH",
"120 136 OFFCURVE",
"129 209 OFFCURVE",
"145 277 CURVE",
"285 277 LINE",
"285 0 LINE",
"355 0 LINE",
"355 277 LINE",
"494 277 LINE",
"510 209 OFFCURVE",
"520 136 OFFCURVE",
"520 63 CURVE SMOOTH",
"520 0 LINE",
"590 0 LINE",
"590 60 LINE SMOOTH",
"590 290 OFFCURVE",
"499 503 OFFCURVE",
"431 597 CURVE",
"520 597 LINE",
"520 660 LINE",
"355 660 LINE",
"355 800 LINE",
"285 800 LINE",
"285 660 LINE",
"120 660 LINE",
"120 597 LINE",
"209 597 LINE",
"141 503 OFFCURVE",
"50 290 OFFCURVE",
"50 60 CURVE SMOOTH",
"50 0 LINE"
);
},
{
closed = 1;
nodes = (
"193 442 OFFCURVE",
"238 531 OFFCURVE",
"285 591 CURVE",
"285 340 LINE",
"162 340 LINE"
);
},
{
closed = 1;
nodes = (
"355 591 LINE",
"401 531 OFFCURVE",
"447 442 OFFCURVE",
"478 340 CURVE",
"355 340 LINE"
);
}
);
width = 640;
}
);
unicode = 1065B;
},
{
glyphname = u1065C;
lastChange = "2017-12-19 23:21:51 +0000";
layers = (
{
layerId = UUID0;
paths = (
{
closed = 1;
nodes = (
"654 65 LINE",
"654 718 LINE",
"599 718 LINE",
"50 428 LINE",
"50 355 LINE",
"599 65 LINE"
);
},
{
closed = 1;
nodes = (
"164 361 LINE",
"584 361 LINE",
"584 144 LINE"
);
},
{
closed = 1;
nodes = (
"584 639 LINE",
"584 424 LINE",
"168 424 LINE"
);
}
);
width = 734;
}
);
unicode = 1065C;
},
{
glyphname = u1065D;
lastChange = "2017-12-19 23:21:51 +0000";
layers = (
{
layerId = UUID0;
paths = (
{
closed = 1;
nodes = (
"631 51 OFFCURVE",
"795 215 OFFCURVE",
"795 418 CURVE SMOOTH",
"795 621 OFFCURVE",
"631 785 OFFCURVE",
"428 785 CURVE SMOOTH",
"224 785 OFFCURVE",
"60 621 OFFCURVE",
"60 418 CURVE SMOOTH",
"60 215 OFFCURVE",
"224 51 OFFCURVE",
"428 51 CURVE SMOOTH"
);
},
{
closed = 1;
nodes = (
"263 116 OFFCURVE",
"130 254 OFFCURVE",
"130 418 CURVE SMOOTH",
"130 582 OFFCURVE",
"263 720 OFFCURVE",
"428 720 CURVE SMOOTH",
"592 720 OFFCURVE",
"725 582 OFFCURVE",
"725 418 CURVE SMOOTH",
"725 254 OFFCURVE",
"592 116 OFFCURVE",
"428 116 CURVE SMOOTH"
);
}
);
width = 855;
}
);
unicode = 1065D;
},
{
glyphname = u1065E;
lastChange = "2017-12-19 23:21:51 +0000";
layers = (
{
layerId = UUID0;
paths = (
{
closed = 1;
nodes = (
"183 54 OFFCURVE",
"280 119 OFFCURVE",
"436 119 CURVE SMOOTH",
"596 119 OFFCURVE",
"695 55 OFFCURVE",
"770 -12 CURVE",
"819 32 LINE",
"759 81 OFFCURVE",
"693 130 OFFCURVE",
"600 158 CURVE",
"723 217 OFFCURVE",
"807 342 OFFCURVE",
"807 488 CURVE SMOOTH",
"807 691 OFFCURVE",
"643 855 OFFCURVE",
"440 855 CURVE SMOOTH",
"236 855 OFFCURVE",
"72 691 OFFCURVE",
"72 488 CURVE SMOOTH",
"72 343 OFFCURVE",
"156 218 OFFCURVE",
"278 158 CURVE",
"186 131 OFFCURVE",
"119 81 OFFCURVE",
"60 32 CURVE",
"109 -12 LINE"
);
},
{
closed = 1;
nodes = (
"275 186 OFFCURVE",
"142 324 OFFCURVE",
"142 488 CURVE SMOOTH",
"142 652 OFFCURVE",
"275 790 OFFCURVE",
"440 790 CURVE SMOOTH",
"604 790 OFFCURVE",
"737 652 OFFCURVE",
"737 488 CURVE SMOOTH",
"737 324 OFFCURVE",
"604 186 OFFCURVE",
"440 186 CURVE SMOOTH"
);
}
);
width = 879;
}
);
unicode = 1065E;
},
{
glyphname = u1065F;
lastChange = "2017-12-19 23:21:51 +0000";
layers = (
{
layerId = UUID0;
paths = (
{
closed = 1;
nodes = (
"631 51 OFFCURVE",
"795 215 OFFCURVE",
"795 418 CURVE SMOOTH",
"795 621 OFFCURVE",
"631 785 OFFCURVE",
"428 785 CURVE SMOOTH",
"224 785 OFFCURVE",
"60 621 OFFCURVE",
"60 418 CURVE SMOOTH",
"60 215 OFFCURVE",
"224 51 OFFCURVE",
"428 51 CURVE SMOOTH"
);
},
{
closed = 1;
nodes = (
"263 116 OFFCURVE",
"130 254 OFFCURVE",
"130 418 CURVE SMOOTH",
"130 582 OFFCURVE",
"263 720 OFFCURVE",
"428 720 CURVE SMOOTH",
"592 720 OFFCURVE",
"725 582 OFFCURVE",
"725 418 CURVE SMOOTH",
"725 254 OFFCURVE",
"592 116 OFFCURVE",
"428 116 CURVE SMOOTH"
);
},
{
closed = 1;
nodes = (
"519 255 OFFCURVE",
"593 325 OFFCURVE",
"593 415 CURVE SMOOTH",
"593 506 OFFCURVE",
"519 577 OFFCURVE",
"428 577 CURVE SMOOTH",
"337 577 OFFCURVE",
"263 506 OFFCURVE",
"263 415 CURVE SMOOTH",
"263 325 OFFCURVE",
"337 255 OFFCURVE",
"428 255 CURVE SMOOTH"
);
},
{
closed = 1;
nodes = (
"373 317 OFFCURVE",
"331 361 OFFCURVE",
"331 416 CURVE SMOOTH",
"331 470 OFFCURVE",
"373 515 OFFCURVE",
"428 515 CURVE SMOOTH",
"481 515 OFFCURVE",
"525 470 OFFCURVE",
"525 416 CURVE SMOOTH",
"525 361 OFFCURVE",
"481 317 OFFCURVE",
"428 317 CURVE SMOOTH"
);
}
);
width = 855;
}
);
unicode = 1065F;
},
{
glyphname = u10660;
lastChange = "2017-12-19 23:21:51 +0000";
layers = (
{
layerId = UUID0;
paths = (
{
closed = 1;
nodes = (
"521 -15 OFFCURVE",
"572 -9 OFFCURVE",
"648 18 CURVE",
"589 239 LINE",
"557 231 OFFCURVE",
"514 229 OFFCURVE",
"475 229 CURVE SMOOTH",
"370 229 OFFCURVE",
"299 308 OFFCURVE",
"299 399 CURVE SMOOTH",
"299 503 OFFCURVE",
"370 571 OFFCURVE",
"475 571 CURVE SMOOTH",
"514 571 OFFCURVE",
"557 569 OFFCURVE",
"589 561 CURVE",
"648 782 LINE",
"572 809 OFFCURVE",
"521 815 OFFCURVE",
"476 815 CURVE SMOOTH",
"244 815 OFFCURVE",
"60 650 OFFCURVE",
"60 400 CURVE SMOOTH",
"60 133 OFFCURVE",
"261 -15 OFFCURVE",
"476 -15 CURVE SMOOTH"
);
},
{
closed = 1;
nodes = (
"377 48 OFFCURVE",
"285 88 OFFCURVE",
"222 156 CURVE",
"314 219 LINE",
"357 185 OFFCURVE",
"412 166 OFFCURVE",
"469 166 CURVE SMOOTH",
"483 166 OFFCURVE",
"518 168 OFFCURVE",
"536 170 CURVE",
"564 60 LINE",
"537 52 OFFCURVE",
"508 48 OFFCURVE",
"478 48 CURVE SMOOTH"
);
},
{
closed = 1;
nodes = (
"150 259 OFFCURVE",
"130 325 OFFCURVE",
"130 400 CURVE SMOOTH",
"130 476 OFFCURVE",
"149 542 OFFCURVE",
"183 596 CURVE",
"271 536 LINE",
"240 491 OFFCURVE",
"229 439 OFFCURVE",
"229 399 CURVE SMOOTH",
"229 346 OFFCURVE",
"245 300 OFFCURVE",
"271 264 CURVE",
"184 204 LINE"
);
},
{
closed = 1;
nodes = (
"221 644 LINE",
"284 712 OFFCURVE",
"375 752 OFFCURVE",
"478 752 CURVE SMOOTH",
"508 752 OFFCURVE",
"537 748 OFFCURVE",
"564 740 CURVE",
"536 630 LINE",
"518 632 OFFCURVE",
"500 634 OFFCURVE",
"486 634 CURVE SMOOTH",
"409 634 OFFCURVE",
"353 612 OFFCURVE",
"314 581 CURVE"
);
}
);
width = 698;
}
);
unicode = 10660;
},
{
glyphname = u10661;
lastChange = "2017-12-19 23:21:51 +0000";
layers = (
{
layerId = UUID0;
paths = (
{
closed = 1;
nodes = (
"381 126 OFFCURVE",
"455 196 OFFCURVE",
"455 286 CURVE SMOOTH",
"455 377 OFFCURVE",
"381 433 OFFCURVE",
"290 433 CURVE SMOOTH",
"268 433 OFFCURVE",
"247 429 OFFCURVE",
"228 421 CURVE",
"253 364 LINE",
"264 369 OFFCURVE",
"277 371 OFFCURVE",
"290 371 CURVE SMOOTH",
"343 371 OFFCURVE",
"387 341 OFFCURVE",
"387 287 CURVE SMOOTH",
"387 232 OFFCURVE",
"343 188 OFFCURVE",
"290 188 CURVE SMOOTH",
"170 188 OFFCURVE",
"130 312 OFFCURVE",
"130 398 CURVE SMOOTH",
"130 562 OFFCURVE",
"255 750 OFFCURVE",
"470 750 CURVE SMOOTH",
"535 750 LINE SMOOTH",
"750 750 OFFCURVE",
"875 562 OFFCURVE",
"875 398 CURVE SMOOTH",
"875 312 OFFCURVE",
"835 188 OFFCURVE",
"715 188 CURVE SMOOTH",
"662 188 OFFCURVE",
"618 232 OFFCURVE",
"618 287 CURVE SMOOTH",
"618 341 OFFCURVE",
"662 371 OFFCURVE",
"715 371 CURVE SMOOTH",
"728 371 OFFCURVE",
"741 369 OFFCURVE",
"752 364 CURVE",
"777 421 LINE",
"758 429 OFFCURVE",
"737 433 OFFCURVE",
"715 433 CURVE SMOOTH",
"624 433 OFFCURVE",
"550 377 OFFCURVE",
"550 286 CURVE SMOOTH",
"550 196 OFFCURVE",
"624 126 OFFCURVE",
"715 126 CURVE SMOOTH",
"855 126 OFFCURVE",
"945 225 OFFCURVE",
"945 398 CURVE SMOOTH",
"945 601 OFFCURVE",
"782 815 OFFCURVE",
"535 815 CURVE SMOOTH",
"470 815 LINE SMOOTH",
"223 815 OFFCURVE",
"60 601 OFFCURVE",
"60 398 CURVE SMOOTH",
"60 225 OFFCURVE",
"150 126 OFFCURVE",
"290 126 CURVE SMOOTH"
);
}
);
width = 1005;
}
);
unicode = 10661;
},
{
glyphname = u10662;
lastChange = "2017-12-19 23:21:51 +0000";
layers = (
{
layerId = UUID0;
paths = (
{
closed = 1;
nodes = (
"514 0 LINE",
"514 63 LINE",
"367 63 LINE",
"367 192 LINE",
"614 192 LINE",
"614 252 LINE",
"374 815 LINE",
"290 815 LINE",
"50 252 LINE",
"50 192 LINE",
"297 192 LINE",
"297 63 LINE",
"150 63 LINE",
"150 0 LINE"
);
},
{
closed = 1;
nodes = (
"332 753 LINE",
"546 255 LINE",
"118 255 LINE"
);
}
);
width = 664;
}
);
unicode = 10662;
},
{
glyphname = u10663;
lastChange = "2017-12-19 23:21:51 +0000";
layers = (
{
layerId = UUID0;
paths = (
{
closed = 1;
nodes = (
"476 256 LINE",
"181 550 LINE",
"200 562 OFFCURVE",
"223 569 OFFCURVE",
"247 569 CURVE SMOOTH",
"269 569 OFFCURVE",
"293 562 OFFCURVE",
"315 544 CURVE",
"359 588 LINE",
"318 620 OFFCURVE",
"277 634 OFFCURVE",
"238 634 CURVE SMOOTH",
"139 634 OFFCURVE",
"50 545 OFFCURVE",
"50 449 CURVE SMOOTH",
"50 406 OFFCURVE",
"66 362 OFFCURVE",
"96 325 CURVE",
"140 369 LINE",
"123 387 OFFCURVE",
"116 411 OFFCURVE",
"116 436 CURVE SMOOTH",
"116 461 OFFCURVE",
"123 486 OFFCURVE",
"136 506 CURVE",
"432 211 LINE"
);
}
);
width = 526;
}
);
unicode = 10663;
},
{
glyphname = u10664;
lastChange = "2017-12-19 23:21:51 +0000";
layers = (
{
layerId = UUID0;
paths = (
{
closed = 1;
nodes = (
"466 238 OFFCURVE",
"539 310 OFFCURVE",
"539 407 CURVE SMOOTH",
"539 498 OFFCURVE",
"488 585 OFFCURVE",
"368 599 CURVE",
"368 537 LINE",
"425 530 OFFCURVE",
"455 490 OFFCURVE",
"466 447 CURVE",
"50 447 LINE",
"50 384 LINE",
"468 384 LINE",
"457 337 OFFCURVE",
"417 290 OFFCURVE",
"368 289 CURVE",
"368 227 LINE"
);
}
);
width = 589;
}
);
unicode = 10664;
},
{
glyphname = u10665;
lastChange = "2017-12-19 23:21:51 +0000";
layers = (
{
layerId = UUID0;
paths = (
{
closed = 1;
nodes = (
"387 211 OFFCURVE",
"476 300 OFFCURVE",
"476 396 CURVE SMOOTH",
"476 439 OFFCURVE",
"460 483 OFFCURVE",
"430 520 CURVE",
"386 476 LINE",
"403 458 OFFCURVE",
"410 434 OFFCURVE",
"410 409 CURVE SMOOTH",
"410 383 OFFCURVE",
"402 359 OFFCURVE",
"389 338 CURVE",
"94 634 LINE",
"50 589 LINE",
"344 294 LINE",
"325 283 OFFCURVE",
"303 276 OFFCURVE",
"279 276 CURVE SMOOTH",
"257 276 OFFCURVE",
"233 283 OFFCURVE",
"211 301 CURVE",
"167 257 LINE",
"208 225 OFFCURVE",
"249 211 OFFCURVE",
"288 211 CURVE SMOOTH"
);
}
);
width = 526;
}
);
unicode = 10665;
},
{
glyphname = u10666;
lastChange = "2017-12-19 23:21:51 +0000";
layers = (
{
layerId = UUID0;
paths = (
{
closed = 1;
nodes = (
"392 0 LINE",
"470 183 OFFCURVE",
"763 350 OFFCURVE",
"763 610 CURVE SMOOTH",
"763 664 OFFCURVE",
"737 815 OFFCURVE",
"566 857 CURVE",
"546 803 LINE",
"671 769 OFFCURVE",
"693 670 OFFCURVE",
"693 610 CURVE SMOOTH",
"693 399 OFFCURVE",
"442 213 OFFCURVE",
"340 62 CURVE",
"304 62 OFFCURVE",
"290 78 OFFCURVE",
"290 103 CURVE SMOOTH",
"290 287 OFFCURVE",
"558 395 OFFCURVE",
"558 624 CURVE SMOOTH",
"558 738 OFFCURVE",
"478 801 OFFCURVE",
"329 824 CURVE",
"318 766 LINE",
"429 751 OFFCURVE",
"488 707 OFFCURVE",
"488 624 CURVE SMOOTH",
"488 422 OFFCURVE",
"220 322 OFFCURVE",
"220 103 CURVE SMOOTH",
"220 90 OFFCURVE",
"220 78 OFFCURVE",
"221 66 CURVE",
"160 74 OFFCURVE",
"120 104 OFFCURVE",
"120 174 CURVE SMOOTH",
"120 327 OFFCURVE",
"318 375 OFFCURVE",
"318 604 CURVE SMOOTH",
"318 744 OFFCURVE",
"226 794 OFFCURVE",
"90 806 CURVE",
"77 747 LINE",
"188 740 OFFCURVE",
"248 701 OFFCURVE",
"248 604 CURVE SMOOTH",
"248 402 OFFCURVE",
"50 350 OFFCURVE",
"50 165 CURVE SMOOTH",
"50 46 OFFCURVE",
"135 0 OFFCURVE",
"263 0 CURVE"
);
}
);
width = 813;
}
);
unicode = 10666;
},
{
glyphname = u10667;
lastChange = "2017-12-19 23:21:51 +0000";
layers = (
{
layerId = UUID0;
paths = (
{
closed = 1;
nodes = (
"269 -15 OFFCURVE",
"349 32 OFFCURVE",
"446 170 CURVE",
"387 198 LINE",
"319 93 OFFCURVE",
"244 49 OFFCURVE",
"191 49 CURVE SMOOTH",
"149 49 OFFCURVE",
"120 77 OFFCURVE",
"120 125 CURVE SMOOTH",
"120 181 OFFCURVE",
"155 254 OFFCURVE",
"178 299 CURVE SMOOTH",
"250 439 LINE",
"378 360 LINE",
"410 414 LINE",
"279 495 LINE",
"430 786 LINE",
"365 815 LINE",
"220 532 LINE",
"116 597 LINE",
"84 543 LINE",
"192 476 LINE",
"117 329 LINE SMOOTH",
"90 276 OFFCURVE",
"50 194 OFFCURVE",
"50 125 CURVE SMOOTH",
"50 47 OFFCURVE",
"108 -15 OFFCURVE",
"194 -15 CURVE SMOOTH"
);
}
);
width = 476;
}
);
unicode = 10667;
},
{
glyphname = u10668;
lastChange = "2017-12-19 23:21:51 +0000";
layers = (
{
layerId = UUID0;
paths = (
{
closed = 1;
nodes = (
"160 0 LINE",
"160 567 LINE",
"521 567 LINE",
"521 630 LINE",
"50 630 LINE",
"50 567 LINE",
"90 567 LINE",
"90 0 LINE"
);
},
{
closed = 1;
nodes = (
"376 402 LINE",
"253 525 LINE",
"207 479 LINE",
"331 357 LINE"
);
},
{
closed = 1;
nodes = (
"556 402 LINE",
"433 525 LINE",
"387 479 LINE",
"511 357 LINE"
);
},
{
closed = 1;
nodes = (
"376 780 LINE",
"331 825 LINE",
"207 703 LINE",
"253 657 LINE"
);
},
{
closed = 1;
nodes = (
"556 780 LINE",
"511 825 LINE",
"387 703 LINE",
"433 657 LINE"
);
}
);
width = 586;
}
);
unicode = 10668;
},
{
glyphname = u10669;
lastChange = "2017-12-19 23:21:51 +0000";
layers = (
{
layerId = UUID0;
paths = (
{
closed = 1;
nodes = (
"380 0 LINE",
"380 330 LINE",
"640 330 LINE",
"640 620 LINE",
"380 620 LINE",
"380 800 LINE",
"310 800 LINE",
"310 620 LINE",
"50 620 LINE",
"50 330 LINE",
"310 330 LINE",
"310 0 LINE"
);
},
{
closed = 1;
nodes = (
"120 557 LINE",
"310 557 LINE",
"310 393 LINE",
"120 393 LINE"
);
},
{
closed = 1;
nodes = (
"380 557 LINE",
"570 557 LINE",
"570 393 LINE",
"380 393 LINE"
);
}
);
width = 690;
}
);
unicode = 10669;
},
{
glyphname = u1066A;
lastChange = "2017-12-19 23:21:51 +0000";
layers = (
{
layerId = UUID0;
paths = (
{
closed = 1;
nodes = (
"340 345 LINE",
"575 -7 LINE",
"631 28 LINE",
"380 405 LINE",
"601 737 LINE",
"601 800 LINE",
"80 800 LINE",
"80 737 LINE",
"301 405 LINE",
"50 28 LINE",
"106 -7 LINE"
);
},
{
closed = 1;
nodes = (
"159 737 LINE",
"521 737 LINE",
"340 464 LINE"
);
}
);
width = 681;
}
);
unicode = 1066A;
},
{
glyphname = u1066B;
lastChange = "2017-12-19 23:21:51 +0000";
layers = (
{
layerId = UUID0;
paths = (
{
closed = 1;
nodes = (
"504 0 LINE",
"504 63 LINE",
"312 63 LINE",
"312 737 LINE",
"504 737 LINE",
"504 800 LINE",
"50 800 LINE",
"50 737 LINE",
"242 737 LINE",
"242 63 LINE",
"50 63 LINE",
"50 0 LINE"
);
}
);
width = 554;
}
);
unicode = 1066B;
},
{
glyphname = u1066C;
lastChange = "2017-12-19 23:21:51 +0000";
layers = (
{
layerId = UUID0;
paths = (
{
closed = 1;
nodes = (
"255 389 LINE",
"273 385 OFFCURVE",
"291 384 OFFCURVE",
"311 384 CURVE SMOOTH",
"331 384 OFFCURVE",
"350 386 OFFCURVE",
"368 389 CURVE",
"531 -7 LINE",
"594 21 LINE",
"432 410 LINE",
"507 446 OFFCURVE",
"554 516 OFFCURVE",
"554 599 CURVE SMOOTH",
"554 721 OFFCURVE",
"454 815 OFFCURVE",
"311 815 CURVE SMOOTH",
"170 815 OFFCURVE",
"70 721 OFFCURVE",
"70 599 CURVE SMOOTH",
"70 516 OFFCURVE",
"117 446 OFFCURVE",
"191 410 CURVE",
"30 21 LINE",
"93 -7 LINE"
);
},
{
closed = 1;
nodes = (
"205 449 OFFCURVE",
"140 516 OFFCURVE",
"140 599 CURVE SMOOTH",
"140 684 OFFCURVE",
"205 750 OFFCURVE",
"310 750 CURVE SMOOTH",
"414 750 OFFCURVE",
"484 684 OFFCURVE",
"484 599 CURVE SMOOTH",
"484 516 OFFCURVE",
"414 449 OFFCURVE",
"310 449 CURVE SMOOTH"
);
}
);
width = 624;
}
);
unicode = 1066C;
},
{
glyphname = u1066D;
lastChange = "2017-12-19 23:21:51 +0000";
layers = (
{
layerId = UUID0;
paths = (
{
closed = 1;
nodes = (
"645 0 LINE",
"645 63 LINE",
"515 63 LINE",
"515 350 LINE",
"644 350 LINE SMOOTH",
"726 350 OFFCURVE",
"761 406 OFFCURVE",
"775 470 CURVE",
"845 470 LINE",
"845 437 LINE",
"910 437 LINE",
"910 558 LINE",
"845 558 LINE",
"845 527 LINE",
"783 527 LINE",
"784 539 OFFCURVE",
"784 551 OFFCURVE",
"784 563 CURVE SMOOTH",
"784 580 OFFCURVE",
"781 599 OFFCURVE",
"775 620 CURVE",
"845 620 LINE",
"845 587 LINE",
"910 587 LINE",
"910 708 LINE",
"845 708 LINE",
"845 677 LINE",
"750 677 LINE",
"708 748 OFFCURVE",
"624 815 OFFCURVE",
"480 815 CURVE SMOOTH",
"372 815 OFFCURVE",
"260 765 OFFCURVE",
"207 677 CURVE",
"115 677 LINE",
"115 708 LINE",
"50 708 LINE",
"50 587 LINE",
"115 587 LINE",
"115 620 LINE",
"183 620 LINE",
"179 602 OFFCURVE",
"176 583 OFFCURVE",
"176 563 CURVE SMOOTH",
"176 551 OFFCURVE",
"176 539 OFFCURVE",
"177 527 CURVE",
"115 527 LINE",
"115 558 LINE",
"50 558 LINE",
"50 437 LINE",
"115 437 LINE",
"115 470 LINE",
"184 470 LINE",
"198 406 OFFCURVE",
"234 350 OFFCURVE",
"316 350 CURVE SMOOTH",
"445 350 LINE",
"445 63 LINE",
"315 63 LINE",
"315 0 LINE"
);
},
{
closed = 1;
nodes = (
"286 413 OFFCURVE",
"268 431 OFFCURVE",
"257 470 CURVE",
"366 470 LINE",
"366 527 LINE",
"247 527 LINE",
"246 538 OFFCURVE",
"246 550 OFFCURVE",
"246 563 CURVE SMOOTH",
"246 582 OFFCURVE",
"249 602 OFFCURVE",
"255 620 CURVE",
"366 620 LINE",
"366 677 LINE",
"287 677 LINE",
"325 721 OFFCURVE",
"389 750 OFFCURVE",
"480 750 CURVE SMOOTH",
"571 750 OFFCURVE",
"635 721 OFFCURVE",
"673 677 CURVE",
"594 677 LINE",
"594 620 LINE",
"705 620 LINE",
"711 602 OFFCURVE",
"714 582 OFFCURVE",
"714 563 CURVE SMOOTH",
"714 550 OFFCURVE",
"713 538 OFFCURVE",
"712 527 CURVE",
"594 527 LINE",
"594 470 LINE",
"703 470 LINE",
"691 431 OFFCURVE",
"673 413 OFFCURVE",
"657 413 CURVE SMOOTH",
"515 413 LINE",
"515 527 LINE",
"445 527 LINE",
"445 413 LINE",
"303 413 LINE SMOOTH"
);
},
{
closed = 1;
nodes = (
"515 610 LINE",
"515 717 LINE",
"445 717 LINE",
"445 610 LINE"
);
}
);
width = 960;
}
);
unicode = 1066D;
},
{
glyphname = u1066E;
lastChange = "2017-12-19 23:21:51 +0000";
layers = (
{
layerId = UUID0;
paths = (
{
closed = 1;
nodes = (
"651 -15 OFFCURVE",
"845 59 OFFCURVE",
"845 232 CURVE SMOOTH",
"845 330 OFFCURVE",
"782 397 OFFCURVE",
"690 436 CURVE",
"699 476 OFFCURVE",
"704 517 OFFCURVE",
"704 577 CURVE SMOOTH",
"704 708 OFFCURVE",
"617 815 OFFCURVE",
"486 815 CURVE SMOOTH",
"257 815 OFFCURVE",
"269 602 OFFCURVE",
"194 431 CURVE",
"108 392 OFFCURVE",
"50 326 OFFCURVE",
"50 232 CURVE SMOOTH",
"50 59 OFFCURVE",
"244 -15 OFFCURVE",
"448 -15 CURVE SMOOTH"
);
},
{
closed = 1;
nodes = (
"283 50 OFFCURVE",
"120 98 OFFCURVE",
"120 232 CURVE SMOOTH",
"120 366 OFFCURVE",
"283 414 OFFCURVE",
"448 414 CURVE SMOOTH",
"612 414 OFFCURVE",
"775 366 OFFCURVE",
"775 232 CURVE SMOOTH",
"775 98 OFFCURVE",
"612 50 OFFCURVE",
"448 50 CURVE SMOOTH"
);
},
{
closed = 1;
nodes = (
"570 472 OFFCURVE",
"509 479 OFFCURVE",
"448 479 CURVE SMOOTH",
"389 479 OFFCURVE",
"331 473 OFFCURVE",
"279 460 CURVE",
"322 587 OFFCURVE",
"324 750 OFFCURVE",
"486 750 CURVE SMOOTH",
"581 750 OFFCURVE",
"634 674 OFFCURVE",
"634 578 CURVE SMOOTH",
"634 543 OFFCURVE",
"631 495 OFFCURVE",
"625 458 CURVE"
);
}
);
width = 895;
}
);
unicode = 1066E;
},
{
glyphname = u1066F;
lastChange = "2017-12-19 23:21:51 +0000";
layers = (
{
layerId = UUID0;
paths = (
{
closed = 1;
nodes = (
"590 0 LINE",
"590 60 LINE SMOOTH",
"590 311 OFFCURVE",
"493 554 OFFCURVE",
"355 619 CURVE",
"355 800 LINE",
"285 800 LINE",
"285 619 LINE",
"147 554 OFFCURVE",
"50 311 OFFCURVE",
"50 60 CURVE SMOOTH",
"50 0 LINE"
);
},
{
closed = 1;
nodes = (
"120 269 OFFCURVE",
"182 467 OFFCURVE",
"285 547 CURVE",
"285 63 LINE",
"120 63 LINE"
);
},
{
closed = 1;
nodes = (
"355 547 LINE",
"458 467 OFFCURVE",
"520 269 OFFCURVE",
"520 63 CURVE",
"355 63 LINE"
);
}
);
width = 640;
}
);
unicode = 1066F;
},
{
glyphname = u10670;
lastChange = "2017-12-19 23:21:51 +0000";
layers = (
{
layerId = UUID0;
paths = (
{
closed = 1;
nodes = (
"228 247 LINE",
"483 247 LINE",
"439 162 LINE",
"504 133 LINE",
"752 619 LINE",
"691 649 LINE",
"634 540 LINE",
"376 540 LINE",
"394 583 OFFCURVE",
"410 631 OFFCURVE",
"410 675 CURVE SMOOTH",
"410 753 OFFCURVE",
"352 815 OFFCURVE",
"266 815 CURVE SMOOTH",
"205 815 OFFCURVE",
"141 784 OFFCURVE",
"67 699 CURVE",
"112 655 LINE",
"169 722 OFFCURVE",
"226 751 OFFCURVE",
"269 751 CURVE SMOOTH",
"311 751 OFFCURVE",
"340 723 OFFCURVE",
"340 675 CURVE SMOOTH",
"340 619 OFFCURVE",
"305 546 OFFCURVE",
"282 501 CURVE SMOOTH",
"30 14 LINE",
"95 -15 LINE"
);
},
{
closed = 1;
nodes = (
"346 477 LINE",
"602 477 LINE",
"515 310 LINE",
"260 310 LINE"
);
}
);
width = 782;
}
);
unicode = 10670;
},
{
glyphname = u10671;
lastChange = "2017-12-19 23:27:40 +0000";
layers = (
{
layerId = UUID0;
paths = (
{
closed = 1;
nodes = (
"323 0 LINE",
"323 360 LINE",
"253 360 LINE",
"253 0 LINE"
);
},
{
closed = 1;
nodes = (
"418 342 OFFCURVE",
"525 446 OFFCURVE",
"525 577 CURVE SMOOTH",
"525 708 OFFCURVE",
"418 815 OFFCURVE",
"287 815 CURVE SMOOTH",
"156 815 OFFCURVE",
"50 708 OFFCURVE",
"50 577 CURVE SMOOTH",
"50 446 OFFCURVE",
"156 342 OFFCURVE",
"287 342 CURVE SMOOTH"
);
},
{
closed = 1;
nodes = (
"193 407 OFFCURVE",
"120 482 OFFCURVE",
"120 578 CURVE SMOOTH",
"120 674 OFFCURVE",
"193 750 OFFCURVE",
"287 750 CURVE SMOOTH",
"382 750 OFFCURVE",
"455 674 OFFCURVE",
"455 578 CURVE SMOOTH",
"455 482 OFFCURVE",
"382 407 OFFCURVE",
"287 407 CURVE SMOOTH"
);
},
{
closed = 1;
nodes = (
"453 0 LINE",
"453 63 LINE",
"123 63 LINE",
"123 0 LINE"
);
}
);
width = 575;
}
);
unicode = 10671;
},
{
glyphname = u10672;
lastChange = "2017-12-19 23:27:40 +0000";
layers = (
{
layerId = UUID0;
paths = (
{
closed = 1;
nodes = (
"323 0 LINE",
"323 800 LINE",
"253 800 LINE",
"253 0 LINE"
);
},
{
closed = 1;
nodes = (
"418 342 OFFCURVE",
"525 446 OFFCURVE",
"525 577 CURVE SMOOTH",
"525 708 OFFCURVE",
"418 815 OFFCURVE",
"287 815 CURVE SMOOTH",
"156 815 OFFCURVE",
"50 708 OFFCURVE",
"50 577 CURVE SMOOTH",
"50 446 OFFCURVE",
"156 342 OFFCURVE",
"287 342 CURVE SMOOTH"
);
},
{
closed = 1;
nodes = (
"193 407 OFFCURVE",
"120 482 OFFCURVE",
"120 578 CURVE SMOOTH",
"120 674 OFFCURVE",
"193 750 OFFCURVE",
"287 750 CURVE SMOOTH",
"382 750 OFFCURVE",
"455 674 OFFCURVE",
"455 578 CURVE SMOOTH",
"455 482 OFFCURVE",
"382 407 OFFCURVE",
"287 407 CURVE SMOOTH"
);
}
);
width = 575;
}
);
unicode = 10672;
},
{
glyphname = u10673;
lastChange = "2017-12-19 23:21:51 +0000";
layers = (
{
layerId = UUID0;
paths = (
{
closed = 1;
nodes = (
"170 0 LINE",
"170 147 LINE",
"708 147 LINE",
"708 645 LINE",
"170 645 LINE",
"170 800 LINE",
"100 800 LINE",
"100 0 LINE"
);
},
{
closed = 1;
nodes = (
"170 292 LINE",
"373 292 LINE",
"373 210 LINE",
"170 210 LINE"
);
},
{
closed = 1;
nodes = (
"170 437 LINE",
"373 437 LINE",
"373 355 LINE",
"170 355 LINE"
);
},
{
closed = 1;
nodes = (
"438 292 LINE",
"638 292 LINE",
"638 210 LINE",
"438 210 LINE"
);
},
{
closed = 1;
nodes = (
"170 582 LINE",
"373 582 LINE",
"373 500 LINE",
"170 500 LINE"
);
},
{
closed = 1;
nodes = (
"438 437 LINE",
"638 437 LINE",
"638 355 LINE",
"438 355 LINE"
);
},
{
closed = 1;
nodes = (
"438 582 LINE",
"638 582 LINE",
"638 500 LINE",
"438 500 LINE"
);
}
);
width = 788;
}
);
unicode = 10673;
},
{
glyphname = u10674;
lastChange = "2017-12-19 23:21:51 +0000";
layers = (
{
layerId = UUID0;
paths = (
{
closed = 1;
nodes = (
"382 0 LINE",
"382 737 LINE",
"464 737 LINE",
"464 800 LINE",
"230 800 LINE",
"230 737 LINE",
"312 737 LINE",
"312 0 LINE"
);
},
{
closed = 1;
nodes = (
"308 447 LINE",
"155 610 LINE",
"193 646 LINE",
"149 692 LINE",
"20 571 LINE",
"63 525 LINE",
"104 563 LINE",
"258 399 LINE"
);
},
{
closed = 1;
nodes = (
"590 563 LINE",
"631 525 LINE",
"674 571 LINE",
"545 692 LINE",
"501 646 LINE",
"539 610 LINE",
"386 447 LINE",
"436 399 LINE"
);
}
);
width = 694;
}
);
unicode = 10674;
},
{
glyphname = u10675;
lastChange = "2017-12-19 23:21:51 +0000";
layers = (
{
layerId = UUID0;
paths = (
{
closed = 1;
nodes = (
"250 0 LINE",
"250 496 LINE",
"286 504 OFFCURVE",
"318 523 OFFCURVE",
"341 549 CURVE",
"547 508 LINE",
"560 570 LINE",
"373 607 LINE",
"377 621 OFFCURVE",
"380 637 OFFCURVE",
"380 653 CURVE SMOOTH",
"380 672 OFFCURVE",
"376 691 OFFCURVE",
"370 709 CURVE",
"560 747 LINE",
"547 809 LINE",
"333 766 LINE",
"303 796 OFFCURVE",
"261 815 OFFCURVE",
"215 815 CURVE SMOOTH",
"124 815 OFFCURVE",
"50 744 OFFCURVE",
"50 653 CURVE SMOOTH",
"50 575 OFFCURVE",
"106 512 OFFCURVE",
"180 496 CURVE",
"180 0 LINE"
);
},
{
closed = 1;
nodes = (
"160 555 OFFCURVE",
"118 599 OFFCURVE",
"118 654 CURVE SMOOTH",
"118 708 OFFCURVE",
"160 753 OFFCURVE",
"215 753 CURVE SMOOTH",
"268 753 OFFCURVE",
"312 708 OFFCURVE",
"312 654 CURVE SMOOTH",
"312 599 OFFCURVE",
"268 555 OFFCURVE",
"215 555 CURVE SMOOTH"
);
}
);
width = 590;
}
);
unicode = 10675;
},
{
glyphname = u10676;
lastChange = "2017-12-19 23:21:51 +0000";
layers = (
{
layerId = UUID0;
paths = (
{
closed = 1;
nodes = (
"326 349 LINE",
"553 147 LINE",
"1172 147 LINE",
"1172 210 LINE",
"894 400 LINE",
"1122 582 LINE",
"1122 645 LINE",
"553 645 LINE",
"326 443 LINE",
"76 666 LINE",
"30 613 LINE",
"277 396 LINE",
"30 180 LINE",
"76 127 LINE"
);
},
{
closed = 1;
nodes = (
"373 396 LINE",
"553 551 LINE",
"553 242 LINE"
);
},
{
closed = 1;
nodes = (
"623 582 LINE",
"1025 582 LINE",
"829 429 LINE",
"829 367 LINE",
"1066 210 LINE",
"623 210 LINE"
);
}
);
width = 1222;
}
);
unicode = 10676;
},
{
glyphname = u10677;
lastChange = "2017-12-19 23:21:51 +0000";
layers = (
{
layerId = UUID0;
paths = (
{
closed = 1;
nodes = (
"150 0 LINE",
"150 357 LINE",
"340 357 LINE",
"340 0 LINE",
"410 0 LINE",
"410 357 LINE",
"600 357 LINE",
"600 0 LINE",
"670 0 LINE",
"670 800 LINE",
"80 800 LINE",
"80 0 LINE"
);
},
{
closed = 1;
nodes = (
"269 151 OFFCURVE",
"288 170 OFFCURVE",
"288 194 CURVE SMOOTH",
"288 218 OFFCURVE",
"269 237 OFFCURVE",
"245 237 CURVE SMOOTH",
"221 237 OFFCURVE",
"202 218 OFFCURVE",
"202 194 CURVE SMOOTH",
"202 170 OFFCURVE",
"221 151 OFFCURVE",
"245 151 CURVE SMOOTH"
);
},
{
closed = 1;
nodes = (
"529 151 OFFCURVE",
"548 170 OFFCURVE",
"548 194 CURVE SMOOTH",
"548 218 OFFCURVE",
"529 237 OFFCURVE",
"505 237 CURVE SMOOTH",
"481 237 OFFCURVE",
"462 218 OFFCURVE",
"462 194 CURVE SMOOTH",
"462 170 OFFCURVE",
"481 151 OFFCURVE",
"505 151 CURVE SMOOTH"
);
},
{
closed = 1;
nodes = (
"150 737 LINE",
"340 737 LINE",
"340 420 LINE",
"150 420 LINE"
);
},
{
closed = 1;
nodes = (
"269 541 OFFCURVE",
"288 560 OFFCURVE",
"288 584 CURVE SMOOTH",
"288 608 OFFCURVE",
"269 627 OFFCURVE",
"245 627 CURVE SMOOTH",
"221 627 OFFCURVE",
"202 608 OFFCURVE",
"202 584 CURVE SMOOTH",
"202 560 OFFCURVE",
"221 541 OFFCURVE",
"245 541 CURVE SMOOTH"
);
},
{
closed = 1;
nodes = (
"410 737 LINE",
"600 737 LINE",
"600 420 LINE",
"410 420 LINE"
);
},
{
closed = 1;
nodes = (
"529 541 OFFCURVE",
"548 560 OFFCURVE",
"548 584 CURVE SMOOTH",
"548 608 OFFCURVE",
"529 627 OFFCURVE",
"505 627 CURVE SMOOTH",
"481 627 OFFCURVE",
"462 608 OFFCURVE",
"462 584 CURVE SMOOTH",
"462 560 OFFCURVE",
"481 541 OFFCURVE",
"505 541 CURVE SMOOTH"
);
}
);
width = 750;
}
);
unicode = 10677;
},
{
glyphname = u10678;
lastChange = "2017-12-19 23:21:51 +0000";
layers = (
{
layerId = UUID0;
paths = (
{
closed = 1;
nodes = (
"484 616 LINE",
"187 788 LINE",
"148 734 LINE",
"389 590 LINE",
"312 464 LINE",
"97 591 LINE",
"58 537 LINE",
"277 407 LINE",
"40 16 LINE",
"101 -16 LINE"
);
}
);
width = 524;
}
);
unicode = 10678;
},
{
glyphname = u10679;
lastChange = "2017-12-19 23:21:51 +0000";
layers = (
{
layerId = UUID0;
paths = (
{
closed = 1;
nodes = (
"344 0 LINE",
"344 290 LINE",
"518 290 LINE",
"518 353 LINE",
"380 353 LINE",
"476 383 OFFCURVE",
"546 471 OFFCURVE",
"546 577 CURVE SMOOTH",
"546 618 OFFCURVE",
"535 656 OFFCURVE",
"517 690 CURVE",
"607 780 LINE",
"562 825 LINE",
"478 742 LINE",
"435 787 OFFCURVE",
"375 815 OFFCURVE",
"308 815 CURVE SMOOTH",
"241 815 OFFCURVE",
"181 787 OFFCURVE",
"138 743 CURVE",
"55 825 LINE",
"10 780 LINE",
"99 690 LINE",
"81 656 OFFCURVE",
"71 618 OFFCURVE",
"71 577 CURVE SMOOTH",
"71 471 OFFCURVE",
"140 383 OFFCURVE",
"236 353 CURVE",
"98 353 LINE",
"98 290 LINE",
"274 290 LINE",
"274 0 LINE"
);
},
{
closed = 1;
nodes = (
"214 407 OFFCURVE",
"141 482 OFFCURVE",
"141 578 CURVE SMOOTH",
"141 674 OFFCURVE",
"214 750 OFFCURVE",
"308 750 CURVE SMOOTH",
"403 750 OFFCURVE",
"476 674 OFFCURVE",
"476 578 CURVE SMOOTH",
"476 482 OFFCURVE",
"403 407 OFFCURVE",
"308 407 CURVE SMOOTH"
);
}
);
width = 617;
}
);
unicode = 10679;
},
{
glyphname = u1067A;
lastChange = "2017-12-19 23:21:51 +0000";
layers = (
{
layerId = UUID0;
paths = (
{
closed = 1;
nodes = (
"380 0 LINE",
"380 63 LINE",
"227 63 LINE",
"380 363 LINE",
"591 363 LINE",
"591 426 LINE",
"412 426 LINE",
"428 456 LINE SMOOTH",
"439 477 OFFCURVE",
"451 502 OFFCURVE",
"462 529 CURVE",
"625 613 LINE",
"595 670 LINE",
"490 615 LINE",
"493 630 OFFCURVE",
"495 645 OFFCURVE",
"495 660 CURVE SMOOTH",
"495 675 OFFCURVE",
"493 690 OFFCURVE",
"488 704 CURVE",
"591 807 LINE",
"546 852 LINE",
"453 761 LINE",
"428 785 OFFCURVE",
"393 800 OFFCURVE",
"351 800 CURVE SMOOTH",
"290 800 OFFCURVE",
"226 769 OFFCURVE",
"152 684 CURVE",
"197 640 LINE",
"254 707 OFFCURVE",
"311 736 OFFCURVE",
"354 736 CURVE SMOOTH",
"396 736 OFFCURVE",
"425 708 OFFCURVE",
"425 660 CURVE SMOOTH",
"425 604 OFFCURVE",
"390 531 OFFCURVE",
"367 486 CURVE SMOOTH",
"336 426 LINE",
"227 426 LINE",
"304 503 LINE",
"259 548 LINE",
"134 426 LINE",
"134 363 LINE",
"303 363 LINE",
"148 63 LINE",
"50 63 LINE",
"50 0 LINE"
);
}
);
width = 675;
}
);
unicode = 1067A;
},
{
glyphname = u1067B;
lastChange = "2017-12-19 23:21:51 +0000";
layers = (
{
layerId = UUID0;
paths = (
{
closed = 1;
nodes = (
"150 560 LINE",
"150 737 LINE",
"610 737 LINE",
"610 560 LINE",
"680 560 LINE",
"680 800 LINE",
"80 800 LINE",
"80 560 LINE"
);
},
{
closed = 1;
nodes = (
"511 0 LINE",
"511 63 LINE",
"418 63 LINE",
"440 220 LINE",
"370 220 LINE",
"348 63 LINE",
"181 63 LINE",
"160 220 LINE",
"90 220 LINE",
"120 0 LINE"
);
},
{
closed = 1;
nodes = (
"179 281 OFFCURVE",
"198 300 OFFCURVE",
"198 324 CURVE SMOOTH",
"198 348 OFFCURVE",
"179 367 OFFCURVE",
"155 367 CURVE SMOOTH",
"131 367 OFFCURVE",
"112 348 OFFCURVE",
"112 324 CURVE SMOOTH",
"112 300 OFFCURVE",
"131 281 OFFCURVE",
"155 281 CURVE SMOOTH"
);
},
{
closed = 1;
nodes = (
"359 281 OFFCURVE",
"378 300 OFFCURVE",
"378 324 CURVE SMOOTH",
"378 348 OFFCURVE",
"359 367 OFFCURVE",
"335 367 CURVE SMOOTH",
"311 367 OFFCURVE",
"292 348 OFFCURVE",
"292 324 CURVE SMOOTH",
"292 300 OFFCURVE",
"311 281 OFFCURVE",
"335 281 CURVE SMOOTH"
);
},
{
closed = 1;
nodes = (
"249 411 OFFCURVE",
"268 430 OFFCURVE",
"268 454 CURVE SMOOTH",
"268 478 OFFCURVE",
"249 497 OFFCURVE",
"225 497 CURVE SMOOTH",
"201 497 OFFCURVE",
"182 478 OFFCURVE",
"182 454 CURVE SMOOTH",
"182 430 OFFCURVE",
"201 411 OFFCURVE",
"225 411 CURVE SMOOTH"
);
},
{
closed = 1;
nodes = (
"539 281 OFFCURVE",
"558 300 OFFCURVE",
"558 324 CURVE SMOOTH",
"558 348 OFFCURVE",
"539 367 OFFCURVE",
"515 367 CURVE SMOOTH",
"491 367 OFFCURVE",
"472 348 OFFCURVE",
"472 324 CURVE SMOOTH",
"472 300 OFFCURVE",
"491 281 OFFCURVE",
"515 281 CURVE SMOOTH"
);
},
{
closed = 1;
nodes = (
"429 411 OFFCURVE",
"448 430 OFFCURVE",
"448 454 CURVE SMOOTH",
"448 478 OFFCURVE",
"429 497 OFFCURVE",
"405 497 CURVE SMOOTH",
"381 497 OFFCURVE",
"362 478 OFFCURVE",
"362 454 CURVE SMOOTH",
"362 430 OFFCURVE",
"381 411 OFFCURVE",
"405 411 CURVE SMOOTH"
);
},
{
closed = 1;
nodes = (
"309 541 OFFCURVE",
"328 560 OFFCURVE",
"328 584 CURVE SMOOTH",
"328 608 OFFCURVE",
"309 627 OFFCURVE",
"285 627 CURVE SMOOTH",
"261 627 OFFCURVE",
"242 608 OFFCURVE",
"242 584 CURVE SMOOTH",
"242 560 OFFCURVE",
"261 541 OFFCURVE",
"285 541 CURVE SMOOTH"
);
},
{
closed = 1;
nodes = (
"609 411 OFFCURVE",
"628 430 OFFCURVE",
"628 454 CURVE SMOOTH",
"628 478 OFFCURVE",
"609 497 OFFCURVE",
"585 497 CURVE SMOOTH",
"561 497 OFFCURVE",
"542 478 OFFCURVE",
"542 454 CURVE SMOOTH",
"542 430 OFFCURVE",
"561 411 OFFCURVE",
"585 411 CURVE SMOOTH"
);
},
{
closed = 1;
nodes = (
"489 541 OFFCURVE",
"508 560 OFFCURVE",
"508 584 CURVE SMOOTH",
"508 608 OFFCURVE",
"489 627 OFFCURVE",
"465 627 CURVE SMOOTH",
"441 627 OFFCURVE",
"422 608 OFFCURVE",
"422 584 CURVE SMOOTH",
"422 560 OFFCURVE",
"441 541 OFFCURVE",
"465 541 CURVE SMOOTH"
);
}
);
width = 740;
}
);
unicode = 1067B;
},
{
glyphname = u1067C;
lastChange = "2017-12-19 23:21:51 +0000";
layers = (
{
layerId = UUID0;
paths = (
{
closed = 1;
nodes = (
"734 189 OFFCURVE",
"875 216 OFFCURVE",
"879 318 CURVE",
"905 320 LINE",
"898 375 LINE",
"873 372 LINE",
"854 441 OFFCURVE",
"799 507 OFFCURVE",
"723 507 CURVE SMOOTH",
"695 507 OFFCURVE",
"655 486 OFFCURVE",
"618 463 CURVE",
"616 578 OFFCURVE",
"564 699 OFFCURVE",
"416 700 CURVE",
"419 716 OFFCURVE",
"421 739 OFFCURVE",
"421 754 CURVE SMOOTH",
"421 806 OFFCURVE",
"392 863 OFFCURVE",
"309 863 CURVE SMOOTH",
"253 863 OFFCURVE",
"216 830 OFFCURVE",
"191 789 CURVE",
"182 791 OFFCURVE",
"172 792 OFFCURVE",
"162 792 CURVE SMOOTH",
"96 792 OFFCURVE",
"50 742 OFFCURVE",
"50 687 CURVE SMOOTH",
"50 618 OFFCURVE",
"80 563 OFFCURVE",
"132 525 CURVE",
"127 515 OFFCURVE",
"123 505 OFFCURVE",
"119 495 CURVE",
"177 465 LINE",
"200 565 OFFCURVE",
"317 637 OFFCURVE",
"413 637 CURVE SMOOTH",
"501 637 OFFCURVE",
"552 567 OFFCURVE",
"552 495 CURVE SMOOTH",
"552 465 OFFCURVE",
"551 437 OFFCURVE",
"547 412 CURVE",
"613 405 LINE",
"649 428 OFFCURVE",
"674 443 OFFCURVE",
"707 443 CURVE SMOOTH",
"743 443 OFFCURVE",
"786 422 OFFCURVE",
"803 365 CURVE",
"749 360 LINE",
"752 309 LINE",
"812 313 LINE",
"812 305 LINE SMOOTH",
"812 274 OFFCURVE",
"695 249 OFFCURVE",
"654 247 CURVE",
"662 188 LINE"
);
},
{
closed = 1;
nodes = (
"595 0 LINE",
"589 37 OFFCURVE",
"585 77 OFFCURVE",
"585 121 CURVE SMOOTH",
"585 160 OFFCURVE",
"588 203 OFFCURVE",
"595 250 CURVE",
"525 250 LINE",
"517 204 OFFCURVE",
"514 164 OFFCURVE",
"514 126 CURVE SMOOTH",
"514 104 OFFCURVE",
"515 83 OFFCURVE",
"516 63 CURVE",
"213 63 LINE",
"208 97 OFFCURVE",
"206 131 OFFCURVE",
"206 165 CURVE SMOOTH",
"206 257 OFFCURVE",
"217 330 OFFCURVE",
"251 422 CURVE",
"187 442 LINE",
"154 347 OFFCURVE",
"136 253 OFFCURVE",
"136 161 CURVE SMOOTH",
"136 107 OFFCURVE",
"142 53 OFFCURVE",
"155 0 CURVE"
);
},
{
closed = 1;
nodes = (
"133 599 OFFCURVE",
"114 630 OFFCURVE",
"114 682 CURVE SMOOTH",
"114 708 OFFCURVE",
"130 727 OFFCURVE",
"161 727 CURVE SMOOTH",
"201 727 OFFCURVE",
"221 686 OFFCURVE",
"236 644 CURVE",
"210 627 OFFCURVE",
"186 605 OFFCURVE",
"166 579 CURVE"
);
},
{
closed = 1;
nodes = (
"448 425 OFFCURVE",
"467 444 OFFCURVE",
"467 468 CURVE SMOOTH",
"467 492 OFFCURVE",
"448 511 OFFCURVE",
"424 511 CURVE SMOOTH",
"400 511 OFFCURVE",
"381 492 OFFCURVE",
"381 468 CURVE SMOOTH",
"381 444 OFFCURVE",
"400 425 OFFCURVE",
"424 425 CURVE SMOOTH"
);
},
{
closed = 1;
nodes = (
"289 710 OFFCURVE",
"271 740 OFFCURVE",
"246 761 CURVE",
"261 783 OFFCURVE",
"282 799 OFFCURVE",
"305 799 CURVE SMOOTH",
"336 799 OFFCURVE",
"357 775 OFFCURVE",
"357 753 CURVE SMOOTH",
"357 735 OFFCURVE",
"354 709 OFFCURVE",
"350 693 CURVE",
"334 690 OFFCURVE",
"317 685 OFFCURVE",
"301 679 CURVE"
);
}
);
width = 935;
}
);
unicode = 1067C;
},
{
glyphname = u1067D;
lastChange = "2017-12-19 23:21:51 +0000";
layers = (
{
layerId = UUID0;
paths = (
{
closed = 1;
nodes = (
"143 0 LINE",
"148 90 OFFCURVE",
"222 181 OFFCURVE",
"299 275 CURVE",
"534 275 LINE",
"534 338 LINE",
"348 338 LINE",
"417 428 OFFCURVE",
"476 524 OFFCURVE",
"476 631 CURVE SMOOTH",
"476 730 OFFCURVE",
"413 815 OFFCURVE",
"278 815 CURVE SMOOTH",
"181 815 OFFCURVE",
"116 751 OFFCURVE",
"80 680 CURVE",
"135 645 LINE",
"168 718 OFFCURVE",
"212 752 OFFCURVE",
"280 752 CURVE SMOOTH",
"367 752 OFFCURVE",
"406 695 OFFCURVE",
"406 631 CURVE SMOOTH",
"406 578 OFFCURVE",
"391 530 OFFCURVE",
"368 485 CURVE",
"60 485 LINE",
"60 275 LINE",
"213 275 LINE",
"144 191 OFFCURVE",
"80 104 OFFCURVE",
"70 0 CURVE"
);
},
{
closed = 1;
nodes = (
"130 422 LINE",
"329 422 LINE",
"310 393 OFFCURVE",
"288 365 OFFCURVE",
"265 338 CURVE",
"130 338 LINE"
);
}
);
width = 564;
}
);
unicode = 1067D;
},
{
glyphname = u1067E;
lastChange = "2017-12-19 23:21:51 +0000";
layers = (
{
layerId = UUID0;
paths = (
{
closed = 1;
nodes = (
"611 0 LINE",
"611 800 LINE",
"251 800 LINE",
"251 360 LINE",
"164 281 OFFCURVE",
"94 185 OFFCURVE",
"30 60 CURVE",
"30 0 LINE"
);
},
{
closed = 1;
nodes = (
"156 156 OFFCURVE",
"226 248 OFFCURVE",
"321 341 CURVE",
"321 737 LINE",
"541 737 LINE",
"541 63 LINE",
"109 63 LINE"
);
}
);
width = 711;
}
);
unicode = 1067E;
},
{
glyphname = u1067F;
lastChange = "2017-12-19 23:21:51 +0000";
layers = (
{
layerId = UUID0;
paths = (
{
closed = 1;
nodes = (
"348 -15 OFFCURVE",
"391 76 OFFCURVE",
"391 159 CURVE SMOOTH",
"391 227 OFFCURVE",
"367 317 OFFCURVE",
"282 481 CURVE",
"325 563 OFFCURVE",
"382 665 OFFCURVE",
"461 792 CURVE",
"408 826 LINE",
"340 717 OFFCURVE",
"287 626 OFFCURVE",
"245 550 CURVE",
"203 626 OFFCURVE",
"150 717 OFFCURVE",
"83 826 CURVE",
"30 792 LINE",
"108 665 OFFCURVE",
"166 563 OFFCURVE",
"209 481 CURVE",
"123 316 OFFCURVE",
"100 228 OFFCURVE",
"100 159 CURVE SMOOTH",
"100 38 OFFCURVE",
"163 -15 OFFCURVE",
"245 -15 CURVE SMOOTH"
);
},
{
closed = 1;
nodes = (
"198 50 OFFCURVE",
"167 83 OFFCURVE",
"167 157 CURVE SMOOTH",
"167 203 OFFCURVE",
"181 273 OFFCURVE",
"245 408 CURVE",
"309 273 OFFCURVE",
"324 203 OFFCURVE",
"324 157 CURVE SMOOTH",
"324 81 OFFCURVE",
"291 50 OFFCURVE",
"243 50 CURVE SMOOTH"
);
}
);
width = 491;
}
);
unicode = 1067F;
},
{
glyphname = u10680;
lastChange = "2017-12-19 23:21:51 +0000";
layers = (
{
layerId = UUID0;
paths = (
{
closed = 1;
nodes = (
"471 -15 OFFCURVE",
"555 19 OFFCURVE",
"620 76 CURVE",
"552 108 LINE",
"503 72 OFFCURVE",
"443 50 OFFCURVE",
"378 50 CURVE SMOOTH",
"239 50 OFFCURVE",
"142 113 OFFCURVE",
"123 265 CURVE",
"50 265 LINE",
"55 99 OFFCURVE",
"195 -15 OFFCURVE",
"378 -15 CURVE SMOOTH"
);
},
{
closed = 1;
nodes = (
"952 257 LINE",
"952 550 LINE",
"411 550 LINE",
"411 487 LINE",
"882 487 LINE",
"882 320 LINE",
"411 320 LINE",
"411 257 LINE"
);
},
{
closed = 1;
nodes = (
"208 708 OFFCURVE",
"289 750 OFFCURVE",
"380 750 CURVE SMOOTH",
"464 750 OFFCURVE",
"541 713 OFFCURVE",
"595 655 CURVE",
"659 686 LINE",
"592 765 OFFCURVE",
"492 815 OFFCURVE",
"380 815 CURVE SMOOTH",
"266 815 OFFCURVE",
"163 763 OFFCURVE",
"96 682 CURVE",
"153 643 LINE"
);
}
);
width = 1002;
}
);
unicode = 10680;
},
{
glyphname = u10681;
lastChange = "2017-12-19 23:21:51 +0000";
layers = (
{
layerId = UUID0;
paths = (
{
closed = 1;
nodes = (
"810 -12 OFFCURVE",
"1136 17 OFFCURVE",
"1136 212 CURVE SMOOTH",
"1136 305 OFFCURVE",
"1062 352 OFFCURVE",
"984 352 CURVE SMOOTH",
"766 352 OFFCURVE",
"692 128 OFFCURVE",
"400 128 CURVE SMOOTH",
"284 128 OFFCURVE",
"120 168 OFFCURVE",
"120 302 CURVE SMOOTH",
"120 402 OFFCURVE",
"203 463 OFFCURVE",
"305 463 CURVE SMOOTH",
"395 463 OFFCURVE",
"494 390 OFFCURVE",
"530 354 CURVE",
"552 417 LINE",
"514 466 OFFCURVE",
"406 528 OFFCURVE",
"306 528 CURVE SMOOTH",
"157 528 OFFCURVE",
"50 442 OFFCURVE",
"50 302 CURVE SMOOTH",
"50 129 OFFCURVE",
"238 63 OFFCURVE",
"396 63 CURVE SMOOTH",
"712 63 OFFCURVE",
"833 287 OFFCURVE",
"977 287 CURVE SMOOTH",
"1038 287 OFFCURVE",
"1066 268 OFFCURVE",
"1066 212 CURVE SMOOTH",
"1066 71 OFFCURVE",
"734 53 OFFCURVE",
"643 48 CURVE",
"639 -15 LINE"
);
},
{
closed = 1;
nodes = (
"665 364 OFFCURVE",
"613 631 OFFCURVE",
"737 631 CURVE SMOOTH",
"788 631 OFFCURVE",
"822 581 OFFCURVE",
"822 485 CURVE SMOOTH",
"822 456 OFFCURVE",
"820 417 OFFCURVE",
"816 383 CURVE",
"882 362 LINE",
"888 397 OFFCURVE",
"892 434 OFFCURVE",
"892 484 CURVE SMOOTH",
"892 615 OFFCURVE",
"848 696 OFFCURVE",
"737 696 CURVE SMOOTH",
"525 696 OFFCURVE",
"596 363 OFFCURVE",
"532 271 CURVE",
"590 235 LINE"
);
}
);
width = 1186;
}
);
unicode = 10681;
},
{
glyphname = u10682;
lastChange = "2017-12-19 23:21:51 +0000";
layers = (
{
layerId = UUID0;
paths = (
{
closed = 1;
nodes = (
"294 320 LINE",
"294 383 LINE",
"241 383 LINE",
"250 586 OFFCURVE",
"349 750 OFFCURVE",
"399 750 CURVE SMOOTH",
"440 750 OFFCURVE",
"547 586 OFFCURVE",
"557 383 CURVE",
"505 383 LINE",
"505 320 LINE",
"678 320 LINE",
"678 383 LINE",
"627 383 LINE",
"616 603 OFFCURVE",
"501 815 OFFCURVE",
"399 815 CURVE SMOOTH",
"299 815 OFFCURVE",
"183 603 OFFCURVE",
"172 383 CURVE",
"121 383 LINE",
"121 320 LINE"
);
},
{
closed = 1;
nodes = (
"115 0 LINE",
"155 267 LINE",
"90 267 LINE",
"50 0 LINE"
);
},
{
closed = 1;
nodes = (
"237 0 LINE",
"237 267 LINE",
"172 267 LINE",
"172 0 LINE"
);
},
{
closed = 1;
nodes = (
"359 0 LINE",
"319 267 LINE",
"254 267 LINE",
"294 0 LINE"
);
},
{
closed = 1;
nodes = (
"505 0 LINE",
"545 267 LINE",
"480 267 LINE",
"440 0 LINE"
);
},
{
closed = 1;
nodes = (
"627 0 LINE",
"627 267 LINE",
"562 267 LINE",
"562 0 LINE"
);
},
{
closed = 1;
nodes = (
"749 0 LINE",
"709 267 LINE",
"644 267 LINE",
"684 0 LINE"
);
}
);
width = 799;
}
);
unicode = 10682;
},
{
glyphname = u10683;
lastChange = "2017-12-19 23:21:51 +0000";
layers = (
{
layerId = UUID0;
paths = (
{
closed = 1;
nodes = (
"227 77 OFFCURVE",
"291 144 OFFCURVE",
"341 205 CURVE",
"392 144 OFFCURVE",
"455 77 OFFCURVE",
"531 -3 CURVE",
"577 38 LINE",
"495 126 OFFCURVE",
"431 196 OFFCURVE",
"383 257 CURVE",
"451 350 OFFCURVE",
"487 434 OFFCURVE",
"487 534 CURVE SMOOTH",
"487 559 OFFCURVE",
"484 582 OFFCURVE",
"479 602 CURVE",
"564 679 LINE",
"601 640 LINE",
"647 686 LINE",
"612 723 LINE",
"653 760 LINE",
"610 806 LINE",
"569 768 LINE",
"534 806 LINE",
"489 761 LINE",
"522 725 LINE",
"451 659 LINE",
"424 692 OFFCURVE",
"385 708 OFFCURVE",
"341 708 CURVE SMOOTH",
"297 708 OFFCURVE",
"258 692 OFFCURVE",
"232 659 CURVE",
"160 725 LINE",
"194 761 LINE",
"149 806 LINE",
"113 768 LINE",
"73 806 LINE",
"30 760 LINE",
"71 723 LINE",
"36 686 LINE",
"82 640 LINE",
"118 679 LINE",
"204 602 LINE",
"198 582 OFFCURVE",
"196 559 OFFCURVE",
"196 534 CURVE SMOOTH",
"196 434 OFFCURVE",
"231 350 OFFCURVE",
"300 257 CURVE",
"251 196 OFFCURVE",
"187 126 OFFCURVE",
"106 38 CURVE",
"152 -3 LINE"
);
},
{
closed = 1;
nodes = (
"288 389 OFFCURVE",
"263 455 OFFCURVE",
"263 536 CURVE SMOOTH",
"263 609 OFFCURVE",
"294 643 OFFCURVE",
"339 643 CURVE SMOOTH",
"387 643 OFFCURVE",
"420 612 OFFCURVE",
"420 536 CURVE SMOOTH",
"420 455 OFFCURVE",
"395 389 OFFCURVE",
"341 312 CURVE"
);
}
);
width = 683;
}
);
unicode = 10683;
},
{
glyphname = u10684;
lastChange = "2017-12-19 23:21:51 +0000";
layers = (
{
layerId = UUID0;
paths = (
{
closed = 1;
nodes = (
"315 0 LINE",
"315 63 LINE",
"284 63 LINE",
"289 250 OFFCURVE",
"324 360 OFFCURVE",
"372 360 CURVE SMOOTH",
"415 360 OFFCURVE",
"471 262 OFFCURVE",
"471 45 CURVE",
"540 45 LINE",
"540 262 OFFCURVE",
"596 360 OFFCURVE",
"639 360 CURVE SMOOTH",
"687 360 OFFCURVE",
"721 250 OFFCURVE",
"726 63 CURVE",
"696 63 LINE",
"696 0 LINE",
"951 0 LINE",
"951 63 LINE",
"889 63 LINE",
"889 469 LINE",
"819 469 LINE",
"819 438 LINE",
"192 438 LINE",
"192 469 LINE",
"122 469 LINE",
"122 63 LINE",
"60 63 LINE",
"60 0 LINE"
);
},
{
closed = 1;
nodes = (
"192 375 LINE",
"284 375 LINE",
"239 313 OFFCURVE",
"218 199 OFFCURVE",
"214 63 CURVE",
"192 63 LINE"
);
},
{
closed = 1;
nodes = (
"494 317 OFFCURVE",
"479 350 OFFCURVE",
"461 375 CURVE",
"549 375 LINE",
"531 350 OFFCURVE",
"516 317 OFFCURVE",
"505 278 CURVE"
);
},
{
closed = 1;
nodes = (
"792 199 OFFCURVE",
"771 313 OFFCURVE",
"727 375 CURVE",
"819 375 LINE",
"819 63 LINE",
"796 63 LINE"
);
},
{
closed = 1;
nodes = (
"135 560 OFFCURVE",
"166 610 OFFCURVE",
"220 610 CURVE SMOOTH",
"253 610 OFFCURVE",
"311 563 OFFCURVE",
"362 563 CURVE SMOOTH",
"424 563 OFFCURVE",
"454 614 OFFCURVE",
"504 614 CURVE SMOOTH",
"556 614 OFFCURVE",
"586 563 OFFCURVE",
"649 563 CURVE SMOOTH",
"700 563 OFFCURVE",
"758 610 OFFCURVE",
"791 610 CURVE SMOOTH",
"845 610 OFFCURVE",
"876 560 OFFCURVE",
"896 512 CURVE",
"951 544 LINE",
"928 599 OFFCURVE",
"888 657 OFFCURVE",
"829 675 CURVE",
"829 716 LINE",
"887 716 LINE",
"887 774 LINE",
"829 774 LINE",
"829 822 LINE",
"764 822 LINE",
"764 774 LINE",
"707 774 LINE",
"707 716 LINE",
"764 716 LINE",
"764 676 LINE",
"726 664 OFFCURVE",
"681 632 OFFCURVE",
"648 632 CURVE SMOOTH",
"581 632 OFFCURVE",
"561 681 OFFCURVE",
"504 681 CURVE SMOOTH",
"449 681 OFFCURVE",
"428 632 OFFCURVE",
"363 632 CURVE SMOOTH",
"322 632 OFFCURVE",
"263 681 OFFCURVE",
"221 681 CURVE SMOOTH",
"139 681 OFFCURVE",
"88 611 OFFCURVE",
"60 544 CURVE",
"115 512 LINE"
);
}
);
width = 1011;
}
);
unicode = 10684;
},
{
glyphname = u10685;
lastChange = "2017-12-19 23:21:51 +0000";
layers = (
{
layerId = UUID0;
paths = (
{
closed = 1;
nodes = (
"344 0 LINE",
"344 107 LINE",
"473 107 LINE",
"473 170 LINE",
"344 170 LINE",
"344 344 LINE",
"385 350 OFFCURVE",
"423 367 OFFCURVE",
"454 391 CURVE",
"512 336 LINE",
"558 382 LINE",
"500 437 LINE",
"529 476 OFFCURVE",
"546 524 OFFCURVE",
"546 577 CURVE SMOOTH",
"546 628 OFFCURVE",
"529 676 OFFCURVE",
"501 715 CURVE",
"558 770 LINE",
"513 815 LINE",
"457 762 LINE",
"416 795 OFFCURVE",
"364 815 OFFCURVE",
"308 815 CURVE SMOOTH",
"252 815 OFFCURVE",
"200 795 OFFCURVE",
"159 763 CURVE",
"105 815 LINE",
"60 770 LINE",
"116 716 LINE",
"87 677 OFFCURVE",
"71 629 OFFCURVE",
"71 577 CURVE SMOOTH",
"71 524 OFFCURVE",
"88 475 OFFCURVE",
"117 436 CURVE",
"60 382 LINE",
"106 336 LINE",
"163 390 LINE",
"194 366 OFFCURVE",
"232 350 OFFCURVE",
"274 344 CURVE",
"274 0 LINE"
);
},
{
closed = 1;
nodes = (
"272 407 OFFCURVE",
"238 418 OFFCURVE",
"211 437 CURVE",
"309 531 LINE",
"406 438 LINE",
"378 418 OFFCURVE",
"345 407 OFFCURVE",
"308 407 CURVE SMOOTH"
);
},
{
closed = 1;
nodes = (
"150 511 OFFCURVE",
"141 543 OFFCURVE",
"141 578 CURVE SMOOTH",
"141 611 OFFCURVE",
"150 642 OFFCURVE",
"165 669 CURVE",
"262 575 LINE",
"167 484 LINE"
);
},
{
closed = 1;
nodes = (
"355 575 LINE",
"452 668 LINE",
"467 642 OFFCURVE",
"476 611 OFFCURVE",
"476 578 CURVE SMOOTH",
"476 543 OFFCURVE",
"466 511 OFFCURVE",
"450 485 CURVE"
);
},
{
closed = 1;
nodes = (
"208 716 LINE",
"235 737 OFFCURVE",
"270 750 OFFCURVE",
"308 750 CURVE SMOOTH",
"346 750 OFFCURVE",
"381 737 OFFCURVE",
"409 716 CURVE",
"309 620 LINE"
);
}
);
width = 618;
}
);
unicode = 10685;
},
{
glyphname = u10686;
lastChange = "2017-12-19 23:21:51 +0000";
layers = (
{
layerId = UUID0;
paths = (
{
closed = 1;
nodes = (
"570 0 LINE",
"570 423 LINE",
"500 423 LINE",
"500 363 LINE",
"170 363 LINE",
"170 800 LINE",
"100 800 LINE",
"100 0 LINE"
);
},
{
closed = 1;
nodes = (
"170 300 LINE",
"500 300 LINE",
"500 63 LINE",
"170 63 LINE"
);
}
);
width = 650;
}
);
unicode = 10686;
},
{
glyphname = u10687;
lastChange = "2017-12-19 23:21:51 +0000";
layers = (
{
layerId = UUID0;
paths = (
{
closed = 1;
nodes = (
"327 0 LINE",
"327 316 LINE",
"433 328 OFFCURVE",
"509 394 OFFCURVE",
"529 483 CURVE",
"677 483 LINE",
"677 546 LINE",
"533 546 LINE",
"532 562 OFFCURVE",
"528 578 OFFCURVE",
"524 593 CURVE",
"677 593 LINE",
"677 656 LINE",
"491 656 LINE",
"480 669 OFFCURVE",
"468 681 OFFCURVE",
"455 692 CURVE",
"515 773 LINE",
"460 815 LINE",
"395 726 LINE",
"364 738 OFFCURVE",
"329 745 OFFCURVE",
"291 745 CURVE SMOOTH",
"253 745 OFFCURVE",
"218 738 OFFCURVE",
"188 726 CURVE",
"123 815 LINE",
"68 773 LINE",
"128 692 LINE",
"79 653 OFFCURVE",
"50 595 OFFCURVE",
"50 529 CURVE SMOOTH",
"50 418 OFFCURVE",
"134 330 OFFCURVE",
"257 316 CURVE",
"257 0 LINE"
);
},
{
closed = 1;
nodes = (
"185 379 OFFCURVE",
"120 446 OFFCURVE",
"120 529 CURVE SMOOTH",
"120 572 OFFCURVE",
"137 611 OFFCURVE",
"168 639 CURVE",
"257 519 LINE",
"326 519 LINE",
"414 638 LINE",
"446 611 OFFCURVE",
"464 572 OFFCURVE",
"464 529 CURVE SMOOTH",
"464 446 OFFCURVE",
"394 379 OFFCURVE",
"290 379 CURVE SMOOTH"
);
},
{
closed = 1;
nodes = (
"228 671 LINE",
"246 677 OFFCURVE",
"267 680 OFFCURVE",
"290 680 CURVE SMOOTH",
"313 680 OFFCURVE",
"334 676 OFFCURVE",
"354 670 CURVE",
"291 585 LINE"
);
}
);
width = 727;
}
);
unicode = 10687;
},
{
glyphname = u10688;
lastChange = "2017-12-19 23:21:51 +0000";
layers = (
{
layerId = UUID0;
paths = (
{
closed = 1;
nodes = (
"186 49 LINE",
"129 49 OFFCURVE",
"100 77 OFFCURVE",
"100 125 CURVE SMOOTH",
"100 176 OFFCURVE",
"157 224 OFFCURVE",
"242 296 CURVE",
"255 290 OFFCURVE",
"271 286 OFFCURVE",
"287 286 CURVE SMOOTH",
"403 286 OFFCURVE",
"543 365 OFFCURVE",
"628 417 CURVE",
"587 470 LINE",
"496 421 OFFCURVE",
"397 356 OFFCURVE",
"303 356 CURVE SMOOTH",
"271 356 OFFCURVE",
"258 365 OFFCURVE",
"258 380 CURVE SMOOTH",
"258 425 OFFCURVE",
"346 525 OFFCURVE",
"482 641 CURVE",
"438 689 LINE",
"279 542 OFFCURVE",
"188 456 OFFCURVE",
"188 379 CURVE SMOOTH",
"188 367 OFFCURVE",
"190 356 OFFCURVE",
"194 345 CURVE",
"68 228 OFFCURVE",
"30 180 OFFCURVE",
"30 113 CURVE SMOOTH",
"30 35 OFFCURVE",
"88 -15 OFFCURVE",
"157 -15 CURVE"
);
},
{
closed = 1;
nodes = (
"495 484 OFFCURVE",
"589 538 OFFCURVE",
"631 538 CURVE SMOOTH",
"666 538 OFFCURVE",
"695 510 OFFCURVE",
"695 462 CURVE",
"765 462 LINE",
"765 540 OFFCURVE",
"707 602 OFFCURVE",
"638 602 CURVE SMOOTH",
"579 602 OFFCURVE",
"506 567 OFFCURVE",
"379 470 CURVE",
"416 419 LINE"
);
},
{
closed = 1;
nodes = (
"587 609 LINE",
"587 638 LINE SMOOTH",
"587 738 OFFCURVE",
"566 810 OFFCURVE",
"448 810 CURVE SMOOTH",
"407 810 OFFCURVE",
"378 796 OFFCURVE",
"359 775 CURVE",
"412 729 LINE",
"421 738 OFFCURVE",
"434 745 OFFCURVE",
"452 745 CURVE SMOOTH",
"514 745 OFFCURVE",
"517 706 OFFCURVE",
"517 633 CURVE SMOOTH",
"517 609 LINE"
);
}
);
width = 785;
}
);
unicode = 10688;
},
{
glyphname = u10689;
lastChange = "2017-12-19 23:21:51 +0000";
layers = (
{
layerId = UUID0;
paths = (
{
closed = 1;
nodes = (
"278 0 LINE",
"210 193 LINE",
"374 330 LINE",
"374 383 LINE",
"339 510 OFFCURVE",
"110 470 OFFCURVE",
"110 641 CURVE SMOOTH",
"110 705 OFFCURVE",
"149 752 OFFCURVE",
"230 752 CURVE SMOOTH",
"305 752 OFFCURVE",
"351 707 OFFCURVE",
"377 655 CURVE",
"432 687 LINE",
"397 761 OFFCURVE",
"333 815 OFFCURVE",
"230 815 CURVE SMOOTH",
"103 815 OFFCURVE",
"40 740 OFFCURVE",
"40 641 CURVE SMOOTH",
"40 421 OFFCURVE",
"270 469 OFFCURVE",
"310 359 CURVE",
"145 222 LINE",
"145 173 LINE",
"212 -11 LINE"
);
}
);
width = 462;
}
);
unicode = 10689;
},
{
glyphname = u1068A;
lastChange = "2017-12-19 23:21:51 +0000";
layers = (
{
layerId = UUID0;
paths = (
{
closed = 1;
nodes = (
"215 0 LINE",
"215 53 LINE SMOOTH",
"215 270 OFFCURVE",
"361 460 OFFCURVE",
"413 460 CURVE SMOOTH",
"456 460 OFFCURVE",
"612 270 OFFCURVE",
"612 53 CURVE SMOOTH",
"612 0 LINE",
"682 0 LINE",
"682 50 LINE SMOOTH",
"682 282 OFFCURVE",
"520 525 OFFCURVE",
"413 525 CURVE SMOOTH",
"308 525 OFFCURVE",
"145 282 OFFCURVE",
"145 50 CURVE SMOOTH",
"145 0 LINE"
);
},
{
closed = 1;
nodes = (
"126 332 OFFCURVE",
"196 437 OFFCURVE",
"263 524 CURVE",
"215 564 LINE",
"134 472 OFFCURVE",
"69 362 OFFCURVE",
"40 209 CURVE",
"103 191 LINE"
);
},
{
closed = 1;
nodes = (
"584 544 LINE",
"584 607 LINE",
"294 607 LINE",
"294 544 LINE"
);
},
{
closed = 1;
nodes = (
"449 629 LINE",
"449 800 LINE",
"379 800 LINE",
"379 629 LINE"
);
}
);
width = 732;
}
);
unicode = 1068A;
},
{
glyphname = u1068B;
lastChange = "2017-12-19 23:21:51 +0000";
layers = (
{
layerId = UUID0;
paths = (
{
closed = 1;
nodes = (
"376 6 OFFCURVE",
"428 62 OFFCURVE",
"428 143 CURVE SMOOTH",
"428 381 OFFCURVE",
"120 352 OFFCURVE",
"120 554 CURVE SMOOTH",
"120 616 OFFCURVE",
"137 716 OFFCURVE",
"275 761 CURVE",
"256 817 LINE",
"94 779 OFFCURVE",
"50 646 OFFCURVE",
"50 554 CURVE SMOOTH",
"50 306 OFFCURVE",
"358 327 OFFCURVE",
"358 143 CURVE SMOOTH",
"358 97 OFFCURVE",
"323 62 OFFCURVE",
"262 51 CURVE",
"285 -10 LINE"
);
},
{
closed = 1;
nodes = (
"253 190 LINE",
"197 214 LINE",
"148 106 LINE",
"203 83 LINE"
);
},
{
closed = 1;
nodes = (
"471 531 LINE",
"459 593 LINE",
"196 563 LINE",
"208 502 LINE"
);
}
);
width = 511;
}
);
unicode = 1068B;
},
{
glyphname = u1068C;
lastChange = "2017-12-19 23:21:51 +0000";
layers = (
{
layerId = UUID0;
paths = (
{
closed = 1;
nodes = (
"130 0 LINE",
"130 23 LINE SMOOTH",
"130 125 OFFCURVE",
"186 227 OFFCURVE",
"263 327 CURVE",
"339 227 OFFCURVE",
"396 125 OFFCURVE",
"396 23 CURVE SMOOTH",
"396 0 LINE",
"466 0 LINE",
"466 20 LINE SMOOTH",
"466 130 OFFCURVE",
"396 256 OFFCURVE",
"303 378 CURVE",
"350 433 OFFCURVE",
"400 487 OFFCURVE",
"449 540 CURVE",
"466 540 LINE",
"466 603 LINE",
"60 603 LINE",
"60 540 LINE",
"77 540 LINE",
"125 487 OFFCURVE",
"176 433 OFFCURVE",
"222 378 CURVE",
"129 256 OFFCURVE",
"60 130 OFFCURVE",
"60 20 CURVE SMOOTH",
"60 0 LINE"
);
},
{
closed = 1;
nodes = (
"232 467 OFFCURVE",
"198 504 OFFCURVE",
"165 540 CURVE",
"360 540 LINE",
"327 504 OFFCURVE",
"294 467 OFFCURVE",
"263 429 CURVE"
);
},
{
closed = 1;
nodes = (
"298 629 LINE",
"298 800 LINE",
"228 800 LINE",
"228 629 LINE"
);
}
);
width = 526;
}
);
unicode = 1068C;
},
{
glyphname = u1068D;
lastChange = "2017-12-19 23:21:51 +0000";
layers = (
{
layerId = UUID0;
paths = (
{
closed = 1;
nodes = (
"880 151 LINE",
"880 212 LINE",
"202 670 LINE",
"147 670 LINE",
"30 214 LINE",
"30 151 LINE"
);
},
{
closed = 1;
nodes = (
"189 602 LINE",
"524 379 LINE",
"477 214 LINE",
"93 214 LINE"
);
},
{
closed = 1;
nodes = (
"575 345 LINE",
"771 214 LINE",
"540 214 LINE"
);
}
);
width = 910;
}
);
unicode = 1068D;
},
{
glyphname = u1068E;
lastChange = "2017-12-19 23:21:51 +0000";
layers = (
{
layerId = UUID0;
paths = (
{
closed = 1;
nodes = (
"412 0 LINE",
"412 417 LINE",
"566 417 LINE",
"566 300 LINE",
"636 300 LINE",
"636 585 LINE",
"566 585 LINE",
"566 480 LINE",
"412 480 LINE",
"412 737 LINE",
"604 737 LINE",
"604 800 LINE",
"150 800 LINE",
"150 737 LINE",
"342 737 LINE",
"342 0 LINE"
);
},
{
closed = 1;
nodes = (
"97 253 OFFCURVE",
"116 272 OFFCURVE",
"116 296 CURVE SMOOTH",
"116 320 OFFCURVE",
"97 339 OFFCURVE",
"73 339 CURVE SMOOTH",
"49 339 OFFCURVE",
"30 320 OFFCURVE",
"30 296 CURVE SMOOTH",
"30 272 OFFCURVE",
"49 253 OFFCURVE",
"73 253 CURVE SMOOTH"
);
},
{
closed = 1;
nodes = (
"325 377 LINE",
"297 435 LINE",
"124 357 LINE",
"151 298 LINE"
);
}
);
width = 686;
}
);
unicode = 1068E;
},
{
glyphname = u1068F;
lastChange = "2017-12-19 23:21:51 +0000";
layers = (
{
layerId = UUID0;
paths = (
{
closed = 1;
nodes = (
"350 0 LINE",
"350 470 LINE",
"497 647 LINE",
"564 582 LINE",
"526 541 LINE",
"572 498 LINE",
"693 627 LINE",
"647 671 LINE",
"612 633 LINE",
"542 700 LINE",
"608 779 LINE",
"552 820 LINE",
"314 534 LINE",
"76 820 LINE",
"20 779 LINE",
"280 468 LINE",
"280 0 LINE"
);
}
);
width = 713;
}
);
unicode = 1068F;
},
{
glyphname = u10690;
lastChange = "2017-12-19 23:21:51 +0000";
layers = (
{
layerId = UUID0;
paths = (
{
closed = 1;
nodes = (
"622 0 LINE",
"622 50 LINE SMOOTH",
"622 396 OFFCURVE",
"407 778 OFFCURVE",
"60 815 CURVE",
"60 440 LINE",
"307 463 LINE",
"239 376 OFFCURVE",
"185 210 OFFCURVE",
"185 50 CURVE SMOOTH",
"185 0 LINE"
);
},
{
closed = 1;
nodes = (
"258 273 OFFCURVE",
"352 466 OFFCURVE",
"436 479 CURVE",
"510 353 OFFCURVE",
"548 201 OFFCURVE",
"552 63 CURVE",
"255 63 LINE"
);
},
{
closed = 1;
nodes = (
"130 737 LINE",
"244 702 OFFCURVE",
"333 628 OFFCURVE",
"400 535 CURVE",
"130 510 LINE"
);
}
);
width = 672;
}
);
unicode = 10690;
},
{
glyphname = u10691;
lastChange = "2017-12-19 23:21:51 +0000";
layers = (
{
layerId = UUID0;
paths = (
{
closed = 1;
nodes = (
"178 0 LINE",
"396 110 LINE",
"435 46 OFFCURVE",
"484 0 OFFCURVE",
"557 0 CURVE SMOOTH",
"658 0 LINE",
"657 138 OFFCURVE",
"652 246 OFFCURVE",
"642 350 CURVE",
"662 358 OFFCURVE",
"680 368 OFFCURVE",
"698 380 CURVE",
"679 444 LINE",
"665 433 OFFCURVE",
"651 423 OFFCURVE",
"635 415 CURVE",
"630 461 OFFCURVE",
"627 508 OFFCURVE",
"616 556 CURVE SMOOTH",
"602 618 OFFCURVE",
"580 640 OFFCURVE",
"545 640 CURVE SMOOTH",
"348 640 LINE",
"344 735 OFFCURVE",
"281 806 OFFCURVE",
"150 806 CURVE",
"150 743 LINE",
"235 743 OFFCURVE",
"275 700 OFFCURVE",
"278 640 CURVE",
"244 640 LINE SMOOTH",
"197 640 OFFCURVE",
"181 610 OFFCURVE",
"168 575 CURVE SMOOTH",
"130 473 OFFCURVE",
"115 380 OFFCURVE",
"107 288 CURVE",
"50 288 LINE",
"50 230 LINE",
"103 230 LINE",
"101 201 OFFCURVE",
"101 171 OFFCURVE",
"101 141 CURVE SMOOTH",
"101 93 OFFCURVE",
"103 47 OFFCURVE",
"108 0 CURVE"
);
},
{
closed = 1;
nodes = (
"518 60 OFFCURVE",
"469 92 OFFCURVE",
"432 175 CURVE",
"407 179 LINE",
"172 62 LINE",
"169 93 OFFCURVE",
"168 124 OFFCURVE",
"168 156 CURVE SMOOTH",
"168 180 OFFCURVE",
"168 205 OFFCURVE",
"170 230 CURVE",
"358 230 LINE",
"358 288 LINE",
"174 288 LINE",
"180 348 OFFCURVE",
"190 410 OFFCURVE",
"204 470 CURVE",
"271 380 OFFCURVE",
"379 322 OFFCURVE",
"500 322 CURVE SMOOTH",
"525 322 OFFCURVE",
"549 324 OFFCURVE",
"573 329 CURVE",
"582 239 OFFCURVE",
"587 148 OFFCURVE",
"588 60 CURVE",
"579 60 LINE SMOOTH"
);
},
{
closed = 1;
nodes = (
"385 382 OFFCURVE",
"276 457 OFFCURVE",
"226 553 CURVE",
"233 577 LINE",
"544 577 LINE",
"552 516 OFFCURVE",
"561 453 OFFCURVE",
"567 390 CURVE",
"545 384 OFFCURVE",
"523 382 OFFCURVE",
"500 382 CURVE SMOOTH"
);
},
{
closed = 1;
nodes = (
"477 453 OFFCURVE",
"496 472 OFFCURVE",
"496 496 CURVE SMOOTH",
"496 520 OFFCURVE",
"477 539 OFFCURVE",
"453 539 CURVE SMOOTH",
"429 539 OFFCURVE",
"410 520 OFFCURVE",
"410 496 CURVE SMOOTH",
"410 472 OFFCURVE",
"429 453 OFFCURVE",
"453 453 CURVE SMOOTH"
);
}
);
width = 748;
}
);
unicode = 10691;
},
{
glyphname = u10692;
lastChange = "2017-12-19 23:21:51 +0000";
layers = (
{
layerId = UUID0;
paths = (
{
closed = 1;
nodes = (
"291 0 LINE",
"291 163 LINE",
"441 327 LINE",
"441 379 LINE",
"291 543 LINE",
"291 800 LINE",
"221 800 LINE",
"221 620 LINE",
"48 810 LINE",
"0 769 LINE",
"221 528 LINE",
"221 0 LINE"
);
},
{
closed = 1;
nodes = (
"291 451 LINE",
"381 353 LINE",
"291 254 LINE"
);
}
);
width = 491;
}
);
unicode = 10692;
},
{
glyphname = u10693;
lastChange = "2017-12-19 23:21:51 +0000";
layers = (
{
layerId = UUID0;
paths = (
{
closed = 1;
nodes = (
"720 0 LINE",
"720 149 LINE",
"650 149 LINE",
"650 64 LINE",
"443 64 LINE SMOOTH",
"340 64 OFFCURVE",
"265 87 OFFCURVE",
"215 129 CURVE",
"401 333 LINE",
"401 385 LINE",
"195 611 LINE",
"244 665 OFFCURVE",
"324 696 OFFCURVE",
"443 696 CURVE SMOOTH",
"534 696 LINE",
"534 644 LINE",
"604 644 LINE",
"604 696 LINE",
"700 696 LINE",
"700 760 LINE",
"604 760 LINE",
"604 815 LINE",
"534 815 LINE",
"534 760 LINE",
"442 760 LINE SMOOTH",
"175 760 OFFCURVE",
"60 610 OFFCURVE",
"60 407 CURVE SMOOTH",
"60 353 LINE SMOOTH",
"60 150 OFFCURVE",
"175 0 OFFCURVE",
"442 0 CURVE SMOOTH"
);
},
{
closed = 1;
nodes = (
"143 223 OFFCURVE",
"130 282 OFFCURVE",
"130 352 CURVE SMOOTH",
"130 408 LINE SMOOTH",
"130 465 OFFCURVE",
"139 515 OFFCURVE",
"159 557 CURVE",
"341 359 LINE",
"174 176 LINE"
);
}
);
width = 770;
}
);
unicode = 10693;
},
{
glyphname = u10694;
lastChange = "2017-12-19 23:21:51 +0000";
layers = (
{
layerId = UUID0;
paths = (
{
closed = 1;
nodes = (
"678 217 LINE",
"678 565 LINE",
"50 565 LINE",
"50 217 LINE"
);
},
{
closed = 1;
nodes = (
"120 502 LINE",
"333 502 LINE",
"333 280 LINE",
"120 280 LINE"
);
},
{
closed = 1;
nodes = (
"398 502 LINE",
"608 502 LINE",
"608 280 LINE",
"398 280 LINE"
);
}
);
width = 728;
}
);
unicode = 10694;
},
{
glyphname = u10695;
lastChange = "2017-12-19 23:21:51 +0000";
layers = (
{
layerId = UUID0;
paths = (
{
closed = 1;
nodes = (
"519 0 LINE",
"519 63 LINE",
"417 63 LINE",
"417 437 LINE",
"609 437 LINE",
"609 506 LINE SMOOTH",
"609 620 OFFCURVE",
"660 723 OFFCURVE",
"754 774 CURVE",
"716 825 LINE",
"599 764 OFFCURVE",
"539 647 OFFCURVE",
"539 506 CURVE SMOOTH",
"539 500 LINE",
"225 500 LINE",
"225 506 LINE SMOOTH",
"225 647 OFFCURVE",
"165 764 OFFCURVE",
"48 825 CURVE",
"10 774 LINE",
"104 723 OFFCURVE",
"155 620 OFFCURVE",
"155 506 CURVE SMOOTH",
"155 437 LINE",
"347 437 LINE",
"347 63 LINE",
"245 63 LINE",
"245 0 LINE"
);
},
{
closed = 1;
nodes = (
"447 593 LINE",
"462 700 OFFCURVE",
"489 745 OFFCURVE",
"518 792 CURVE",
"455 822 LINE",
"423 770 OFFCURVE",
"396 719 OFFCURVE",
"382 633 CURVE",
"368 719 OFFCURVE",
"340 770 OFFCURVE",
"309 822 CURVE",
"246 792 LINE",
"275 745 OFFCURVE",
"302 700 OFFCURVE",
"317 593 CURVE"
);
}
);
width = 764;
}
);
unicode = 10695;
},
{
glyphname = u10696;
lastChange = "2017-12-19 23:21:51 +0000";
layers = (
{
layerId = UUID0;
paths = (
{
closed = 1;
nodes = (
"509 0 LINE",
"509 63 LINE",
"377 63 LINE",
"377 130 LINE",
"469 130 LINE",
"469 188 LINE",
"377 188 LINE",
"377 245 LINE",
"468 258 OFFCURVE",
"527 323 OFFCURVE",
"527 403 CURVE SMOOTH",
"527 440 OFFCURVE",
"514 475 OFFCURVE",
"491 502 CURVE",
"562 786 LINE",
"496 807 LINE",
"431 547 LINE",
"414 554 OFFCURVE",
"396 559 OFFCURVE",
"377 562 CURVE",
"377 815 LINE",
"307 815 LINE",
"307 562 LINE",
"287 559 OFFCURVE",
"269 554 OFFCURVE",
"253 547 CURVE",
"188 807 LINE",
"122 786 LINE",
"192 502 LINE",
"170 475 OFFCURVE",
"157 440 OFFCURVE",
"157 403 CURVE SMOOTH",
"157 394 OFFCURVE",
"157 385 OFFCURVE",
"159 377 CURVE",
"20 377 LINE",
"20 314 LINE",
"185 314 LINE",
"211 278 OFFCURVE",
"253 253 OFFCURVE",
"307 245 CURVE",
"307 188 LINE",
"215 188 LINE",
"215 130 LINE",
"307 130 LINE",
"307 63 LINE",
"175 63 LINE",
"175 0 LINE"
);
},
{
closed = 1;
nodes = (
"267 305 OFFCURVE",
"225 349 OFFCURVE",
"225 404 CURVE SMOOTH",
"225 458 OFFCURVE",
"267 503 OFFCURVE",
"342 503 CURVE SMOOTH",
"415 503 OFFCURVE",
"459 458 OFFCURVE",
"459 404 CURVE SMOOTH",
"459 349 OFFCURVE",
"415 305 OFFCURVE",
"342 305 CURVE SMOOTH"
);
}
);
width = 612;
}
);
unicode = 10696;
},
{
glyphname = u10697;
lastChange = "2017-12-19 23:21:51 +0000";
layers = (
{
layerId = UUID0;
paths = (
{
closed = 1;
nodes = (
"438 0 LINE",
"438 63 LINE",
"336 63 LINE",
"336 367 LINE",
"381 375 OFFCURVE",
"420 386 OFFCURVE",
"464 386 CURVE SMOOTH",
"503 386 OFFCURVE",
"556 381 OFFCURVE",
"587 368 CURVE",
"581 358 OFFCURVE",
"573 350 OFFCURVE",
"565 342 CURVE",
"612 298 LINE",
"666 349 OFFCURVE",
"686 408 OFFCURVE",
"686 476 CURVE SMOOTH",
"686 554 OFFCURVE",
"660 611 OFFCURVE",
"612 655 CURVE",
"565 611 LINE",
"573 603 OFFCURVE",
"581 594 OFFCURVE",
"587 584 CURVE",
"556 571 OFFCURVE",
"503 567 OFFCURVE",
"464 567 CURVE SMOOTH",
"420 567 OFFCURVE",
"381 577 OFFCURVE",
"336 585 CURVE",
"336 737 LINE",
"438 737 LINE",
"438 800 LINE",
"164 800 LINE",
"164 737 LINE",
"266 737 LINE",
"266 596 LINE",
"251 597 OFFCURVE",
"235 598 OFFCURVE",
"218 598 CURVE SMOOTH",
"150 598 OFFCURVE",
"50 568 OFFCURVE",
"50 478 CURVE SMOOTH",
"50 385 OFFCURVE",
"150 355 OFFCURVE",
"218 355 CURVE SMOOTH",
"235 355 OFFCURVE",
"251 355 OFFCURVE",
"266 357 CURVE",
"266 63 LINE",
"164 63 LINE",
"164 0 LINE"
);
},
{
closed = 1;
nodes = (
"181 418 OFFCURVE",
"119 429 OFFCURVE",
"119 476 CURVE SMOOTH",
"119 524 OFFCURVE",
"181 535 OFFCURVE",
"230 535 CURVE SMOOTH",
"242 535 OFFCURVE",
"254 534 OFFCURVE",
"266 533 CURVE",
"266 420 LINE",
"254 419 OFFCURVE",
"242 418 OFFCURVE",
"230 418 CURVE SMOOTH"
);
},
{
closed = 1;
nodes = (
"576 443 OFFCURVE",
"517 452 OFFCURVE",
"471 452 CURVE SMOOTH",
"424 452 OFFCURVE",
"381 441 OFFCURVE",
"336 431 CURVE",
"336 521 LINE",
"381 512 OFFCURVE",
"424 501 OFFCURVE",
"471 501 CURVE SMOOTH",
"517 501 OFFCURVE",
"576 510 OFFCURVE",
"612 525 CURVE",
"615 507 OFFCURVE",
"616 494 OFFCURVE",
"616 476 CURVE SMOOTH",
"616 458 OFFCURVE",
"615 445 OFFCURVE",
"612 427 CURVE"
);
}
);
width = 736;
}
);
unicode = 10697;
},
{
glyphname = u10698;
lastChange = "2017-12-19 23:21:51 +0000";
layers = (
{
layerId = UUID0;
paths = (
{
closed = 1;
nodes = (
"315 0 LINE",
"320 117 OFFCURVE",
"338 249 OFFCURVE",
"351 386 CURVE",
"573 302 LINE",
"596 356 LINE",
"356 447 LINE",
"359 487 OFFCURVE",
"362 527 OFFCURVE",
"364 567 CURVE",
"596 656 LINE",
"573 710 LINE",
"365 631 LINE",
"365 640 LINE SMOOTH",
"365 733 OFFCURVE",
"313 815 OFFCURVE",
"191 815 CURVE SMOOTH",
"129 815 OFFCURVE",
"73 799 OFFCURVE",
"10 738 CURVE",
"54 693 LINE",
"102 737 OFFCURVE",
"148 751 OFFCURVE",
"184 751 CURVE SMOOTH",
"254 751 OFFCURVE",
"295 703 OFFCURVE",
"295 642 CURVE SMOOTH",
"295 629 OFFCURVE",
"294 616 OFFCURVE",
"294 604 CURVE",
"119 537 LINE",
"119 475 LINE",
"283 412 LINE",
"270 277 OFFCURVE",
"250 153 OFFCURVE",
"245 0 CURVE"
);
},
{
closed = 1;
nodes = (
"203 506 LINE",
"292 540 LINE",
"291 517 OFFCURVE",
"290 495 OFFCURVE",
"288 473 CURVE"
);
},
{
closed = 1;
nodes = (
"467 462 OFFCURVE",
"486 481 OFFCURVE",
"486 505 CURVE SMOOTH",
"486 529 OFFCURVE",
"467 548 OFFCURVE",
"443 548 CURVE SMOOTH",
"419 548 OFFCURVE",
"400 529 OFFCURVE",
"400 505 CURVE SMOOTH",
"400 481 OFFCURVE",
"419 462 OFFCURVE",
"443 462 CURVE SMOOTH"
);
},
{
closed = 1;
nodes = (
"718 266 OFFCURVE",
"781 377 OFFCURVE",
"781 503 CURVE SMOOTH",
"781 639 OFFCURVE",
"713 752 OFFCURVE",
"604 815 CURVE",
"562 769 LINE",
"654 717 OFFCURVE",
"711 615 OFFCURVE",
"711 503 CURVE SMOOTH",
"711 399 OFFCURVE",
"658 306 OFFCURVE",
"577 251 CURVE",
"622 200 LINE"
);
}
);
width = 821;
}
);
unicode = 10698;
},
{
glyphname = u10699;
lastChange = "2017-12-19 23:21:51 +0000";
layers = (
{
layerId = UUID0;
paths = (
{
closed = 1;
nodes = (
"530 72 LINE",
"503 129 LINE",
"349 63 LINE",
"349 125 LINE",
"500 192 LINE",
"473 249 LINE",
"349 195 LINE",
"349 747 LINE",
"446 730 OFFCURVE",
"521 627 OFFCURVE",
"539 513 CURVE",
"608 524 LINE",
"577 682 OFFCURVE",
"459 815 OFFCURVE",
"321 815 CURVE SMOOTH",
"307 815 LINE SMOOTH",
"169 815 OFFCURVE",
"51 682 OFFCURVE",
"20 524 CURVE",
"89 513 LINE",
"106 627 OFFCURVE",
"182 730 OFFCURVE",
"279 747 CURVE",
"279 11 LINE",
"333 -15 LINE"
);
}
);
width = 628;
}
);
unicode = 10699;
},
{
glyphname = u1069A;
lastChange = "2017-12-19 23:21:51 +0000";
layers = (
{
layerId = UUID0;
paths = (
{
closed = 1;
nodes = (
"125 492 OFFCURVE",
"149 527 OFFCURVE",
"199 527 CURVE SMOOTH",
"243 527 OFFCURVE",
"301 480 OFFCURVE",
"385 480 CURVE SMOOTH",
"471 480 OFFCURVE",
"529 527 OFFCURVE",
"573 527 CURVE SMOOTH",
"621 527 OFFCURVE",
"647 492 OFFCURVE",
"667 444 CURVE",
"722 469 LINE",
"694 536 OFFCURVE",
"643 591 OFFCURVE",
"577 591 CURVE SMOOTH",
"513 591 OFFCURVE",
"460 542 OFFCURVE",
"385 542 CURVE SMOOTH",
"312 542 OFFCURVE",
"253 591 OFFCURVE",
"201 591 CURVE SMOOTH",
"129 591 OFFCURVE",
"78 536 OFFCURVE",
"50 469 CURVE",
"105 444 LINE"
);
},
{
closed = 1;
nodes = (
"192 0 LINE",
"248 290 LINE",
"178 290 LINE",
"123 0 LINE"
);
},
{
closed = 1;
nodes = (
"648 0 LINE",
"593 290 LINE",
"523 290 LINE",
"579 0 LINE"
);
},
{
closed = 1;
nodes = (
"125 342 OFFCURVE",
"149 377 OFFCURVE",
"199 377 CURVE SMOOTH",
"243 377 OFFCURVE",
"301 330 OFFCURVE",
"385 330 CURVE SMOOTH",
"471 330 OFFCURVE",
"529 377 OFFCURVE",
"573 377 CURVE SMOOTH",
"621 377 OFFCURVE",
"647 342 OFFCURVE",
"667 294 CURVE",
"722 319 LINE",
"694 386 OFFCURVE",
"643 441 OFFCURVE",
"577 441 CURVE SMOOTH",
"513 441 OFFCURVE",
"460 392 OFFCURVE",
"385 392 CURVE SMOOTH",
"312 392 OFFCURVE",
"253 441 OFFCURVE",
"201 441 CURVE SMOOTH",
"129 441 OFFCURVE",
"78 386 OFFCURVE",
"50 319 CURVE",
"105 294 LINE"
);
},
{
closed = 1;
nodes = (
"350 794 LINE",
"286 820 LINE",
"213 644 LINE",
"277 617 LINE"
);
},
{
closed = 1;
nodes = (
"559 644 LINE",
"486 820 LINE",
"422 794 LINE",
"495 617 LINE"
);
}
);
width = 772;
}
);
unicode = 1069A;
},
{
glyphname = u1069B;
lastChange = "2017-12-19 23:21:51 +0000";
layers = (
{
layerId = UUID0;
paths = (
{
closed = 1;
nodes = (
"502 -15 OFFCURVE",
"648 209 OFFCURVE",
"648 419 CURVE SMOOTH",
"648 520 OFFCURVE",
"626 636 OFFCURVE",
"590 731 CURVE",
"532 703 LINE",
"557 626 OFFCURVE",
"574 531 OFFCURVE",
"577 448 CURVE",
"306 448 LINE",
"326 597 OFFCURVE",
"429 734 OFFCURVE",
"557 761 CURVE",
"560 825 LINE",
"360 787 OFFCURVE",
"233 595 OFFCURVE",
"233 398 CURVE SMOOTH",
"233 188 OFFCURVE",
"305 -15 OFFCURVE",
"404 -15 CURVE SMOOTH"
);
},
{
closed = 1;
nodes = (
"120 320 LINE",
"120 527 LINE",
"229 527 LINE",
"240 590 LINE",
"50 590 LINE",
"50 320 LINE"
);
},
{
closed = 1;
nodes = (
"336 117 OFFCURVE",
"304 230 OFFCURVE",
"303 390 CURVE",
"577 390 LINE",
"567 236 OFFCURVE",
"480 91 OFFCURVE",
"410 50 CURVE",
"398 50 LINE"
);
},
{
closed = 1;
nodes = (
"851 320 LINE",
"851 497 LINE SMOOTH",
"851 590 OFFCURVE",
"792 621 OFFCURVE",
"741 621 CURVE SMOOTH",
"703 621 OFFCURVE",
"677 613 OFFCURVE",
"651 592 CURVE",
"662 529 LINE",
"684 552 OFFCURVE",
"708 560 OFFCURVE",
"732 560 CURVE SMOOTH",
"753 560 OFFCURVE",
"781 546 OFFCURVE",
"781 491 CURVE SMOOTH",
"781 320 LINE"
);
}
);
width = 901;
}
);
unicode = 1069B;
},
{
glyphname = u1069C;
lastChange = "2017-12-19 23:21:51 +0000";
layers = (
{
layerId = UUID0;
paths = (
{
closed = 1;
nodes = (
"225 419 LINE",
"163 444 OFFCURVE",
"120 505 OFFCURVE",
"120 578 CURVE SMOOTH",
"120 674 OFFCURVE",
"193 750 OFFCURVE",
"287 750 CURVE SMOOTH",
"382 750 OFFCURVE",
"455 674 OFFCURVE",
"455 578 CURVE SMOOTH",
"455 503 OFFCURVE",
"411 443 OFFCURVE",
"350 419 CURVE",
"383 362 LINE",
"467 398 OFFCURVE",
"525 480 OFFCURVE",
"525 577 CURVE SMOOTH",
"525 708 OFFCURVE",
"418 815 OFFCURVE",
"287 815 CURVE SMOOTH",
"156 815 OFFCURVE",
"50 708 OFFCURVE",
"50 577 CURVE SMOOTH",
"50 480 OFFCURVE",
"108 398 OFFCURVE",
"191 362 CURVE"
);
},
{
closed = 1;
nodes = (
"323 0 LINE",
"323 540 LINE",
"253 540 LINE",
"253 0 LINE"
);
},
{
closed = 1;
nodes = (
"227 543 OFFCURVE",
"246 562 OFFCURVE",
"246 586 CURVE SMOOTH",
"246 610 OFFCURVE",
"227 629 OFFCURVE",
"203 629 CURVE SMOOTH",
"179 629 OFFCURVE",
"160 610 OFFCURVE",
"160 586 CURVE SMOOTH",
"160 562 OFFCURVE",
"179 543 OFFCURVE",
"203 543 CURVE SMOOTH"
);
},
{
closed = 1;
nodes = (
"397 543 OFFCURVE",
"416 562 OFFCURVE",
"416 586 CURVE SMOOTH",
"416 610 OFFCURVE",
"397 629 OFFCURVE",
"373 629 CURVE SMOOTH",
"349 629 OFFCURVE",
"330 610 OFFCURVE",
"330 586 CURVE SMOOTH",
"330 562 OFFCURVE",
"349 543 OFFCURVE",
"373 543 CURVE SMOOTH"
);
}
);
width = 575;
}
);
unicode = 1069C;
},
{
glyphname = u1069D;
lastChange = "2017-12-19 23:21:51 +0000";
layers = (
{
layerId = UUID0;
paths = (
{
closed = 1;
nodes = (
"90 0 LINE",
"102 71 OFFCURVE",
"180 131 OFFCURVE",
"278 204 CURVE",
"341 141 OFFCURVE",
"416 89 OFFCURVE",
"501 53 CURVE",
"535 108 LINE",
"458 145 OFFCURVE",
"392 192 OFFCURVE",
"335 247 CURVE",
"390 291 LINE",
"445 238 OFFCURVE",
"509 193 OFFCURVE",
"582 160 CURVE",
"616 217 LINE",
"550 251 OFFCURVE",
"492 292 OFFCURVE",
"442 340 CURVE",
"506 407 OFFCURVE",
"544 481 OFFCURVE",
"544 587 CURVE SMOOTH",
"544 661 OFFCURVE",
"505 767 OFFCURVE",
"387 767 CURVE SMOOTH",
"338 767 OFFCURVE",
"310 753 OFFCURVE",
"260 753 CURVE SMOOTH",
"237 753 OFFCURVE",
"203 768 OFFCURVE",
"197 800 CURVE",
"120 800 LINE",
"131 726 OFFCURVE",
"196 689 OFFCURVE",
"255 689 CURVE SMOOTH",
"316 689 OFFCURVE",
"344 704 OFFCURVE",
"385 704 CURVE SMOOTH",
"444 704 OFFCURVE",
"474 654 OFFCURVE",
"474 576 CURVE SMOOTH",
"474 499 OFFCURVE",
"450 444 OFFCURVE",
"397 387 CURVE",
"365 424 OFFCURVE",
"336 465 OFFCURVE",
"311 510 CURVE",
"248 477 LINE",
"275 427 OFFCURVE",
"307 380 OFFCURVE",
"345 337 CURVE",
"291 294 LINE",
"251 340 OFFCURVE",
"217 391 OFFCURVE",
"190 448 CURVE",
"129 413 LINE",
"157 355 OFFCURVE",
"193 301 OFFCURVE",
"235 251 CURVE",
"132 174 OFFCURVE",
"35 97 OFFCURVE",
"20 0 CURVE"
);
},
{
closed = 1;
nodes = (
"264 102 LINE",
"208 126 LINE",
"159 18 LINE",
"214 -5 LINE"
);
},
{
closed = 1;
nodes = (
"364 92 LINE",
"308 116 LINE",
"259 8 LINE",
"314 -15 LINE"
);
}
);
width = 636;
}
);
unicode = 1069D;
},
{
glyphname = u1069E;
lastChange = "2017-12-19 23:21:51 +0000";
layers = (
{
layerId = UUID0;
paths = (
{
closed = 1;
nodes = (
"170 0 LINE",
"170 350 LINE",
"540 350 LINE",
"540 800 LINE",
"100 800 LINE",
"100 0 LINE"
);
},
{
closed = 1;
nodes = (
"170 737 LINE",
"470 737 LINE",
"470 413 LINE",
"170 413 LINE"
);
}
);
width = 620;
}
);
unicode = 1069E;
},
{
glyphname = u1069F;
lastChange = "2017-12-19 23:21:51 +0000";
layers = (
{
layerId = UUID0;
paths = (
{
closed = 1;
nodes = (
"495 -15 LINE SMOOTH",
"666 -13 OFFCURVE",
"853 69 OFFCURVE",
"942 192 CURVE",
"886 231 LINE",
"813 131 OFFCURVE",
"656 58 OFFCURVE",
"516 50 CURVE",
"516 737 LINE",
"658 737 LINE",
"658 800 LINE",
"304 800 LINE",
"304 737 LINE",
"446 737 LINE",
"446 50 LINE",
"306 58 OFFCURVE",
"148 131 OFFCURVE",
"76 231 CURVE",
"20 192 LINE",
"109 69 OFFCURVE",
"295 -13 OFFCURVE",
"467 -15 CURVE SMOOTH"
);
},
{
closed = 1;
nodes = (
"436 237 LINE",
"198 381 LINE",
"160 324 LINE",
"416 166 LINE"
);
},
{
closed = 1;
nodes = (
"384 624 LINE",
"325 647 LINE",
"266 498 LINE",
"327 475 LINE"
);
},
{
closed = 1;
nodes = (
"802 324 LINE",
"764 381 LINE",
"526 237 LINE",
"546 166 LINE"
);
},
{
closed = 1;
nodes = (
"925 504 LINE",
"925 567 LINE",
"642 567 LINE",
"642 504 LINE"
);
}
);
width = 982;
}
);
unicode = 1069F;
},
{
glyphname = u106A0;
lastChange = "2017-12-19 23:21:51 +0000";
layers = (
{
layerId = UUID0;
paths = (
{
closed = 1;
nodes = (
"584 0 LINE",
"584 63 LINE",
"399 63 LINE",
"614 540 LINE",
"614 600 LINE",
"50 600 LINE",
"50 540 LINE",
"264 63 LINE",
"80 63 LINE",
"80 0 LINE"
);
},
{
closed = 1;
nodes = (
"123 537 LINE",
"541 537 LINE",
"332 69 LINE"
);
}
);
width = 664;
}
);
unicode = 106A0;
},
{
glyphname = u106A1;
lastChange = "2017-12-19 23:21:51 +0000";
layers = (
{
layerId = UUID0;
paths = (
{
closed = 1;
nodes = (
"589 0 LINE",
"589 63 LINE",
"489 63 LINE",
"566 267 LINE",
"744 267 LINE",
"744 330 LINE",
"590 330 LINE",
"669 540 LINE",
"669 600 LINE",
"105 600 LINE",
"105 540 LINE",
"184 330 LINE",
"30 330 LINE",
"30 267 LINE",
"208 267 LINE",
"285 63 LINE",
"185 63 LINE",
"185 0 LINE"
);
},
{
closed = 1;
nodes = (
"178 537 LINE",
"596 537 LINE",
"422 63 LINE",
"349 63 LINE"
);
}
);
width = 774;
}
);
unicode = 106A1;
},
{
glyphname = u106A2;
lastChange = "2017-12-19 23:21:51 +0000";
layers = (
{
layerId = UUID0;
paths = (
{
closed = 1;
nodes = (
"513 0 LINE",
"644 540 LINE",
"644 600 LINE",
"40 600 LINE",
"40 540 LINE",
"172 0 LINE"
);
},
{
closed = 1;
nodes = (
"108 537 LINE",
"575 537 LINE",
"465 63 LINE",
"219 63 LINE"
);
}
);
width = 684;
}
);
unicode = 106A2;
},
{
glyphname = u106A3;
lastChange = "2017-12-19 23:21:51 +0000";
layers = (
{
layerId = UUID0;
paths = (
{
closed = 1;
nodes = (
"514 0 LINE",
"514 154 LINE",
"644 660 LINE",
"644 720 LINE",
"40 720 LINE",
"40 660 LINE",
"170 157 LINE",
"170 0 LINE"
);
},
{
closed = 1;
nodes = (
"235 150 LINE",
"449 150 LINE",
"449 63 LINE",
"235 63 LINE"
);
},
{
closed = 1;
nodes = (
"108 657 LINE",
"575 657 LINE",
"465 213 LINE",
"219 213 LINE"
);
}
);
width = 684;
}
);
unicode = 106A3;
},
{
glyphname = u106A4;
lastChange = "2017-12-19 23:21:51 +0000";
layers = (
{
layerId = UUID0;
paths = (
{
closed = 1;
nodes = (
"580 0 LINE",
"711 540 LINE",
"711 600 LINE",
"107 600 LINE",
"107 540 LINE",
"134 429 LINE",
"128 430 OFFCURVE",
"123 430 OFFCURVE",
"118 430 CURVE SMOOTH",
"60 430 OFFCURVE",
"20 384 OFFCURVE",
"20 330 CURVE SMOOTH",
"20 277 OFFCURVE",
"60 232 OFFCURVE",
"118 232 CURVE SMOOTH",
"138 232 OFFCURVE",
"160 235 OFFCURVE",
"180 241 CURVE",
"239 0 LINE"
);
},
{
closed = 1;
nodes = (
"94 285 OFFCURVE",
"74 304 OFFCURVE",
"74 330 CURVE SMOOTH",
"74 356 OFFCURVE",
"94 377 OFFCURVE",
"119 377 CURVE SMOOTH",
"128 377 OFFCURVE",
"138 376 OFFCURVE",
"147 374 CURVE",
"168 291 LINE",
"152 287 OFFCURVE",
"135 285 OFFCURVE",
"119 285 CURVE SMOOTH"
);
},
{
closed = 1;
nodes = (
"175 537 LINE",
"642 537 LINE",
"532 63 LINE",
"286 63 LINE"
);
}
);
width = 751;
}
);
unicode = 106A4;
},
{
glyphname = u106A5;
lastChange = "2017-12-19 23:21:51 +0000";
layers = (
{
layerId = UUID0;
paths = (
{
closed = 1;
nodes = (
"580 0 LINE",
"638 241 LINE",
"658 235 OFFCURVE",
"680 232 OFFCURVE",
"700 232 CURVE SMOOTH",
"758 232 OFFCURVE",
"798 277 OFFCURVE",
"798 330 CURVE SMOOTH",
"798 384 OFFCURVE",
"758 430 OFFCURVE",
"700 430 CURVE SMOOTH",
"695 430 OFFCURVE",
"689 430 OFFCURVE",
"684 429 CURVE",
"711 540 LINE",
"711 600 LINE",
"107 600 LINE",
"107 540 LINE",
"134 429 LINE",
"128 430 OFFCURVE",
"123 430 OFFCURVE",
"118 430 CURVE SMOOTH",
"60 430 OFFCURVE",
"20 384 OFFCURVE",
"20 330 CURVE SMOOTH",
"20 277 OFFCURVE",
"60 232 OFFCURVE",
"118 232 CURVE SMOOTH",
"138 232 OFFCURVE",
"160 235 OFFCURVE",
"180 241 CURVE",
"239 0 LINE"
);
},
{
closed = 1;
nodes = (
"94 285 OFFCURVE",
"74 304 OFFCURVE",
"74 330 CURVE SMOOTH",
"74 356 OFFCURVE",
"94 377 OFFCURVE",
"119 377 CURVE SMOOTH",
"128 377 OFFCURVE",
"138 376 OFFCURVE",
"147 374 CURVE",
"168 291 LINE",
"152 287 OFFCURVE",
"135 285 OFFCURVE",
"119 285 CURVE SMOOTH"
);
},
{
closed = 1;
nodes = (
"175 537 LINE",
"642 537 LINE",
"532 63 LINE",
"286 63 LINE"
);
},
{
closed = 1;
nodes = (
"683 285 OFFCURVE",
"666 287 OFFCURVE",
"650 291 CURVE",
"671 374 LINE",
"680 376 OFFCURVE",
"690 377 OFFCURVE",
"699 377 CURVE SMOOTH",
"724 377 OFFCURVE",
"744 356 OFFCURVE",
"744 330 CURVE SMOOTH",
"744 304 OFFCURVE",
"724 285 OFFCURVE",
"699 285 CURVE SMOOTH"
);
}
);
width = 818;
}
);
unicode = 106A5;
},
{
glyphname = u106A6;
lastChange = "2017-12-19 23:21:51 +0000";
layers = (
{
layerId = UUID0;
paths = (
{
closed = 1;
nodes = (
"626 0 LINE",
"753 495 LINE",
"766 493 OFFCURVE",
"779 492 OFFCURVE",
"792 492 CURVE SMOOTH",
"850 492 OFFCURVE",
"890 538 OFFCURVE",
"890 592 CURVE SMOOTH",
"890 645 OFFCURVE",
"850 690 OFFCURVE",
"792 690 CURVE SMOOTH",
"764 690 OFFCURVE",
"735 684 OFFCURVE",
"709 673 CURVE",
"660 759 OFFCURVE",
"578 815 OFFCURVE",
"461 815 CURVE SMOOTH",
"341 815 OFFCURVE",
"254 759 OFFCURVE",
"202 672 CURVE",
"176 683 OFFCURVE",
"146 690 OFFCURVE",
"118 690 CURVE SMOOTH",
"60 690 OFFCURVE",
"20 645 OFFCURVE",
"20 592 CURVE SMOOTH",
"20 538 OFFCURVE",
"60 492 OFFCURVE",
"118 492 CURVE SMOOTH",
"130 492 OFFCURVE",
"143 493 OFFCURVE",
"156 495 CURVE",
"285 0 LINE"
);
},
{
closed = 1;
nodes = (
"94 545 OFFCURVE",
"74 566 OFFCURVE",
"74 592 CURVE SMOOTH",
"74 618 OFFCURVE",
"94 637 OFFCURVE",
"119 637 CURVE SMOOTH",
"139 637 OFFCURVE",
"160 634 OFFCURVE",
"179 628 CURVE",
"168 603 OFFCURVE",
"160 577 OFFCURVE",
"155 549 CURVE",
"143 546 OFFCURVE",
"130 545 OFFCURVE",
"119 545 CURVE SMOOTH"
);
},
{
closed = 1;
nodes = (
"221 507 LINE",
"688 507 LINE",
"578 63 LINE",
"332 63 LINE"
);
},
{
closed = 1;
nodes = (
"262 675 OFFCURVE",
"339 750 OFFCURVE",
"461 750 CURVE SMOOTH",
"581 750 OFFCURVE",
"658 675 OFFCURVE",
"691 570 CURVE",
"230 570 LINE"
);
},
{
closed = 1;
nodes = (
"779 545 OFFCURVE",
"767 546 OFFCURVE",
"754 549 CURVE",
"749 577 OFFCURVE",
"741 603 OFFCURVE",
"731 628 CURVE",
"749 634 OFFCURVE",
"771 637 OFFCURVE",
"791 637 CURVE SMOOTH",
"816 637 OFFCURVE",
"836 618 OFFCURVE",
"836 592 CURVE SMOOTH",
"836 566 OFFCURVE",
"816 545 OFFCURVE",
"791 545 CURVE SMOOTH"
);
}
);
width = 910;
}
);
unicode = 106A6;
},
{
glyphname = u106A7;
lastChange = "2017-12-19 23:21:51 +0000";
layers = (
{
layerId = UUID0;
paths = (
{
closed = 1;
nodes = (
"523 0 LINE",
"654 540 LINE",
"641 572 LINE",
"649 595 OFFCURVE",
"654 621 OFFCURVE",
"654 645 CURVE SMOOTH",
"654 703 OFFCURVE",
"609 743 OFFCURVE",
"556 743 CURVE SMOOTH",
"502 743 OFFCURVE",
"456 703 OFFCURVE",
"456 645 CURVE SMOOTH",
"456 630 OFFCURVE",
"457 615 OFFCURVE",
"461 600 CURVE",
"243 600 LINE",
"247 615 OFFCURVE",
"248 630 OFFCURVE",
"248 645 CURVE SMOOTH",
"248 703 OFFCURVE",
"202 743 OFFCURVE",
"148 743 CURVE SMOOTH",
"95 743 OFFCURVE",
"50 703 OFFCURVE",
"50 645 CURVE SMOOTH",
"50 622 OFFCURVE",
"53 599 OFFCURVE",
"61 577 CURVE",
"50 540 LINE",
"182 0 LINE"
);
},
{
closed = 1;
nodes = (
"118 537 LINE",
"585 537 LINE",
"475 63 LINE",
"229 63 LINE"
);
},
{
closed = 1;
nodes = (
"105 614 OFFCURVE",
"103 629 OFFCURVE",
"103 644 CURVE SMOOTH",
"103 669 OFFCURVE",
"122 689 OFFCURVE",
"148 689 CURVE SMOOTH",
"174 689 OFFCURVE",
"195 669 OFFCURVE",
"195 644 CURVE SMOOTH",
"195 630 OFFCURVE",
"192 614 OFFCURVE",
"189 600 CURVE",
"108 600 LINE"
);
},
{
closed = 1;
nodes = (
"511 614 OFFCURVE",
"509 630 OFFCURVE",
"509 644 CURVE SMOOTH",
"509 669 OFFCURVE",
"530 689 OFFCURVE",
"556 689 CURVE SMOOTH",
"582 689 OFFCURVE",
"601 669 OFFCURVE",
"601 644 CURVE SMOOTH",
"601 629 OFFCURVE",
"599 614 OFFCURVE",
"596 600 CURVE",
"514 600 LINE"
);
}
);
width = 704;
}
);
unicode = 106A7;
},
{
glyphname = u106A8;
lastChange = "2017-12-19 23:21:51 +0000";
layers = (
{
layerId = UUID0;
paths = (
{
closed = 1;
nodes = (
"511 313 LINE",
"589 224 OFFCURVE",
"642 119 OFFCURVE",
"672 0 CURVE",
"740 0 LINE",
"714 140 OFFCURVE",
"647 269 OFFCURVE",
"553 371 CURVE",
"616 458 LINE",
"649 440 OFFCURVE",
"684 432 OFFCURVE",
"728 432 CURVE SMOOTH",
"786 432 OFFCURVE",
"826 477 OFFCURVE",
"826 530 CURVE SMOOTH",
"826 580 OFFCURVE",
"791 623 OFFCURVE",
"739 629 CURVE",
"820 740 LINE",
"820 800 LINE",
"56 800 LINE",
"56 740 LINE",
"136 629 LINE",
"84 623 OFFCURVE",
"50 580 OFFCURVE",
"50 530 CURVE SMOOTH",
"50 477 OFFCURVE",
"90 432 OFFCURVE",
"148 432 CURVE SMOOTH",
"192 432 OFFCURVE",
"227 440 OFFCURVE",
"260 459 CURVE",
"324 372 LINE",
"229 270 OFFCURVE",
"161 140 OFFCURVE",
"136 0 CURVE",
"204 0 LINE",
"234 119 OFFCURVE",
"287 225 OFFCURVE",
"365 314 CURVE",
"411 251 LINE",
"323 10 LINE",
"389 -15 LINE"
);
},
{
closed = 1;
nodes = (
"124 485 OFFCURVE",
"104 504 OFFCURVE",
"104 530 CURVE SMOOTH",
"104 556 OFFCURVE",
"124 577 OFFCURVE",
"149 577 CURVE SMOOTH",
"157 577 OFFCURVE",
"167 576 OFFCURVE",
"176 575 CURVE",
"230 500 LINE",
"207 489 OFFCURVE",
"171 485 OFFCURVE",
"149 485 CURVE SMOOTH"
);
},
{
closed = 1;
nodes = (
"139 737 LINE",
"737 737 LINE",
"438 329 LINE"
);
},
{
closed = 1;
nodes = (
"705 485 OFFCURVE",
"669 489 OFFCURVE",
"646 500 CURVE",
"700 575 LINE",
"709 576 OFFCURVE",
"718 577 OFFCURVE",
"727 577 CURVE SMOOTH",
"752 577 OFFCURVE",
"772 556 OFFCURVE",
"772 530 CURVE SMOOTH",
"772 504 OFFCURVE",
"752 485 OFFCURVE",
"727 485 CURVE SMOOTH"
);
}
);
width = 876;
}
);
unicode = 106A8;
},
{
glyphname = u106A9;
lastChange = "2017-12-19 23:21:51 +0000";
layers = (
{
layerId = UUID0;
paths = (
{
closed = 1;
nodes = (
"185 0 LINE",
"185 28 LINE SMOOTH",
"185 135 OFFCURVE",
"242 274 OFFCURVE",
"327 357 CURVE",
"342 354 OFFCURVE",
"358 351 OFFCURVE",
"374 350 CURVE",
"374 0 LINE",
"444 0 LINE",
"444 349 LINE",
"460 351 OFFCURVE",
"476 353 OFFCURVE",
"491 357 CURVE",
"576 273 OFFCURVE",
"633 135 OFFCURVE",
"633 28 CURVE SMOOTH",
"633 0 LINE",
"703 0 LINE",
"703 28 LINE SMOOTH",
"703 146 OFFCURVE",
"647 286 OFFCURVE",
"560 381 CURVE",
"689 444 OFFCURVE",
"768 586 OFFCURVE",
"768 737 CURVE SMOOTH",
"768 800 LINE",
"50 800 LINE",
"50 737 LINE SMOOTH",
"50 588 OFFCURVE",
"128 446 OFFCURVE",
"258 382 CURVE",
"171 287 OFFCURVE",
"115 147 OFFCURVE",
"115 28 CURVE SMOOTH",
"115 0 LINE"
);
},
{
closed = 1;
nodes = (
"237 413 OFFCURVE",
"136 556 OFFCURVE",
"127 737 CURVE",
"693 737 LINE",
"691 551 OFFCURVE",
"579 413 OFFCURVE",
"411 413 CURVE SMOOTH"
);
}
);
width = 818;
}
);
unicode = 106A9;
},
{
glyphname = u106AA;
lastChange = "2017-12-19 23:21:51 +0000";
layers = (
{
layerId = UUID0;
paths = (
{
closed = 1;
nodes = (
"185 0 LINE",
"185 8 LINE SMOOTH",
"185 114 OFFCURVE",
"241 252 OFFCURVE",
"325 335 CURVE",
"341 332 OFFCURVE",
"357 331 OFFCURVE",
"374 329 CURVE",
"374 0 LINE",
"444 0 LINE",
"444 329 LINE",
"461 330 OFFCURVE",
"477 332 OFFCURVE",
"493 335 CURVE",
"577 251 OFFCURVE",
"633 114 OFFCURVE",
"633 8 CURVE SMOOTH",
"633 0 LINE",
"703 0 LINE",
"703 8 LINE SMOOTH",
"703 124 OFFCURVE",
"649 260 OFFCURVE",
"565 355 CURVE",
"691 405 OFFCURVE",
"768 518 OFFCURVE",
"768 667 CURVE SMOOTH",
"768 725 LINE SMOOTH",
"768 783 OFFCURVE",
"723 823 OFFCURVE",
"670 823 CURVE SMOOTH",
"616 823 OFFCURVE",
"570 783 OFFCURVE",
"570 725 CURVE SMOOTH",
"570 710 OFFCURVE",
"571 695 OFFCURVE",
"575 680 CURVE",
"243 680 LINE",
"247 695 OFFCURVE",
"248 710 OFFCURVE",
"248 725 CURVE SMOOTH",
"248 783 OFFCURVE",
"202 823 OFFCURVE",
"148 823 CURVE SMOOTH",
"95 823 OFFCURVE",
"50 783 OFFCURVE",
"50 725 CURVE SMOOTH",
"50 667 LINE SMOOTH",
"50 520 OFFCURVE",
"126 406 OFFCURVE",
"253 356 CURVE",
"168 261 OFFCURVE",
"115 124 OFFCURVE",
"115 8 CURVE SMOOTH",
"115 0 LINE"
);
},
{
closed = 1;
nodes = (
"105 694 OFFCURVE",
"103 709 OFFCURVE",
"103 724 CURVE SMOOTH",
"103 749 OFFCURVE",
"122 769 OFFCURVE",
"148 769 CURVE SMOOTH",
"174 769 OFFCURVE",
"195 749 OFFCURVE",
"195 724 CURVE SMOOTH",
"195 710 OFFCURVE",
"192 694 OFFCURVE",
"189 680 CURVE",
"108 680 LINE"
);
},
{
closed = 1;
nodes = (
"237 393 OFFCURVE",
"136 516 OFFCURVE",
"127 617 CURVE",
"693 617 LINE",
"691 511 OFFCURVE",
"579 393 OFFCURVE",
"411 393 CURVE SMOOTH"
);
},
{
closed = 1;
nodes = (
"625 694 OFFCURVE",
"623 710 OFFCURVE",
"623 724 CURVE SMOOTH",
"623 749 OFFCURVE",
"644 769 OFFCURVE",
"670 769 CURVE SMOOTH",
"696 769 OFFCURVE",
"715 749 OFFCURVE",
"715 724 CURVE SMOOTH",
"715 709 OFFCURVE",
"713 694 OFFCURVE",
"710 680 CURVE",
"628 680 LINE"
);
}
);
width = 818;
}
);
unicode = 106AA;
},
{
glyphname = u106AB;
lastChange = "2017-12-19 23:27:40 +0000";
layers = (
{
layerId = UUID0;
paths = (
{
closed = 1;
nodes = (
"305 0 LINE",
"305 28 LINE SMOOTH",
"305 135 OFFCURVE",
"362 274 OFFCURVE",
"447 357 CURVE",
"462 354 OFFCURVE",
"478 351 OFFCURVE",
"494 350 CURVE",
"494 0 LINE",
"564 0 LINE",
"564 349 LINE",
"580 351 OFFCURVE",
"596 353 OFFCURVE",
"611 357 CURVE",
"696 273 OFFCURVE",
"753 135 OFFCURVE",
"753 28 CURVE SMOOTH",
"753 0 LINE",
"823 0 LINE",
"823 28 LINE SMOOTH",
"823 146 OFFCURVE",
"767 286 OFFCURVE",
"680 381 CURVE",
"809 444 OFFCURVE",
"888 586 OFFCURVE",
"888 737 CURVE SMOOTH",
"888 800 LINE",
"170 800 LINE",
"170 737 LINE SMOOTH",
"170 588 OFFCURVE",
"248 446 OFFCURVE",
"378 382 CURVE",
"291 287 OFFCURVE",
"235 147 OFFCURVE",
"235 28 CURVE SMOOTH",
"235 0 LINE"
);
},
{
closed = 1;
nodes = (
"357 413 OFFCURVE",
"256 556 OFFCURVE",
"247 737 CURVE",
"813 737 LINE",
"811 551 OFFCURVE",
"699 413 OFFCURVE",
"531 413 CURVE SMOOTH"
);
},
{
closed = 1;
nodes = (
"1038 597 LINE",
"1038 660 LINE",
"838 660 LINE",
"838 597 LINE"
);
},
{
closed = 1;
nodes = (
"220 597 LINE",
"220 660 LINE",
"20 660 LINE",
"20 597 LINE"
);
}
);
width = 1058;
}
);
unicode = 106AB;
},
{
glyphname = u106AC;
lastChange = "2017-12-19 23:21:51 +0000";
layers = (
{
layerId = UUID0;
paths = (
{
closed = 1;
nodes = (
"484 0 LINE",
"484 44 LINE SMOOTH",
"484 198 OFFCURVE",
"626 218 OFFCURVE",
"626 336 CURVE SMOOTH",
"626 414 OFFCURVE",
"561 505 OFFCURVE",
"463 556 CURVE",
"522 740 LINE",
"522 800 LINE",
"161 800 LINE",
"161 740 LINE",
"167 719 LINE",
"161 719 OFFCURVE",
"154 720 OFFCURVE",
"148 720 CURVE SMOOTH",
"90 720 OFFCURVE",
"50 674 OFFCURVE",
"50 620 CURVE SMOOTH",
"50 567 OFFCURVE",
"90 522 OFFCURVE",
"148 522 CURVE SMOOTH",
"154 522 OFFCURVE",
"161 522 OFFCURVE",
"168 523 CURVE",
"99 471 OFFCURVE",
"57 399 OFFCURVE",
"57 336 CURVE SMOOTH",
"57 218 OFFCURVE",
"199 198 OFFCURVE",
"199 44 CURVE SMOOTH",
"199 0 LINE"
);
},
{
closed = 1;
nodes = (
"262 229 OFFCURVE",
"127 234 OFFCURVE",
"127 336 CURVE SMOOTH",
"127 397 OFFCURVE",
"167 473 OFFCURVE",
"289 523 CURVE",
"289 564 LINE",
"234 737 LINE",
"449 737 LINE",
"394 564 LINE",
"394 523 LINE",
"516 473 OFFCURVE",
"556 397 OFFCURVE",
"556 336 CURVE SMOOTH",
"556 234 OFFCURVE",
"421 229 OFFCURVE",
"421 63 CURVE",
"262 63 LINE"
);
},
{
closed = 1;
nodes = (
"124 575 OFFCURVE",
"104 594 OFFCURVE",
"104 620 CURVE SMOOTH",
"104 646 OFFCURVE",
"124 667 OFFCURVE",
"149 667 CURVE SMOOTH",
"160 667 OFFCURVE",
"173 665 OFFCURVE",
"185 663 CURVE",
"211 584 LINE",
"192 578 OFFCURVE",
"169 575 OFFCURVE",
"149 575 CURVE SMOOTH"
);
}
);
width = 676;
}
);
unicode = 106AC;
},
{
glyphname = u106AD;
lastChange = "2017-12-19 23:21:51 +0000";
layers = (
{
layerId = UUID0;
paths = (
{
closed = 1;
nodes = (
"602 0 LINE",
"602 44 LINE SMOOTH",
"602 198 OFFCURVE",
"750 412 OFFCURVE",
"750 567 CURVE SMOOTH",
"750 627 OFFCURVE",
"744 683 OFFCURVE",
"733 737 CURVE",
"810 737 LINE",
"810 800 LINE",
"206 800 LINE",
"198 770 LINE",
"174 776 OFFCURVE",
"137 780 OFFCURVE",
"118 780 CURVE SMOOTH",
"60 780 OFFCURVE",
"20 734 OFFCURVE",
"20 680 CURVE SMOOTH",
"20 627 OFFCURVE",
"60 582 OFFCURVE",
"118 582 CURVE SMOOTH",
"136 582 OFFCURVE",
"155 584 OFFCURVE",
"174 589 CURVE",
"174 567 LINE SMOOTH",
"174 412 OFFCURVE",
"322 198 OFFCURVE",
"322 44 CURVE SMOOTH",
"322 0 LINE"
);
},
{
closed = 1;
nodes = (
"94 635 OFFCURVE",
"74 654 OFFCURVE",
"74 680 CURVE SMOOTH",
"74 706 OFFCURVE",
"94 727 OFFCURVE",
"119 727 CURVE SMOOTH",
"141 727 OFFCURVE",
"166 722 OFFCURVE",
"186 714 CURVE",
"182 691 OFFCURVE",
"179 667 OFFCURVE",
"177 643 CURVE",
"159 638 OFFCURVE",
"138 635 OFFCURVE",
"119 635 CURVE SMOOTH"
);
},
{
closed = 1;
nodes = (
"353 278 OFFCURVE",
"244 415 OFFCURVE",
"244 600 CURVE SMOOTH",
"244 643 OFFCURVE",
"251 688 OFFCURVE",
"265 737 CURVE",
"659 737 LINE",
"673 688 OFFCURVE",
"680 643 OFFCURVE",
"680 600 CURVE SMOOTH",
"680 415 OFFCURVE",
"571 278 OFFCURVE",
"539 63 CURVE",
"385 63 LINE"
);
}
);
width = 830;
}
);
unicode = 106AD;
},
{
glyphname = u106AE;
lastChange = "2017-12-19 23:21:51 +0000";
layers = (
{
layerId = UUID0;
paths = (
{
closed = 1;
nodes = (
"530 0 LINE",
"599 86 OFFCURVE",
"744 126 OFFCURVE",
"744 266 CURVE SMOOTH",
"744 370 OFFCURVE",
"642 394 OFFCURVE",
"642 509 CURVE SMOOTH",
"642 537 LINE",
"739 537 LINE",
"739 600 LINE",
"192 600 LINE",
"192 566 LINE",
"168 575 OFFCURVE",
"142 580 OFFCURVE",
"118 580 CURVE SMOOTH",
"60 580 OFFCURVE",
"20 535 OFFCURVE",
"20 482 CURVE SMOOTH",
"20 428 OFFCURVE",
"60 382 OFFCURVE",
"118 382 CURVE SMOOTH",
"125 382 OFFCURVE",
"133 382 OFFCURVE",
"140 383 CURVE",
"115 350 OFFCURVE",
"90 317 OFFCURVE",
"90 266 CURVE SMOOTH",
"90 126 OFFCURVE",
"235 86 OFFCURVE",
"304 0 CURVE"
);
},
{
closed = 1;
nodes = (
"94 435 OFFCURVE",
"74 456 OFFCURVE",
"74 482 CURVE SMOOTH",
"74 508 OFFCURVE",
"94 527 OFFCURVE",
"119 527 CURVE SMOOTH",
"143 527 OFFCURVE",
"171 522 OFFCURVE",
"192 513 CURVE",
"192 509 LINE SMOOTH",
"192 484 OFFCURVE",
"187 463 OFFCURVE",
"180 445 CURVE",
"161 439 OFFCURVE",
"138 435 OFFCURVE",
"119 435 CURVE SMOOTH"
);
},
{
closed = 1;
nodes = (
"235 149 OFFCURVE",
"160 194 OFFCURVE",
"160 270 CURVE SMOOTH",
"160 346 OFFCURVE",
"262 397 OFFCURVE",
"262 495 CURVE SMOOTH",
"262 537 LINE",
"572 537 LINE",
"572 470 LINE SMOOTH",
"572 420 OFFCURVE",
"674 346 OFFCURVE",
"674 270 CURVE SMOOTH",
"674 194 OFFCURVE",
"599 149 OFFCURVE",
"495 63 CURVE",
"339 63 LINE"
);
}
);
width = 794;
}
);
unicode = 106AE;
},
{
glyphname = u106AF;
lastChange = "2017-12-19 23:21:51 +0000";
layers = (
{
layerId = UUID0;
paths = (
{
closed = 1;
nodes = (
"469 0 LINE",
"538 86 OFFCURVE",
"702 328 OFFCURVE",
"702 468 CURVE SMOOTH",
"702 572 OFFCURVE",
"593 594 OFFCURVE",
"593 709 CURVE SMOOTH",
"593 737 LINE",
"672 737 LINE",
"672 800 LINE",
"80 800 LINE",
"80 737 LINE",
"159 737 LINE",
"159 709 LINE SMOOTH",
"159 594 OFFCURVE",
"50 572 OFFCURVE",
"50 468 CURVE SMOOTH",
"50 328 OFFCURVE",
"214 86 OFFCURVE",
"283 0 CURVE"
);
},
{
closed = 1;
nodes = (
"214 178 OFFCURVE",
"120 396 OFFCURVE",
"120 472 CURVE SMOOTH",
"120 548 OFFCURVE",
"229 597 OFFCURVE",
"229 695 CURVE SMOOTH",
"229 737 LINE",
"523 737 LINE",
"523 695 LINE SMOOTH",
"523 597 OFFCURVE",
"632 548 OFFCURVE",
"632 472 CURVE SMOOTH",
"632 396 OFFCURVE",
"538 178 OFFCURVE",
"434 63 CURVE",
"318 63 LINE"
);
}
);
width = 752;
}
);
unicode = 106AF;
},
{
glyphname = u106B0;
lastChange = "2017-12-19 23:21:51 +0000";
layers = (
{
layerId = UUID0;
paths = (
{
closed = 1;
nodes = (
"540 0 LINE",
"540 63 LINE",
"516 63 LINE",
"593 173 OFFCURVE",
"702 354 OFFCURVE",
"702 468 CURVE SMOOTH",
"702 572 OFFCURVE",
"593 594 OFFCURVE",
"593 709 CURVE SMOOTH",
"593 737 LINE",
"672 737 LINE",
"672 800 LINE",
"80 800 LINE",
"80 737 LINE",
"159 737 LINE",
"159 709 LINE SMOOTH",
"159 594 OFFCURVE",
"50 572 OFFCURVE",
"50 468 CURVE SMOOTH",
"50 354 OFFCURVE",
"158 173 OFFCURVE",
"236 63 CURVE",
"212 63 LINE",
"212 0 LINE"
);
},
{
closed = 1;
nodes = (
"214 178 OFFCURVE",
"120 396 OFFCURVE",
"120 472 CURVE SMOOTH",
"120 548 OFFCURVE",
"229 597 OFFCURVE",
"229 695 CURVE SMOOTH",
"229 737 LINE",
"523 737 LINE",
"523 695 LINE SMOOTH",
"523 597 OFFCURVE",
"632 548 OFFCURVE",
"632 472 CURVE SMOOTH",
"632 396 OFFCURVE",
"538 178 OFFCURVE",
"434 63 CURVE",
"318 63 LINE"
);
},
{
closed = 1;
nodes = (
"519 360 LINE",
"519 429 LINE SMOOTH",
"519 540 OFFCURVE",
"466 610 OFFCURVE",
"375 610 CURVE SMOOTH",
"285 610 OFFCURVE",
"233 540 OFFCURVE",
"233 429 CURVE SMOOTH",
"233 360 LINE",
"298 360 LINE",
"298 429 LINE SMOOTH",
"298 504 OFFCURVE",
"321 546 OFFCURVE",
"376 546 CURVE SMOOTH",
"430 546 OFFCURVE",
"454 504 OFFCURVE",
"454 429 CURVE SMOOTH",
"454 360 LINE"
);
}
);
width = 752;
}
);
unicode = 106B0;
},
{
glyphname = u106B1;
lastChange = "2017-12-19 23:21:51 +0000";
layers = (
{
layerId = UUID0;
paths = (
{
closed = 1;
nodes = (
"729 0 LINE",
"881 612 LINE",
"870 649 LINE",
"877 671 OFFCURVE",
"881 694 OFFCURVE",
"881 717 CURVE SMOOTH",
"881 775 OFFCURVE",
"836 815 OFFCURVE",
"783 815 CURVE SMOOTH",
"729 815 OFFCURVE",
"683 775 OFFCURVE",
"683 717 CURVE SMOOTH",
"683 702 OFFCURVE",
"684 687 OFFCURVE",
"688 672 CURVE",
"243 672 LINE",
"247 687 OFFCURVE",
"248 702 OFFCURVE",
"248 717 CURVE SMOOTH",
"248 775 OFFCURVE",
"202 815 OFFCURVE",
"148 815 CURVE SMOOTH",
"95 815 OFFCURVE",
"50 775 OFFCURVE",
"50 717 CURVE SMOOTH",
"50 694 OFFCURVE",
"53 671 OFFCURVE",
"61 649 CURVE",
"50 612 LINE",
"202 0 LINE"
);
},
{
closed = 1;
nodes = (
"419 257 LINE",
"464 303 LINE",
"509 256 LINE",
"464 210 LINE"
);
},
{
closed = 1;
nodes = (
"338 340 LINE",
"383 386 LINE",
"428 340 LINE",
"383 293 LINE"
);
},
{
closed = 1;
nodes = (
"118 609 LINE",
"813 609 LINE",
"682 63 LINE",
"249 63 LINE"
);
},
{
closed = 1;
nodes = (
"464 135 LINE",
"516 83 LINE",
"551 120 LINE",
"500 172 LINE",
"546 219 LINE",
"604 161 LINE",
"638 197 LINE",
"582 255 LINE",
"627 302 LINE",
"684 245 LINE",
"717 282 LINE",
"662 338 LINE",
"717 394 LINE",
"677 430 LINE",
"625 376 LINE",
"581 422 LINE",
"630 472 LINE",
"589 508 LINE",
"544 461 LINE",
"501 506 LINE",
"550 556 LINE",
"510 591 LINE",
"464 544 LINE",
"419 591 LINE",
"379 556 LINE",
"428 506 LINE",
"385 461 LINE",
"340 508 LINE",
"299 472 LINE",
"347 422 LINE",
"303 377 LINE",
"252 430 LINE",
"212 394 LINE",
"266 338 LINE",
"212 282 LINE",
"245 245 LINE",
"301 302 LINE",
"347 255 LINE",
"291 197 LINE",
"325 161 LINE",
"382 219 LINE",
"428 172 LINE",
"378 120 LINE",
"413 83 LINE"
);
},
{
closed = 1;
nodes = (
"105 686 OFFCURVE",
"103 701 OFFCURVE",
"103 716 CURVE SMOOTH",
"103 741 OFFCURVE",
"122 761 OFFCURVE",
"148 761 CURVE SMOOTH",
"174 761 OFFCURVE",
"195 741 OFFCURVE",
"195 716 CURVE SMOOTH",
"195 702 OFFCURVE",
"192 686 OFFCURVE",
"189 672 CURVE",
"108 672 LINE"
);
},
{
closed = 1;
nodes = (
"500 340 LINE",
"545 386 LINE",
"590 340 LINE",
"545 293 LINE"
);
},
{
closed = 1;
nodes = (
"420 424 LINE",
"464 469 LINE",
"508 424 LINE",
"464 378 LINE"
);
},
{
closed = 1;
nodes = (
"738 686 OFFCURVE",
"736 702 OFFCURVE",
"736 716 CURVE SMOOTH",
"736 741 OFFCURVE",
"757 761 OFFCURVE",
"783 761 CURVE SMOOTH",
"809 761 OFFCURVE",
"828 741 OFFCURVE",
"828 716 CURVE SMOOTH",
"828 701 OFFCURVE",
"826 686 OFFCURVE",
"823 672 CURVE",
"741 672 LINE"
);
}
);
width = 931;
}
);
unicode = 106B1;
},
{
glyphname = u106B2;
lastChange = "2017-12-19 23:21:51 +0000";
layers = (
{
layerId = UUID0;
paths = (
{
closed = 1;
nodes = (
"291 -10 LINE",
"445 267 LINE",
"599 194 LINE",
"646 194 LINE",
"756 388 LINE",
"756 450 LINE",
"491 580 LINE",
"459 518 LINE",
"687 402 LINE",
"611 273 LINE",
"459 339 LINE",
"404 339 LINE",
"247 54 LINE",
"106 130 LINE",
"195 292 LINE",
"133 325 LINE",
"50 168 LINE",
"50 89 LINE",
"235 -10 LINE"
);
},
{
closed = 1;
nodes = (
"417 388 OFFCURVE",
"436 407 OFFCURVE",
"436 431 CURVE SMOOTH",
"436 455 OFFCURVE",
"417 474 OFFCURVE",
"393 474 CURVE SMOOTH",
"369 474 OFFCURVE",
"350 455 OFFCURVE",
"350 431 CURVE SMOOTH",
"350 407 OFFCURVE",
"369 388 OFFCURVE",
"393 388 CURVE SMOOTH"
);
},
{
closed = 1;
nodes = (
"144 372 LINE",
"144 437 LINE",
"356 554 LINE",
"417 554 LINE",
"410 733 OFFCURVE",
"205 810 OFFCURVE",
"73 825 CURVE",
"59 759 LINE",
"136 756 OFFCURVE",
"281 706 OFFCURVE",
"330 612 CURVE",
"144 509 LINE",
"144 538 LINE",
"74 538 LINE",
"74 372 LINE"
);
}
);
width = 806;
}
);
unicode = 106B2;
},
{
glyphname = u106B3;
lastChange = "2017-12-19 23:21:51 +0000";
layers = (
{
layerId = UUID0;
paths = (
{
closed = 1;
nodes = (
"170 0 LINE",
"170 472 LINE",
"531 644 LINE",
"503 703 LINE",
"170 541 LINE",
"170 800 LINE",
"100 800 LINE",
"100 0 LINE"
);
},
{
closed = 1;
nodes = (
"425 111 LINE",
"425 237 LINE",
"552 237 LINE",
"552 300 LINE",
"425 300 LINE",
"425 426 LINE",
"355 426 LINE",
"355 300 LINE",
"230 300 LINE",
"230 237 LINE",
"355 237 LINE",
"355 111 LINE"
);
}
);
width = 602;
}
);
unicode = 106B3;
},
{
glyphname = u106B4;
lastChange = "2017-12-19 23:21:51 +0000";
layers = (
{
layerId = UUID0;
paths = (
{
closed = 1;
nodes = (
"272 0 LINE",
"272 118 LINE",
"471 118 LINE",
"471 181 LINE",
"272 181 LINE",
"272 238 LINE",
"369 251 OFFCURVE",
"426 318 OFFCURVE",
"441 422 CURVE",
"370 422 LINE",
"358 354 OFFCURVE",
"331 314 OFFCURVE",
"272 304 CURVE",
"272 480 LINE",
"696 480 LINE",
"696 800 LINE",
"626 800 LINE",
"626 543 LINE",
"484 543 LINE",
"484 800 LINE",
"414 800 LINE",
"414 543 LINE",
"272 543 LINE",
"272 800 LINE",
"202 800 LINE",
"202 303 LINE",
"140 312 OFFCURVE",
"111 352 OFFCURVE",
"100 422 CURVE",
"30 422 LINE",
"44 317 OFFCURVE",
"102 250 OFFCURVE",
"202 238 CURVE",
"202 0 LINE"
);
}
);
width = 776;
}
);
unicode = 106B4;
},
{
glyphname = u106B5;
lastChange = "2017-12-19 23:21:51 +0000";
layers = (
{
layerId = UUID0;
paths = (
{
closed = 1;
nodes = (
"592 310 LINE",
"592 0 LINE",
"662 0 LINE",
"662 800 LINE",
"573 800 LINE SMOOTH",
"372 800 OFFCURVE",
"316 673 OFFCURVE",
"316 585 CURVE SMOOTH",
"316 557 OFFCURVE",
"321 526 OFFCURVE",
"335 497 CURVE",
"150 407 LINE",
"150 598 LINE",
"80 598 LINE",
"80 108 LINE",
"150 108 LINE",
"150 337 LINE",
"374 444 LINE",
"414 406 OFFCURVE",
"476 380 OFFCURVE",
"573 380 CURVE SMOOTH",
"577 380 LINE",
"95 -27 LINE",
"139 -76 LINE"
);
},
{
closed = 1;
nodes = (
"484 443 OFFCURVE",
"386 480 OFFCURVE",
"386 585 CURVE SMOOTH",
"386 689 OFFCURVE",
"484 737 OFFCURVE",
"562 737 CURVE SMOOTH",
"592 737 LINE",
"592 443 LINE",
"562 443 LINE SMOOTH"
);
}
);
width = 762;
}
);
unicode = 106B5;
},
{
glyphname = u106B6;
lastChange = "2017-12-19 23:21:51 +0000";
layers = (
{
layerId = UUID0;
paths = (
{
closed = 1;
nodes = (
"290 0 LINE",
"290 227 LINE",
"526 227 LINE",
"526 81 LINE",
"596 81 LINE",
"596 227 LINE",
"743 227 LINE",
"743 290 LINE",
"596 290 LINE",
"596 436 LINE",
"526 436 LINE",
"526 290 LINE",
"290 290 LINE",
"290 547 LINE",
"480 547 LINE",
"480 610 LINE",
"290 610 LINE",
"290 800 LINE",
"220 800 LINE",
"220 610 LINE",
"30 610 LINE",
"30 547 LINE",
"220 547 LINE",
"220 0 LINE"
);
}
);
width = 773;
}
);
unicode = 106B6;
},
{
glyphname = u106B7;
lastChange = "2017-12-19 23:21:51 +0000";
layers = (
{
layerId = UUID0;
paths = (
{
closed = 1;
nodes = (
"320 0 LINE",
"320 227 LINE",
"560 227 LINE",
"560 81 LINE",
"630 81 LINE",
"630 227 LINE",
"777 227 LINE",
"777 290 LINE",
"630 290 LINE",
"630 436 LINE",
"560 436 LINE",
"560 290 LINE",
"320 290 LINE",
"320 387 LINE",
"510 387 LINE",
"510 450 LINE",
"320 450 LINE",
"320 547 LINE",
"510 547 LINE",
"510 610 LINE",
"320 610 LINE",
"320 800 LINE",
"250 800 LINE",
"250 610 LINE",
"60 610 LINE",
"60 547 LINE",
"250 547 LINE",
"250 450 LINE",
"60 450 LINE",
"60 387 LINE",
"250 387 LINE",
"250 290 LINE",
"60 290 LINE",
"60 227 LINE",
"250 227 LINE",
"250 0 LINE"
);
}
);
width = 797;
}
);
unicode = 106B7;
},
{
glyphname = u106B8;
lastChange = "2017-12-19 23:27:40 +0000";
layers = (
{
layerId = UUID0;
paths = (
{
closed = 1;
nodes = (
"524 737 LINE",
"524 800 LINE",
"70 800 LINE",
"70 737 LINE"
);
},
{
closed = 1;
nodes = (
"332 0 LINE",
"332 400 LINE",
"262 400 LINE",
"262 0 LINE"
);
},
{
closed = 1;
nodes = (
"120 460 LINE",
"120 677 LINE",
"50 677 LINE",
"50 460 LINE"
);
},
{
closed = 1;
nodes = (
"332 460 LINE",
"332 677 LINE",
"262 677 LINE",
"262 460 LINE"
);
},
{
closed = 1;
nodes = (
"544 460 LINE",
"544 677 LINE",
"474 677 LINE",
"474 460 LINE"
);
},
{
closed = 1;
nodes = (
"712 -14 OFFCURVE",
"800 74 OFFCURVE",
"800 182 CURVE SMOOTH",
"800 290 OFFCURVE",
"712 378 OFFCURVE",
"604 378 CURVE SMOOTH",
"496 378 OFFCURVE",
"408 290 OFFCURVE",
"408 182 CURVE SMOOTH",
"408 74 OFFCURVE",
"496 -14 OFFCURVE",
"604 -14 CURVE SMOOTH"
);
},
{
closed = 1;
nodes = (
"623 85 OFFCURVE",
"639 100 OFFCURVE",
"639 119 CURVE SMOOTH",
"639 138 OFFCURVE",
"623 154 OFFCURVE",
"604 154 CURVE SMOOTH",
"585 154 OFFCURVE",
"570 138 OFFCURVE",
"570 119 CURVE SMOOTH",
"570 100 OFFCURVE",
"585 85 OFFCURVE",
"604 85 CURVE SMOOTH"
);
},
{
closed = 1;
nodes = (
"560 192 OFFCURVE",
"576 207 OFFCURVE",
"576 226 CURVE SMOOTH",
"576 245 OFFCURVE",
"560 261 OFFCURVE",
"541 261 CURVE SMOOTH",
"522 261 OFFCURVE",
"507 245 OFFCURVE",
"507 226 CURVE SMOOTH",
"507 207 OFFCURVE",
"522 192 OFFCURVE",
"541 192 CURVE SMOOTH"
);
},
{
closed = 1;
nodes = (
"526 40 OFFCURVE",
"464 104 OFFCURVE",
"464 182 CURVE SMOOTH",
"464 259 OFFCURVE",
"526 324 OFFCURVE",
"604 324 CURVE SMOOTH",
"682 324 OFFCURVE",
"744 259 OFFCURVE",
"744 182 CURVE SMOOTH",
"744 104 OFFCURVE",
"682 40 OFFCURVE",
"604 40 CURVE SMOOTH"
);
},
{
closed = 1;
nodes = (
"686 192 OFFCURVE",
"702 207 OFFCURVE",
"702 226 CURVE SMOOTH",
"702 245 OFFCURVE",
"686 261 OFFCURVE",
"667 261 CURVE SMOOTH",
"648 261 OFFCURVE",
"633 245 OFFCURVE",
"633 226 CURVE SMOOTH",
"633 207 OFFCURVE",
"648 192 OFFCURVE",
"667 192 CURVE SMOOTH"
);
}
);
width = 850;
}
);
unicode = 106B8;
},
{
glyphname = u106B9;
lastChange = "2017-12-19 23:21:51 +0000";
layers = (
{
layerId = UUID0;
paths = (
{
closed = 1;
nodes = (
"457 0 LINE",
"457 63 LINE",
"345 63 LINE",
"345 265 LINE",
"392 279 OFFCURVE",
"428 323 OFFCURVE",
"430 374 CURVE",
"570 561 LINE",
"570 621 LINE",
"411 621 LINE",
"495 765 LINE",
"435 800 LINE",
"345 628 LINE",
"345 800 LINE",
"275 800 LINE",
"275 628 LINE",
"185 800 LINE",
"125 765 LINE",
"208 621 LINE",
"50 621 LINE",
"50 561 LINE",
"192 371 LINE",
"194 322 OFFCURVE",
"229 280 OFFCURVE",
"275 265 CURVE",
"275 63 LINE",
"173 63 LINE",
"173 0 LINE"
);
},
{
closed = 1;
nodes = (
"274 313 OFFCURVE",
"247 340 OFFCURVE",
"247 377 CURVE SMOOTH",
"247 414 OFFCURVE",
"274 444 OFFCURVE",
"310 444 CURVE SMOOTH",
"347 444 OFFCURVE",
"375 414 OFFCURVE",
"375 377 CURVE SMOOTH",
"375 340 OFFCURVE",
"347 313 OFFCURVE",
"310 313 CURVE SMOOTH"
);
},
{
closed = 1;
nodes = (
"129 558 LINE",
"491 558 LINE",
"407 446 LINE",
"385 477 OFFCURVE",
"349 497 OFFCURVE",
"310 497 CURVE SMOOTH",
"270 497 OFFCURVE",
"235 476 OFFCURVE",
"213 445 CURVE"
);
}
);
width = 620;
}
);
unicode = 106B9;
},
{
glyphname = u106BA;
lastChange = "2017-12-19 23:21:51 +0000";
layers = (
{
layerId = UUID0;
paths = (
{
closed = 1;
nodes = (
"457 0 LINE",
"457 63 LINE",
"345 63 LINE",
"345 265 LINE",
"393 280 OFFCURVE",
"430 326 OFFCURVE",
"430 378 CURVE SMOOTH",
"430 443 OFFCURVE",
"375 497 OFFCURVE",
"310 497 CURVE SMOOTH",
"270 497 OFFCURVE",
"235 476 OFFCURVE",
"213 445 CURVE",
"129 558 LINE",
"516 558 LINE",
"492 536 OFFCURVE",
"488 510 OFFCURVE",
"488 466 CURVE SMOOTH",
"488 341 LINE",
"458 341 LINE",
"458 295 LINE",
"576 295 LINE",
"576 341 LINE",
"545 341 LINE",
"545 480 LINE SMOOTH",
"545 511 OFFCURVE",
"555 525 OFFCURVE",
"569 533 CURVE SMOOTH",
"627 566 LINE",
"639 341 LINE",
"608 341 LINE",
"608 295 LINE",
"726 295 LINE",
"726 341 LINE",
"692 341 LINE",
"676 595 LINE",
"725 623 LINE",
"778 341 LINE",
"754 341 LINE",
"754 295 LINE",
"862 295 LINE",
"862 341 LINE",
"832 341 LINE",
"767 657 LINE",
"793 684 OFFCURVE",
"798 710 OFFCURVE",
"798 735 CURVE SMOOTH",
"798 787 OFFCURVE",
"748 815 OFFCURVE",
"706 815 CURVE SMOOTH",
"666 815 OFFCURVE",
"633 795 OFFCURVE",
"620 782 CURVE",
"638 742 LINE",
"651 754 OFFCURVE",
"671 765 OFFCURVE",
"703 765 CURVE SMOOTH",
"740 765 OFFCURVE",
"747 748 OFFCURVE",
"747 731 CURVE SMOOTH",
"747 685 OFFCURVE",
"693 664 OFFCURVE",
"677 655 CURVE SMOOTH",
"618 621 LINE",
"411 621 LINE",
"495 765 LINE",
"435 800 LINE",
"341 621 LINE",
"279 621 LINE",
"185 800 LINE",
"125 765 LINE",
"208 621 LINE",
"50 621 LINE",
"50 561 LINE",
"192 371 LINE",
"194 322 OFFCURVE",
"229 280 OFFCURVE",
"275 265 CURVE",
"275 63 LINE",
"173 63 LINE",
"173 0 LINE"
);
},
{
closed = 1;
nodes = (
"274 313 OFFCURVE",
"247 340 OFFCURVE",
"247 377 CURVE SMOOTH",
"247 414 OFFCURVE",
"274 444 OFFCURVE",
"310 444 CURVE SMOOTH",
"347 444 OFFCURVE",
"375 414 OFFCURVE",
"375 377 CURVE SMOOTH",
"375 340 OFFCURVE",
"347 313 OFFCURVE",
"310 313 CURVE SMOOTH"
);
}
);
width = 892;
}
);
unicode = 106BA;
},
{
glyphname = u106BB;
lastChange = "2017-12-19 23:21:51 +0000";
layers = (
{
layerId = UUID0;
paths = (
{
closed = 1;
nodes = (
"457 0 LINE",
"457 63 LINE",
"345 63 LINE",
"345 265 LINE",
"393 280 OFFCURVE",
"430 326 OFFCURVE",
"430 378 CURVE SMOOTH",
"430 443 OFFCURVE",
"375 497 OFFCURVE",
"310 497 CURVE SMOOTH",
"270 497 OFFCURVE",
"235 476 OFFCURVE",
"213 445 CURVE",
"129 558 LINE",
"516 558 LINE",
"492 536 OFFCURVE",
"488 510 OFFCURVE",
"488 466 CURVE SMOOTH",
"488 341 LINE",
"458 341 LINE",
"458 295 LINE",
"576 295 LINE",
"576 341 LINE",
"545 341 LINE",
"545 480 LINE SMOOTH",
"545 511 OFFCURVE",
"555 525 OFFCURVE",
"569 533 CURVE SMOOTH",
"627 566 LINE",
"639 341 LINE",
"608 341 LINE",
"608 295 LINE",
"726 295 LINE",
"726 341 LINE",
"692 341 LINE",
"676 595 LINE",
"725 623 LINE",
"778 341 LINE",
"754 341 LINE",
"754 295 LINE",
"862 295 LINE",
"862 341 LINE",
"832 341 LINE",
"767 657 LINE",
"793 684 OFFCURVE",
"798 710 OFFCURVE",
"798 735 CURVE SMOOTH",
"798 787 OFFCURVE",
"748 815 OFFCURVE",
"706 815 CURVE SMOOTH",
"666 815 OFFCURVE",
"633 795 OFFCURVE",
"620 782 CURVE",
"638 742 LINE",
"651 754 OFFCURVE",
"671 765 OFFCURVE",
"703 765 CURVE SMOOTH",
"740 765 OFFCURVE",
"747 748 OFFCURVE",
"747 731 CURVE SMOOTH",
"747 685 OFFCURVE",
"693 664 OFFCURVE",
"677 655 CURVE SMOOTH",
"618 621 LINE",
"50 621 LINE",
"50 561 LINE",
"192 371 LINE",
"194 322 OFFCURVE",
"229 280 OFFCURVE",
"275 265 CURVE",
"275 63 LINE",
"173 63 LINE",
"173 0 LINE"
);
},
{
closed = 1;
nodes = (
"274 313 OFFCURVE",
"247 340 OFFCURVE",
"247 377 CURVE SMOOTH",
"247 414 OFFCURVE",
"274 444 OFFCURVE",
"310 444 CURVE SMOOTH",
"347 444 OFFCURVE",
"375 414 OFFCURVE",
"375 377 CURVE SMOOTH",
"375 340 OFFCURVE",
"347 313 OFFCURVE",
"310 313 CURVE SMOOTH"
);
}
);
width = 892;
}
);
unicode = 106BB;
},
{
glyphname = u106BC;
lastChange = "2017-12-19 23:21:51 +0000";
layers = (
{
layerId = UUID0;
paths = (
{
closed = 1;
nodes = (
"457 0 LINE",
"457 63 LINE",
"345 63 LINE",
"345 265 LINE",
"393 280 OFFCURVE",
"430 326 OFFCURVE",
"430 378 CURVE SMOOTH",
"430 443 OFFCURVE",
"375 497 OFFCURVE",
"310 497 CURVE SMOOTH",
"270 497 OFFCURVE",
"235 476 OFFCURVE",
"213 445 CURVE",
"129 558 LINE",
"516 558 LINE",
"492 536 OFFCURVE",
"488 510 OFFCURVE",
"488 466 CURVE SMOOTH",
"488 341 LINE",
"458 341 LINE",
"458 295 LINE",
"576 295 LINE",
"576 341 LINE",
"545 341 LINE",
"545 480 LINE SMOOTH",
"545 511 OFFCURVE",
"555 525 OFFCURVE",
"569 533 CURVE SMOOTH",
"627 566 LINE",
"639 341 LINE",
"608 341 LINE",
"608 295 LINE",
"726 295 LINE",
"726 341 LINE",
"692 341 LINE",
"676 595 LINE",
"725 623 LINE",
"778 341 LINE",
"754 341 LINE",
"754 295 LINE",
"862 295 LINE",
"862 341 LINE",
"832 341 LINE",
"767 657 LINE",
"793 684 OFFCURVE",
"798 710 OFFCURVE",
"798 735 CURVE SMOOTH",
"798 787 OFFCURVE",
"748 815 OFFCURVE",
"706 815 CURVE SMOOTH",
"666 815 OFFCURVE",
"633 795 OFFCURVE",
"620 782 CURVE",
"638 742 LINE",
"651 754 OFFCURVE",
"671 765 OFFCURVE",
"703 765 CURVE SMOOTH",
"740 765 OFFCURVE",
"747 748 OFFCURVE",
"747 731 CURVE SMOOTH",
"747 685 OFFCURVE",
"693 664 OFFCURVE",
"677 655 CURVE SMOOTH",
"618 621 LINE",
"50 621 LINE",
"50 561 LINE",
"192 371 LINE",
"194 322 OFFCURVE",
"229 280 OFFCURVE",
"275 265 CURVE",
"275 63 LINE",
"173 63 LINE",
"173 0 LINE"
);
},
{
closed = 1;
nodes = (
"274 313 OFFCURVE",
"247 340 OFFCURVE",
"247 377 CURVE SMOOTH",
"247 414 OFFCURVE",
"274 444 OFFCURVE",
"310 444 CURVE SMOOTH",
"347 444 OFFCURVE",
"375 414 OFFCURVE",
"375 377 CURVE SMOOTH",
"375 340 OFFCURVE",
"347 313 OFFCURVE",
"310 313 CURVE SMOOTH"
);
},
{
closed = 1;
nodes = (
"1018 295 LINE",
"1018 689 LINE",
"958 689 LINE",
"958 295 LINE"
);
},
{
closed = 1;
nodes = (
"1076 467 OFFCURVE",
"1148 537 OFFCURVE",
"1148 627 CURVE SMOOTH",
"1148 650 LINE",
"1088 650 LINE",
"1088 628 LINE SMOOTH",
"1088 569 OFFCURVE",
"1041 522 OFFCURVE",
"984 522 CURVE SMOOTH",
"927 522 OFFCURVE",
"882 569 OFFCURVE",
"882 628 CURVE SMOOTH",
"882 650 LINE",
"822 650 LINE",
"822 627 LINE SMOOTH",
"822 537 OFFCURVE",
"894 467 OFFCURVE",
"985 467 CURVE SMOOTH"
);
}
);
width = 1178;
}
);
unicode = 106BC;
},
{
glyphname = u106BD;
lastChange = "2017-12-19 23:21:51 +0000";
layers = (
{
layerId = UUID0;
paths = (
{
closed = 1;
nodes = (
"396 0 LINE",
"396 189 LINE",
"544 189 LINE SMOOTH",
"567 189 OFFCURVE",
"574 230 OFFCURVE",
"574 246 CURVE SMOOTH",
"574 311 OFFCURVE",
"547 372 OFFCURVE",
"471 434 CURVE",
"430 388 LINE",
"480 343 OFFCURVE",
"507 295 OFFCURVE",
"507 261 CURVE SMOOTH",
"507 252 LINE",
"396 252 LINE",
"396 500 LINE",
"570 500 LINE",
"570 563 LINE",
"396 563 LINE",
"396 800 LINE",
"277 800 LINE SMOOTH",
"106 800 OFFCURVE",
"50 723 OFFCURVE",
"50 645 CURVE SMOOTH",
"50 567 OFFCURVE",
"105 500 OFFCURVE",
"277 500 CURVE SMOOTH",
"326 500 LINE",
"326 252 LINE",
"215 252 LINE",
"215 261 LINE SMOOTH",
"215 295 OFFCURVE",
"242 343 OFFCURVE",
"292 388 CURVE",
"251 434 LINE",
"175 372 OFFCURVE",
"148 311 OFFCURVE",
"148 246 CURVE SMOOTH",
"148 230 OFFCURVE",
"155 189 OFFCURVE",
"178 189 CURVE SMOOTH",
"326 189 LINE",
"326 0 LINE"
);
},
{
closed = 1;
nodes = (
"188 563 OFFCURVE",
"120 580 OFFCURVE",
"120 645 CURVE SMOOTH",
"120 709 OFFCURVE",
"188 737 OFFCURVE",
"266 737 CURVE SMOOTH",
"326 737 LINE",
"326 563 LINE",
"266 563 LINE SMOOTH"
);
}
);
width = 644;
}
);
unicode = 106BD;
},
{
glyphname = u106BE;
lastChange = "2017-12-19 23:21:51 +0000";
layers = (
{
layerId = UUID0;
paths = (
{
closed = 1;
nodes = (
"520 0 LINE",
"520 154 LINE",
"650 154 LINE",
"650 217 LINE",
"520 217 LINE",
"520 304 LINE",
"650 304 LINE",
"650 367 LINE",
"520 367 LINE",
"520 712 LINE",
"450 712 LINE",
"450 367 LINE",
"320 367 LINE",
"320 304 LINE",
"450 304 LINE",
"450 217 LINE",
"320 217 LINE",
"320 154 LINE",
"450 154 LINE",
"450 0 LINE"
);
},
{
closed = 1;
nodes = (
"424 580 LINE",
"370 611 LINE",
"251 414 LINE",
"306 385 LINE"
);
},
{
closed = 1;
nodes = (
"962 146 LINE",
"962 177 LINE",
"875 261 LINE",
"942 327 LINE",
"942 358 LINE",
"789 501 LINE",
"745 459 LINE",
"876 344 LINE",
"747 217 LINE",
"789 177 LINE",
"833 220 LINE",
"896 163 LINE",
"761 30 LINE",
"803 -10 LINE"
);
},
{
closed = 1;
nodes = (
"115 700 OFFCURVE",
"146 750 OFFCURVE",
"200 750 CURVE SMOOTH",
"233 750 OFFCURVE",
"291 701 OFFCURVE",
"342 701 CURVE SMOOTH",
"404 701 OFFCURVE",
"434 752 OFFCURVE",
"484 752 CURVE SMOOTH",
"536 752 OFFCURVE",
"566 701 OFFCURVE",
"629 701 CURVE SMOOTH",
"680 701 OFFCURVE",
"738 750 OFFCURVE",
"771 750 CURVE SMOOTH",
"825 750 OFFCURVE",
"856 700 OFFCURVE",
"876 652 CURVE",
"931 678 LINE",
"903 745 OFFCURVE",
"852 815 OFFCURVE",
"770 815 CURVE SMOOTH",
"728 815 OFFCURVE",
"669 766 OFFCURVE",
"628 766 CURVE SMOOTH",
"561 766 OFFCURVE",
"541 815 OFFCURVE",
"484 815 CURVE SMOOTH",
"429 815 OFFCURVE",
"408 766 OFFCURVE",
"343 766 CURVE SMOOTH",
"302 766 OFFCURVE",
"243 815 OFFCURVE",
"201 815 CURVE SMOOTH",
"119 815 OFFCURVE",
"68 745 OFFCURVE",
"40 678 CURVE",
"95 652 LINE"
);
}
);
width = 1042;
}
);
unicode = 106BE;
},
{
glyphname = u106BF;
lastChange = "2017-12-19 23:21:51 +0000";
layers = (
{
layerId = UUID0;
paths = (
{
closed = 1;
nodes = (
"289 0 LINE",
"289 177 LINE",
"307 166 OFFCURVE",
"330 161 OFFCURVE",
"356 161 CURVE SMOOTH",
"434 161 OFFCURVE",
"480 217 OFFCURVE",
"480 284 CURVE SMOOTH",
"480 330 OFFCURVE",
"458 367 OFFCURVE",
"422 390 CURVE",
"382 349 LINE",
"403 333 OFFCURVE",
"414 313 OFFCURVE",
"414 286 CURVE SMOOTH",
"414 247 OFFCURVE",
"392 222 OFFCURVE",
"356 222 CURVE SMOOTH",
"324 222 OFFCURVE",
"299 240 OFFCURVE",
"289 271 CURVE",
"289 480 LINE",
"713 480 LINE",
"713 800 LINE",
"643 800 LINE",
"643 543 LINE",
"501 543 LINE",
"501 800 LINE",
"431 800 LINE",
"431 543 LINE",
"289 543 LINE",
"289 800 LINE",
"219 800 LINE",
"219 266 LINE",
"208 238 OFFCURVE",
"183 222 OFFCURVE",
"154 222 CURVE SMOOTH",
"118 222 OFFCURVE",
"96 247 OFFCURVE",
"96 286 CURVE SMOOTH",
"96 313 OFFCURVE",
"107 333 OFFCURVE",
"128 349 CURVE",
"88 390 LINE",
"52 367 OFFCURVE",
"30 330 OFFCURVE",
"30 284 CURVE SMOOTH",
"30 217 OFFCURVE",
"76 161 OFFCURVE",
"154 161 CURVE SMOOTH",
"179 161 OFFCURVE",
"201 166 OFFCURVE",
"219 176 CURVE",
"219 0 LINE"
);
}
);
width = 793;
}
);
unicode = 106BF;
},
{
glyphname = u106C0;
lastChange = "2017-12-19 23:21:51 +0000";
layers = (
{
layerId = UUID0;
paths = (
{
closed = 1;
nodes = (
"368 0 LINE",
"368 270 LINE",
"550 270 LINE",
"550 333 LINE",
"282 333 LINE SMOOTH",
"204 333 OFFCURVE",
"156 340 OFFCURVE",
"156 385 CURVE SMOOTH",
"156 439 OFFCURVE",
"204 447 OFFCURVE",
"282 447 CURVE SMOOTH",
"550 447 LINE",
"550 460 LINE",
"616 800 LINE",
"546 800 LINE",
"531 727 LINE",
"494 752 OFFCURVE",
"437 770 OFFCURVE",
"368 774 CURVE",
"368 800 LINE",
"298 800 LINE",
"298 775 LINE",
"229 770 OFFCURVE",
"171 753 OFFCURVE",
"133 729 CURVE",
"120 800 LINE",
"50 800 LINE",
"115 464 LINE",
"95 445 OFFCURVE",
"86 418 OFFCURVE",
"86 385 CURVE SMOOTH",
"86 297 OFFCURVE",
"151 270 OFFCURVE",
"283 270 CURVE SMOOTH",
"298 270 LINE",
"298 0 LINE"
);
},
{
closed = 1;
nodes = (
"163 576 LINE",
"198 560 OFFCURVE",
"245 549 OFFCURVE",
"298 546 CURVE",
"298 510 LINE",
"283 510 LINE SMOOTH",
"241 510 OFFCURVE",
"207 506 OFFCURVE",
"178 498 CURVE"
);
},
{
closed = 1;
nodes = (
"207 611 OFFCURVE",
"146 639 OFFCURVE",
"146 660 CURVE SMOOTH",
"146 682 OFFCURVE",
"207 709 OFFCURVE",
"298 715 CURVE",
"298 606 LINE"
);
},
{
closed = 1;
nodes = (
"368 546 LINE",
"420 550 OFFCURVE",
"466 561 OFFCURVE",
"502 577 CURVE",
"489 510 LINE",
"368 510 LINE"
);
},
{
closed = 1;
nodes = (
"368 714 LINE",
"456 708 OFFCURVE",
"519 682 OFFCURVE",
"519 660 CURVE SMOOTH",
"519 640 OFFCURVE",
"456 613 OFFCURVE",
"368 606 CURVE"
);
}
);
width = 666;
}
);
unicode = 106C0;
},
{
glyphname = u106C1;
lastChange = "2017-12-19 23:21:51 +0000";
layers = (
{
layerId = UUID0;
paths = (
{
closed = 1;
nodes = (
"745 310 LINE",
"745 0 LINE",
"815 0 LINE",
"815 800 LINE",
"726 800 LINE SMOOTH",
"525 800 OFFCURVE",
"469 673 OFFCURVE",
"469 585 CURVE SMOOTH",
"469 497 OFFCURVE",
"524 380 OFFCURVE",
"726 380 CURVE SMOOTH",
"730 380 LINE",
"248 -27 LINE",
"292 -76 LINE"
);
},
{
closed = 1;
nodes = (
"302 80 LINE",
"302 330 LINE",
"414 330 LINE",
"414 393 LINE",
"246 393 LINE SMOOTH",
"168 393 OFFCURVE",
"120 400 OFFCURVE",
"120 445 CURVE SMOOTH",
"120 499 OFFCURVE",
"168 507 OFFCURVE",
"246 507 CURVE SMOOTH",
"396 507 LINE",
"450 800 LINE",
"380 800 LINE",
"342 570 LINE",
"302 570 LINE",
"302 800 LINE",
"232 800 LINE",
"232 570 LINE",
"218 569 OFFCURVE",
"204 569 OFFCURVE",
"192 567 CURVE",
"154 800 LINE",
"84 800 LINE",
"129 554 LINE",
"76 536 OFFCURVE",
"50 500 OFFCURVE",
"50 445 CURVE SMOOTH",
"50 360 OFFCURVE",
"110 332 OFFCURVE",
"232 330 CURVE",
"232 80 LINE"
);
},
{
closed = 1;
nodes = (
"637 443 OFFCURVE",
"539 480 OFFCURVE",
"539 585 CURVE SMOOTH",
"539 689 OFFCURVE",
"637 737 OFFCURVE",
"715 737 CURVE SMOOTH",
"745 737 LINE",
"745 443 LINE",
"715 443 LINE SMOOTH"
);
}
);
width = 915;
}
);
unicode = 106C1;
},
{
glyphname = u106C2;
lastChange = "2017-12-19 23:21:51 +0000";
layers = (
{
layerId = UUID0;
paths = (
{
closed = 1;
nodes = (
"344 0 LINE",
"344 524 LINE",
"633 524 LINE",
"633 587 LINE",
"343 587 LINE",
"335 731 OFFCURVE",
"277 810 OFFCURVE",
"168 810 CURVE SMOOTH",
"85 810 OFFCURVE",
"50 753 OFFCURVE",
"50 695 CURVE SMOOTH",
"50 614 OFFCURVE",
"112 524 OFFCURVE",
"248 524 CURVE SMOOTH",
"274 524 LINE",
"274 0 LINE"
);
},
{
closed = 1;
nodes = (
"265 286 LINE",
"124 453 LINE",
"74 412 LINE",
"214 245 LINE"
);
},
{
closed = 1;
nodes = (
"672 146 LINE",
"672 177 LINE",
"585 261 LINE",
"652 327 LINE",
"652 358 LINE",
"499 501 LINE",
"455 459 LINE",
"586 344 LINE",
"457 217 LINE",
"499 177 LINE",
"543 220 LINE",
"606 163 LINE",
"471 30 LINE",
"513 -10 LINE"
);
},
{
closed = 1;
nodes = (
"150 587 OFFCURVE",
"118 643 OFFCURVE",
"118 689 CURVE SMOOTH",
"118 716 OFFCURVE",
"133 745 OFFCURVE",
"172 745 CURVE SMOOTH",
"229 745 OFFCURVE",
"268 706 OFFCURVE",
"273 587 CURVE",
"248 587 LINE SMOOTH"
);
},
{
closed = 1;
nodes = (
"535 635 LINE",
"429 826 LINE",
"372 795 LINE",
"477 604 LINE"
);
}
);
width = 742;
}
);
unicode = 106C2;
},
{
glyphname = u106C3;
lastChange = "2017-12-19 23:21:51 +0000";
layers = (
{
layerId = UUID0;
paths = (
{
closed = 1;
nodes = (
"292 270 LINE",
"292 0 LINE",
"362 0 LINE",
"362 268 LINE",
"550 -15 LINE",
"604 23 LINE",
"362 378 LINE",
"362 617 LINE",
"504 617 LINE",
"504 500 LINE",
"574 500 LINE",
"574 800 LINE",
"504 800 LINE",
"504 680 LINE",
"150 680 LINE",
"150 800 LINE",
"80 800 LINE",
"80 500 LINE",
"150 500 LINE",
"150 617 LINE",
"292 617 LINE",
"292 381 LINE",
"50 23 LINE",
"103 -15 LINE"
);
}
);
width = 654;
}
);
unicode = 106C3;
},
{
glyphname = u106C4;
lastChange = "2017-12-19 23:21:51 +0000";
layers = (
{
layerId = UUID0;
paths = (
{
closed = 1;
nodes = (
"850 0 LINE",
"850 44 LINE SMOOTH",
"850 198 OFFCURVE",
"992 218 OFFCURVE",
"992 336 CURVE SMOOTH",
"992 414 OFFCURVE",
"927 505 OFFCURVE",
"829 556 CURVE",
"888 740 LINE",
"888 800 LINE",
"527 800 LINE",
"527 740 LINE",
"533 719 LINE",
"527 719 OFFCURVE",
"520 720 OFFCURVE",
"514 720 CURVE SMOOTH",
"456 720 OFFCURVE",
"416 674 OFFCURVE",
"416 620 CURVE SMOOTH",
"416 567 OFFCURVE",
"456 522 OFFCURVE",
"514 522 CURVE SMOOTH",
"520 522 OFFCURVE",
"527 522 OFFCURVE",
"534 523 CURVE",
"465 471 OFFCURVE",
"423 399 OFFCURVE",
"423 336 CURVE SMOOTH",
"423 218 OFFCURVE",
"565 198 OFFCURVE",
"565 44 CURVE SMOOTH",
"565 0 LINE"
);
},
{
closed = 1;
nodes = (
"242 247 LINE",
"396 12 LINE",
"454 51 LINE",
"270 330 LINE",
"214 330 LINE",
"30 51 LINE",
"88 12 LINE"
);
},
{
closed = 1;
nodes = (
"628 229 OFFCURVE",
"493 234 OFFCURVE",
"493 336 CURVE SMOOTH",
"493 397 OFFCURVE",
"533 473 OFFCURVE",
"655 523 CURVE",
"655 564 LINE",
"600 737 LINE",
"815 737 LINE",
"760 564 LINE",
"760 523 LINE",
"882 473 OFFCURVE",
"922 397 OFFCURVE",
"922 336 CURVE SMOOTH",
"922 234 OFFCURVE",
"787 229 OFFCURVE",
"787 63 CURVE",
"628 63 LINE"
);
},
{
closed = 1;
nodes = (
"490 575 OFFCURVE",
"470 594 OFFCURVE",
"470 620 CURVE SMOOTH",
"470 646 OFFCURVE",
"490 667 OFFCURVE",
"515 667 CURVE SMOOTH",
"526 667 OFFCURVE",
"539 665 OFFCURVE",
"551 663 CURVE",
"577 584 LINE",
"558 578 OFFCURVE",
"535 575 OFFCURVE",
"515 575 CURVE SMOOTH"
);
}
);
width = 1042;
}
);
unicode = 106C4;
},
{
glyphname = u106C5;
lastChange = "2017-12-19 23:21:51 +0000";
layers = (
{
layerId = UUID0;
paths = (
{
closed = 1;
nodes = (
"179 0 LINE",
"179 93 LINE SMOOTH",
"179 130 OFFCURVE",
"181 164 OFFCURVE",
"184 197 CURVE",
"302 197 LINE",
"302 260 LINE",
"193 260 LINE",
"203 312 OFFCURVE",
"218 358 OFFCURVE",
"234 397 CURVE",
"517 397 LINE",
"535 358 OFFCURVE",
"550 312 OFFCURVE",
"560 260 CURVE",
"453 260 LINE",
"453 197 LINE",
"570 197 LINE",
"574 164 OFFCURVE",
"576 130 OFFCURVE",
"576 93 CURVE SMOOTH",
"576 0 LINE",
"646 0 LINE",
"646 90 LINE SMOOTH",
"646 127 OFFCURVE",
"643 163 OFFCURVE",
"640 197 CURVE",
"705 197 LINE",
"705 260 LINE",
"631 260 LINE",
"622 310 OFFCURVE",
"608 356 OFFCURVE",
"592 397 CURVE",
"645 397 LINE",
"645 460 LINE",
"563 460 LINE",
"513 551 OFFCURVE",
"445 605 OFFCURVE",
"377 605 CURVE SMOOTH",
"309 605 OFFCURVE",
"242 551 OFFCURVE",
"192 460 CURVE",
"110 460 LINE",
"110 397 LINE",
"162 397 LINE",
"146 356 OFFCURVE",
"133 310 OFFCURVE",
"124 260 CURVE",
"50 260 LINE",
"50 197 LINE",
"115 197 LINE",
"111 163 OFFCURVE",
"109 127 OFFCURVE",
"109 90 CURVE SMOOTH",
"109 0 LINE"
);
},
{
closed = 1;
nodes = (
"118 714 OFFCURVE",
"137 733 OFFCURVE",
"137 757 CURVE SMOOTH",
"137 781 OFFCURVE",
"118 800 OFFCURVE",
"94 800 CURVE SMOOTH",
"70 800 OFFCURVE",
"51 781 OFFCURVE",
"51 757 CURVE SMOOTH",
"51 733 OFFCURVE",
"70 714 OFFCURVE",
"94 714 CURVE SMOOTH"
);
},
{
closed = 1;
nodes = (
"303 512 OFFCURVE",
"343 540 OFFCURVE",
"377 540 CURVE SMOOTH",
"407 540 OFFCURVE",
"447 512 OFFCURVE",
"482 460 CURVE",
"268 460 LINE"
);
},
{
closed = 1;
nodes = (
"228 676 OFFCURVE",
"247 695 OFFCURVE",
"247 719 CURVE SMOOTH",
"247 743 OFFCURVE",
"228 762 OFFCURVE",
"204 762 CURVE SMOOTH",
"180 762 OFFCURVE",
"161 743 OFFCURVE",
"161 719 CURVE SMOOTH",
"161 695 OFFCURVE",
"180 676 OFFCURVE",
"204 676 CURVE SMOOTH"
);
},
{
closed = 1;
nodes = (
"338 651 OFFCURVE",
"357 670 OFFCURVE",
"357 694 CURVE SMOOTH",
"357 718 OFFCURVE",
"338 737 OFFCURVE",
"314 737 CURVE SMOOTH",
"290 737 OFFCURVE",
"271 718 OFFCURVE",
"271 694 CURVE SMOOTH",
"271 670 OFFCURVE",
"290 651 OFFCURVE",
"314 651 CURVE SMOOTH"
);
},
{
closed = 1;
nodes = (
"465 651 OFFCURVE",
"484 670 OFFCURVE",
"484 694 CURVE SMOOTH",
"484 718 OFFCURVE",
"465 737 OFFCURVE",
"441 737 CURVE SMOOTH",
"417 737 OFFCURVE",
"398 718 OFFCURVE",
"398 694 CURVE SMOOTH",
"398 670 OFFCURVE",
"417 651 OFFCURVE",
"441 651 CURVE SMOOTH"
);
},
{
closed = 1;
nodes = (
"575 676 OFFCURVE",
"594 695 OFFCURVE",
"594 719 CURVE SMOOTH",
"594 743 OFFCURVE",
"575 762 OFFCURVE",
"551 762 CURVE SMOOTH",
"527 762 OFFCURVE",
"508 743 OFFCURVE",
"508 719 CURVE SMOOTH",
"508 695 OFFCURVE",
"527 676 OFFCURVE",
"551 676 CURVE SMOOTH"
);
},
{
closed = 1;
nodes = (
"685 714 OFFCURVE",
"704 733 OFFCURVE",
"704 757 CURVE SMOOTH",
"704 781 OFFCURVE",
"685 800 OFFCURVE",
"661 800 CURVE SMOOTH",
"637 800 OFFCURVE",
"618 781 OFFCURVE",
"618 757 CURVE SMOOTH",
"618 733 OFFCURVE",
"637 714 OFFCURVE",
"661 714 CURVE SMOOTH"
);
}
);
width = 755;
}
);
unicode = 106C5;
},
{
glyphname = u106C6;
lastChange = "2017-12-19 23:21:51 +0000";
layers = (
{
layerId = UUID0;
paths = (
{
closed = 1;
nodes = (
"179 0 LINE",
"179 43 LINE SMOOTH",
"179 99 OFFCURVE",
"183 150 OFFCURVE",
"191 197 CURVE",
"302 197 LINE",
"302 260 LINE",
"204 260 LINE",
"214 296 OFFCURVE",
"226 329 OFFCURVE",
"239 357 CURVE",
"512 357 LINE",
"526 329 OFFCURVE",
"538 296 OFFCURVE",
"548 260 CURVE",
"453 260 LINE",
"453 197 LINE",
"563 197 LINE",
"571 150 OFFCURVE",
"576 99 OFFCURVE",
"576 43 CURVE SMOOTH",
"576 0 LINE",
"646 0 LINE",
"646 40 LINE SMOOTH",
"646 95 OFFCURVE",
"641 148 OFFCURVE",
"633 197 CURVE",
"705 197 LINE",
"705 260 LINE",
"620 260 LINE",
"611 295 OFFCURVE",
"601 327 OFFCURVE",
"588 357 CURVE",
"645 357 LINE",
"645 420 LINE",
"557 420 LINE",
"532 464 OFFCURVE",
"502 498 OFFCURVE",
"471 521 CURVE",
"514 550 OFFCURVE",
"542 597 OFFCURVE",
"542 653 CURVE SMOOTH",
"542 744 OFFCURVE",
"468 815 OFFCURVE",
"377 815 CURVE SMOOTH",
"286 815 OFFCURVE",
"212 744 OFFCURVE",
"212 653 CURVE SMOOTH",
"212 597 OFFCURVE",
"240 549 OFFCURVE",
"283 521 CURVE",
"252 498 OFFCURVE",
"223 463 OFFCURVE",
"197 420 CURVE",
"110 420 LINE",
"110 357 LINE",
"166 357 LINE",
"154 327 OFFCURVE",
"144 295 OFFCURVE",
"135 260 CURVE",
"50 260 LINE",
"50 197 LINE",
"122 197 LINE",
"114 148 OFFCURVE",
"109 95 OFFCURVE",
"109 40 CURVE SMOOTH",
"109 0 LINE"
);
},
{
closed = 1;
nodes = (
"308 466 OFFCURVE",
"345 490 OFFCURVE",
"377 490 CURVE SMOOTH",
"405 490 OFFCURVE",
"441 466 OFFCURVE",
"475 420 CURVE",
"275 420 LINE"
);
},
{
closed = 1;
nodes = (
"312 563 OFFCURVE",
"284 593 OFFCURVE",
"275 631 CURVE",
"349 631 LINE",
"349 553 LINE"
);
},
{
closed = 1;
nodes = (
"287 717 OFFCURVE",
"314 745 OFFCURVE",
"349 755 CURVE",
"349 683 LINE",
"277 683 LINE"
);
},
{
closed = 1;
nodes = (
"407 631 LINE",
"478 631 LINE",
"470 594 OFFCURVE",
"442 564 OFFCURVE",
"407 553 CURVE"
);
},
{
closed = 1;
nodes = (
"407 754 LINE",
"440 744 OFFCURVE",
"467 716 OFFCURVE",
"477 683 CURVE",
"407 683 LINE"
);
}
);
width = 755;
}
);
unicode = 106C6;
},
{
glyphname = u106C7;
lastChange = "2017-12-19 23:21:51 +0000";
layers = (
{
layerId = UUID0;
paths = (
{
closed = 1;
nodes = (
"745 0 LINE",
"745 610 LINE",
"713 610 LINE SMOOTH",
"464 610 OFFCURVE",
"315 438 OFFCURVE",
"315 74 CURVE SMOOTH",
"315 0 LINE"
);
},
{
closed = 1;
nodes = (
"385 77 LINE SMOOTH",
"385 129 OFFCURVE",
"388 181 OFFCURVE",
"395 229 CURVE",
"509 229 LINE",
"509 63 LINE",
"385 63 LINE"
);
},
{
closed = 1;
nodes = (
"579 229 LINE",
"675 229 LINE",
"675 63 LINE",
"579 63 LINE"
);
},
{
closed = 1;
nodes = (
"425 370 OFFCURVE",
"457 436 OFFCURVE",
"509 481 CURVE",
"509 292 LINE",
"406 292 LINE"
);
},
{
closed = 1;
nodes = (
"185 407 LINE",
"116 510 LINE",
"160 539 LINE",
"227 442 LINE",
"285 475 LINE",
"216 576 LINE",
"256 602 LINE",
"325 502 LINE",
"383 535 LINE",
"312 640 LINE",
"353 667 LINE",
"420 570 LINE",
"478 603 LINE",
"410 704 LINE",
"494 760 LINE",
"455 815 LINE",
"20 528 LINE",
"32 513 LINE",
"127 374 LINE"
);
},
{
closed = 1;
nodes = (
"579 524 LINE",
"607 536 OFFCURVE",
"639 543 OFFCURVE",
"675 546 CURVE",
"675 292 LINE",
"579 292 LINE"
);
}
);
width = 825;
}
);
unicode = 106C7;
},
{
glyphname = u106C8;
lastChange = "2017-12-19 23:21:51 +0000";
layers = (
{
layerId = UUID0;
paths = (
{
closed = 1;
nodes = (
"362 0 LINE",
"362 127 LINE",
"510 127 LINE SMOOTH",
"533 127 OFFCURVE",
"540 168 OFFCURVE",
"540 184 CURVE SMOOTH",
"540 246 OFFCURVE",
"515 305 OFFCURVE",
"446 364 CURVE",
"404 318 LINE",
"449 275 OFFCURVE",
"473 231 OFFCURVE",
"473 199 CURVE SMOOTH",
"473 190 LINE",
"362 190 LINE",
"362 400 LINE",
"292 400 LINE",
"292 190 LINE",
"181 190 LINE",
"181 199 LINE SMOOTH",
"181 231 OFFCURVE",
"205 275 OFFCURVE",
"250 318 CURVE",
"208 364 LINE",
"139 305 OFFCURVE",
"114 246 OFFCURVE",
"114 184 CURVE SMOOTH",
"114 168 OFFCURVE",
"121 127 OFFCURVE",
"144 127 CURVE SMOOTH",
"292 127 LINE",
"292 0 LINE"
);
},
{
closed = 1;
nodes = (
"150 460 LINE",
"150 677 LINE",
"80 677 LINE",
"80 460 LINE"
);
},
{
closed = 1;
nodes = (
"362 460 LINE",
"362 677 LINE",
"292 677 LINE",
"292 460 LINE"
);
},
{
closed = 1;
nodes = (
"554 737 LINE",
"554 800 LINE",
"100 800 LINE",
"100 737 LINE"
);
},
{
closed = 1;
nodes = (
"574 460 LINE",
"574 677 LINE",
"504 677 LINE",
"504 460 LINE"
);
}
);
width = 654;
}
);
unicode = 106C8;
},
{
glyphname = u106C9;
lastChange = "2017-12-19 23:21:51 +0000";
layers = (
{
layerId = UUID0;
paths = (
{
closed = 1;
nodes = (
"278 0 LINE",
"278 127 LINE",
"426 127 LINE SMOOTH",
"449 127 OFFCURVE",
"456 168 OFFCURVE",
"456 184 CURVE SMOOTH",
"456 246 OFFCURVE",
"431 305 OFFCURVE",
"362 364 CURVE",
"320 318 LINE",
"365 275 OFFCURVE",
"389 231 OFFCURVE",
"389 199 CURVE SMOOTH",
"389 190 LINE",
"278 190 LINE",
"278 480 LINE",
"702 480 LINE",
"702 800 LINE",
"632 800 LINE",
"632 543 LINE",
"490 543 LINE",
"490 800 LINE",
"420 800 LINE",
"420 543 LINE",
"278 543 LINE",
"278 800 LINE",
"208 800 LINE",
"208 190 LINE",
"97 190 LINE",
"97 199 LINE SMOOTH",
"97 231 OFFCURVE",
"121 275 OFFCURVE",
"166 318 CURVE",
"124 364 LINE",
"55 305 OFFCURVE",
"30 246 OFFCURVE",
"30 184 CURVE SMOOTH",
"30 168 OFFCURVE",
"37 127 OFFCURVE",
"60 127 CURVE SMOOTH",
"208 127 LINE",
"208 0 LINE"
);
}
);
width = 782;
}
);
unicode = 106C9;
},
